# Blender v2.90.0 OBJ File: 'TMaster_r3.blend'
# www.blender.org
mtllib TMaster_r3.mtl
o Cylinder.001
v 0.014060 0.008000 -0.006000
v 0.120060 0.008000 -0.006000
v 0.014060 0.006829 -0.005885
v 0.120060 0.006829 -0.005885
v 0.014060 0.005704 -0.005543
v 0.120060 0.005704 -0.005543
v 0.014060 0.004667 -0.004989
v 0.120060 0.004667 -0.004989
v 0.014060 0.003757 -0.004243
v 0.120060 0.003757 -0.004243
v 0.014060 0.003011 -0.003333
v 0.120060 0.003011 -0.003333
v 0.014060 0.002457 -0.002296
v 0.120060 0.002457 -0.002296
v 0.014060 0.002115 -0.001171
v 0.120060 0.002115 -0.001171
v 0.014060 0.002000 -0.000000
v 0.120060 0.002000 -0.000000
v 0.014060 0.002115 0.001171
v 0.120060 0.002115 0.001171
v 0.014060 0.002457 0.002296
v 0.120060 0.002457 0.002296
v 0.014060 0.003011 0.003333
v 0.120060 0.003011 0.003333
v 0.014060 0.003757 0.004243
v 0.120060 0.003757 0.004243
v 0.014060 0.004667 0.004989
v 0.120060 0.004667 0.004989
v 0.014060 0.005704 0.005543
v 0.120060 0.005704 0.005543
v 0.014060 0.006829 0.005885
v 0.120060 0.006829 0.005885
v 0.014060 0.008000 0.006000
v 0.120060 0.008000 0.006000
v 0.014060 0.009171 0.005885
v 0.120060 0.009170 0.005885
v 0.014060 0.010296 0.005543
v 0.120060 0.010296 0.005543
v 0.014060 0.011333 0.004989
v 0.120060 0.011333 0.004989
v 0.014060 0.012243 0.004243
v 0.120060 0.012243 0.004243
v 0.014060 0.012989 0.003333
v 0.120060 0.012989 0.003333
v 0.014060 0.013543 0.002296
v 0.120060 0.013543 0.002296
v 0.014060 0.013885 0.001171
v 0.120060 0.013885 0.001171
v 0.014060 0.014000 -0.000000
v 0.120060 0.014000 -0.000000
v 0.014060 0.013885 -0.001171
v 0.120060 0.013885 -0.001171
v 0.014060 0.013543 -0.002296
v 0.120060 0.013543 -0.002296
v 0.014060 0.012989 -0.003333
v 0.120060 0.012989 -0.003333
v 0.014060 0.012243 -0.004243
v 0.120060 0.012243 -0.004243
v 0.014060 0.011333 -0.004989
v 0.120060 0.011333 -0.004989
v 0.014060 0.010296 -0.005543
v 0.120060 0.010296 -0.005543
v 0.014060 0.009171 -0.005885
v 0.120060 0.009170 -0.005885
v 0.119901 0.008000 -0.006000
v 0.119901 0.006829 -0.005885
v 0.119901 0.005704 -0.005543
v 0.119901 0.004667 -0.004989
v 0.119901 0.003757 -0.004243
v 0.119901 0.003011 -0.003333
v 0.119901 0.002457 -0.002296
v 0.119901 0.002115 -0.001171
v 0.119901 0.002000 -0.000000
v 0.130000 0.008000 0.000000
v 0.119901 0.002115 0.001171
v 0.119901 0.002457 0.002296
v 0.119901 0.003011 0.003333
v 0.119901 0.003757 0.004243
v 0.119901 0.004667 0.004989
v 0.119901 0.005704 0.005543
v 0.119901 0.006829 0.005885
v 0.119901 0.008000 0.006000
v 0.119901 0.009170 0.005885
v 0.119901 0.010296 0.005543
v 0.119901 0.011333 0.004989
v 0.119901 0.012243 0.004243
v 0.119901 0.012989 0.003333
v 0.119901 0.013543 0.002296
v 0.119901 0.013885 0.001171
v 0.119901 0.014000 -0.000000
v 0.119901 0.013885 -0.001171
v 0.119901 0.013543 -0.002296
v 0.119901 0.012989 -0.003333
v 0.119901 0.012243 -0.004243
v 0.119901 0.011333 -0.004989
v 0.119901 0.010296 -0.005543
v 0.119901 0.009170 -0.005885
v 0.000000 0.000000 -0.017500
v 0.003414 0.000000 -0.017164
v 0.006697 0.000000 -0.016168
v 0.009722 0.000000 -0.014551
v 0.012374 0.000000 -0.012374
v 0.014551 0.000000 -0.009722
v 0.016168 0.000000 -0.006697
v 0.017164 0.000000 -0.003414
v 0.017500 0.000000 -0.000000
v 0.017164 0.000000 0.003414
v 0.016168 0.000000 0.006697
v 0.014551 0.000000 0.009722
v 0.012374 0.000000 0.012374
v 0.009722 0.000000 0.014551
v 0.006697 0.000000 0.016168
v 0.003414 0.000000 0.017164
v -0.000000 0.000000 0.017500
v -0.003414 0.000000 0.017164
v -0.006697 0.000000 0.016168
v -0.009722 0.000000 0.014551
v -0.012374 0.000000 0.012374
v -0.014551 0.000000 0.009722
v -0.016168 0.000000 0.006697
v -0.017164 0.000000 0.003414
v -0.017500 0.000000 -0.000000
v -0.017164 0.000000 -0.003414
v -0.016168 0.000000 -0.006697
v -0.014551 0.000000 -0.009722
v -0.012374 0.000000 -0.012374
v -0.009722 0.000000 -0.014551
v -0.006697 0.000000 -0.016168
v -0.003414 0.000000 -0.017164
v 0.000000 0.016000 -0.017500
v 0.003414 0.016000 -0.017164
v 0.006697 0.016000 -0.016168
v 0.009723 0.016000 -0.014551
v 0.012374 0.016000 -0.012374
v 0.014551 0.016000 -0.009722
v 0.016168 0.016000 -0.006697
v 0.017164 0.016000 -0.003414
v 0.017500 0.016000 0.000000
v 0.017164 0.016000 0.003414
v 0.016168 0.016000 0.006697
v 0.014551 0.016000 0.009722
v 0.012374 0.016000 0.012374
v 0.009722 0.016000 0.014551
v 0.006697 0.016000 0.016168
v 0.003414 0.016000 0.017164
v 0.000000 0.016000 0.017500
v -0.003414 0.016000 0.017164
v -0.006697 0.016000 0.016168
v -0.009722 0.016000 0.014551
v -0.012374 0.016000 0.012374
v -0.014551 0.016000 0.009723
v -0.016168 0.016000 0.006697
v -0.017164 0.016000 0.003414
v -0.017500 0.016000 0.000000
v -0.017164 0.016000 -0.003414
v -0.016168 0.016000 -0.006697
v -0.014551 0.016000 -0.009722
v -0.012374 0.016000 -0.012374
v -0.009723 0.016000 -0.014551
v -0.006697 0.016000 -0.016168
v -0.003414 0.016000 -0.017164
v 0.000000 0.000000 0.000000
v 0.000000 0.016000 0.000000
vn 0.0000 -1.0000 0.0000
vn 0.0000 1.0000 0.0000
vn 0.0980 -0.0000 -0.9952
vn 0.2903 0.0000 -0.9569
vn 0.4714 0.0000 -0.8819
vn 0.6344 -0.0000 -0.7730
vn 0.7730 -0.0000 -0.6344
vn 0.8819 0.0000 -0.4714
vn 0.9569 -0.0000 -0.2903
vn 0.9952 -0.0000 -0.0980
vn 0.9952 0.0000 0.0980
vn 0.9569 -0.0000 0.2903
vn 0.8819 -0.0000 0.4714
vn 0.7730 -0.0000 0.6344
vn 0.6344 -0.0000 0.7730
vn 0.4714 0.0000 0.8819
vn 0.2903 -0.0000 0.9569
vn 0.0980 -0.0000 0.9952
vn -0.0980 -0.0000 0.9952
vn -0.2903 -0.0000 0.9569
vn -0.4714 -0.0000 0.8819
vn -0.6344 -0.0000 0.7730
vn -0.7730 -0.0000 0.6344
vn -0.8819 0.0000 0.4714
vn -0.9569 -0.0000 0.2903
vn -0.9952 0.0000 0.0980
vn -0.9952 -0.0000 -0.0980
vn -0.9569 -0.0000 -0.2903
vn -0.8819 -0.0000 -0.4714
vn -0.7730 -0.0000 -0.6344
vn -0.6344 -0.0000 -0.7730
vn -0.4714 -0.0000 -0.8819
vn -0.2903 -0.0000 -0.9569
vn -0.0980 0.0000 -0.9952
vn 0.0000 0.0000 -1.0000
vn 0.0000 -0.1951 -0.9808
vn 0.0000 -0.3827 -0.9239
vn 0.0000 -0.5556 -0.8314
vn 0.0000 -0.7071 -0.7071
vn 0.0000 -0.8314 -0.5556
vn 0.0000 -0.9239 -0.3827
vn 0.0000 -0.9808 -0.1951
vn 0.0000 -0.9808 0.1951
vn 0.0000 -0.9239 0.3827
vn 0.0000 -0.8314 0.5556
vn 0.0000 -0.7071 0.7071
vn 0.0000 -0.5556 0.8314
vn 0.0000 -0.3827 0.9239
vn 0.0000 -0.1951 0.9808
vn 0.0000 0.0000 1.0000
vn 0.0000 0.1951 0.9808
vn 0.0000 0.3827 0.9239
vn 0.0000 0.5556 0.8314
vn 0.0000 0.7071 0.7071
vn 0.0000 0.8314 0.5556
vn 0.0000 0.9239 0.3827
vn 0.0000 0.9808 0.1951
vn 0.0000 0.9808 -0.1951
vn 0.0000 0.9239 -0.3827
vn 0.0000 0.8314 -0.5556
vn 0.0000 0.7071 -0.7071
vn 0.0000 0.5556 -0.8314
vn 0.0000 0.3827 -0.9239
vn 0.0000 0.1951 -0.9808
vn 0.5108 0.3290 -0.7943
vn 1.0000 0.0000 0.0000
vn 0.5108 0.1677 -0.8432
vn 0.5108 0.0000 -0.8597
vn 0.5108 -0.1677 -0.8432
vn 0.5108 0.4776 -0.7148
vn 0.5108 0.6079 -0.6079
vn 0.5108 0.7148 -0.4776
vn 0.5108 0.7942 -0.3290
vn 0.5108 0.8432 -0.1677
vn 0.5108 0.8597 0.0000
vn 0.5108 0.8432 0.1677
vn 0.5108 0.7942 0.3290
vn 0.5108 0.7148 0.4776
vn 0.5108 0.6079 0.6079
vn 0.5108 0.4776 0.7148
vn 0.5108 0.3290 0.7942
vn 0.5108 0.1677 0.8432
vn 0.5108 0.0000 0.8597
vn 0.5108 -0.1677 0.8432
vn 0.5108 -0.3290 0.7942
vn 0.5108 -0.4776 0.7148
vn 0.5108 -0.6079 0.6079
vn 0.5108 -0.7148 0.4776
vn 0.5108 -0.7942 0.3290
vn 0.5108 -0.8432 0.1677
vn 0.5108 -0.8597 0.0000
vn 0.5108 -0.8432 -0.1677
vn 0.5108 -0.7942 -0.3290
vn 0.5108 -0.7148 -0.4776
vn 0.5108 -0.6079 -0.6079
vn 0.5108 -0.4776 -0.7148
vn 0.5108 -0.3290 -0.7942
usemtl Material.001
s off
f 162//1 98//1 99//1
f 163//2 131//2 130//2
f 162//1 99//1 100//1
f 163//2 132//2 131//2
f 162//1 100//1 101//1
f 163//2 133//2 132//2
f 162//1 101//1 102//1
f 163//2 134//2 133//2
f 162//1 102//1 103//1
f 163//2 135//2 134//2
f 162//1 103//1 104//1
f 163//2 136//2 135//2
f 162//1 104//1 105//1
f 163//2 137//2 136//2
f 162//1 105//1 106//1
f 163//2 138//2 137//2
f 162//1 106//1 107//1
f 163//2 139//2 138//2
f 162//1 107//1 108//1
f 163//2 140//2 139//2
f 162//1 108//1 109//1
f 163//2 141//2 140//2
f 162//1 109//1 110//1
f 163//2 142//2 141//2
f 162//1 110//1 111//1
f 163//2 143//2 142//2
f 162//1 111//1 112//1
f 163//2 144//2 143//2
f 162//1 112//1 113//1
f 163//2 145//2 144//2
f 162//1 113//1 114//1
f 163//2 146//2 145//2
f 162//1 114//1 115//1
f 163//2 147//2 146//2
f 162//1 115//1 116//1
f 163//2 148//2 147//2
f 162//1 116//1 117//1
f 163//2 149//2 148//2
f 162//1 117//1 118//1
f 163//2 150//2 149//2
f 162//1 118//1 119//1
f 163//2 151//2 150//2
f 162//1 119//1 120//1
f 163//2 152//2 151//2
f 162//1 120//1 121//1
f 163//2 153//2 152//2
f 162//1 121//1 122//1
f 163//2 154//2 153//2
f 162//1 122//1 123//1
f 163//2 155//2 154//2
f 162//1 123//1 124//1
f 163//2 156//2 155//2
f 162//1 124//1 125//1
f 163//2 157//2 156//2
f 162//1 125//1 126//1
f 163//2 158//2 157//2
f 162//1 126//1 127//1
f 163//2 159//2 158//2
f 162//1 127//1 128//1
f 163//2 160//2 159//2
f 162//1 128//1 129//1
f 163//2 161//2 160//2
f 129//1 98//1 162//1
f 163//2 130//2 161//2
f 98//3 130//3 131//3 99//3
f 99//4 131//4 132//4 100//4
f 100//5 132//5 133//5 101//5
f 101//6 133//6 134//6 102//6
f 102//7 134//7 135//7 103//7
f 103//8 135//8 136//8 104//8
f 104//9 136//9 137//9 105//9
f 105//10 137//10 138//10 106//10
f 106//11 138//11 139//11 107//11
f 107//12 139//12 140//12 108//12
f 108//13 140//13 141//13 109//13
f 109//14 141//14 142//14 110//14
f 110//15 142//15 143//15 111//15
f 111//16 143//16 144//16 112//16
f 112//17 144//17 145//17 113//17
f 113//18 145//18 146//18 114//18
f 114//19 146//19 147//19 115//19
f 115//20 147//20 148//20 116//20
f 116//21 148//21 149//21 117//21
f 117//22 149//22 150//22 118//22
f 118//23 150//23 151//23 119//23
f 119//24 151//24 152//24 120//24
f 120//25 152//25 153//25 121//25
f 121//26 153//26 154//26 122//26
f 122//27 154//27 155//27 123//27
f 123//28 155//28 156//28 124//28
f 124//29 156//29 157//29 125//29
f 125//30 157//30 158//30 126//30
f 126//31 158//31 159//31 127//31
f 127//32 159//32 160//32 128//32
f 128//33 160//33 161//33 129//33
f 130//34 98//34 129//34 161//34
s 1
f 1//35 2//35 4//36 3//36
f 3//36 4//36 6//37 5//37
f 5//37 6//37 8//38 7//38
f 7//38 8//38 10//39 9//39
f 9//39 10//39 12//40 11//40
f 11//40 12//40 14//41 13//41
f 13//41 14//41 16//42 15//42
f 15//42 16//42 18//1 17//1
f 17//1 18//1 20//43 19//43
f 19//43 20//43 22//44 21//44
f 21//44 22//44 24//45 23//45
f 23//45 24//45 26//46 25//46
f 25//46 26//46 28//47 27//47
f 27//47 28//47 30//48 29//48
f 29//48 30//48 32//49 31//49
f 31//49 32//49 34//50 33//50
f 33//50 34//50 36//51 35//51
f 35//51 36//51 38//52 37//52
f 37//52 38//52 40//53 39//53
f 39//53 40//53 42//54 41//54
f 41//54 42//54 44//55 43//55
f 43//55 44//55 46//56 45//56
f 45//56 46//56 48//57 47//57
f 47//57 48//57 50//2 49//2
f 49//2 50//2 52//58 51//58
f 51//58 52//58 54//59 53//59
f 53//59 54//59 56//60 55//60
f 55//60 56//60 58//61 57//61
f 57//61 58//61 60//62 59//62
f 59//62 60//62 62//63 61//63
f 2//35 1//35 63//64 64//64
f 61//63 62//63 64//64 63//64
f 96//65 74//66 97//67
f 65//68 74//66 66//69
f 95//70 74//66 96//65
f 94//71 74//66 95//70
f 93//72 74//66 94//71
f 92//73 74//66 93//72
f 91//74 74//66 92//73
f 90//75 74//66 91//74
f 89//76 74//66 90//75
f 88//77 74//66 89//76
f 87//78 74//66 88//77
f 86//79 74//66 87//78
f 85//80 74//66 86//79
f 84//81 74//66 85//80
f 83//82 74//66 84//81
f 82//83 74//66 83//82
f 81//84 74//66 82//83
f 80//85 74//66 81//84
f 79//86 74//66 80//85
f 78//87 74//66 79//86
f 77//88 74//66 78//87
f 76//89 74//66 77//88
f 75//90 74//66 76//89
f 73//91 74//66 75//90
f 72//92 74//66 73//91
f 71//93 74//66 72//92
f 70//94 74//66 71//93
f 69//95 74//66 70//94
f 68//96 74//66 69//95
f 67//97 74//66 68//96
f 97//67 74//66 65//68
f 66//69 74//66 67//97
l 1 3
l 2 4
l 1 2
l 3 4
l 3 5
l 4 6
l 5 6
l 5 7
l 6 8
l 7 8
l 7 9
l 8 10
l 9 10
l 9 11
l 10 12
l 11 12
l 11 13
l 12 14
l 13 14
l 13 15
l 14 16
l 15 16
l 15 17
l 16 18
l 17 18
l 17 19
l 18 20
l 19 20
l 19 21
l 20 22
l 21 22
l 21 23
l 22 24
l 23 24
l 23 25
l 24 26
l 25 26
l 25 27
l 26 28
l 27 28
l 27 29
l 28 30
l 29 30
l 29 31
l 30 32
l 31 32
l 31 33
l 32 34
l 33 34
l 33 35
l 34 36
l 35 36
l 35 37
l 36 38
l 37 38
l 37 39
l 38 40
l 39 40
l 39 41
l 40 42
l 41 42
l 41 43
l 42 44
l 43 44
l 43 45
l 44 46
l 45 46
l 45 47
l 46 48
l 47 48
l 47 49
l 48 50
l 49 50
l 49 51
l 50 52
l 51 52
l 51 53
l 52 54
l 53 54
l 53 55
l 54 56
l 55 56
l 55 57
l 56 58
l 57 58
l 57 59
l 58 60
l 59 60
l 59 61
l 60 62
l 61 62
l 61 63
l 62 64
l 63 64
l 1 63
l 2 64
l 65 66
l 67 74
l 66 74
l 66 67
l 65 74
l 67 68
l 74 97
l 68 69
l 74 96
l 69 70
l 74 95
l 70 71
l 74 94
l 71 72
l 74 93
l 72 73
l 73 74
l 74 92
l 73 75
l 74 91
l 75 76
l 74 90
l 76 77
l 74 89
l 77 78
l 74 88
l 78 79
l 74 87
l 79 80
l 74 86
l 80 81
l 74 85
l 81 82
l 74 84
l 82 83
l 74 83
l 83 84
l 74 82
l 84 85
l 74 81
l 85 86
l 74 80
l 86 87
l 74 79
l 87 88
l 74 78
l 88 89
l 74 77
l 89 90
l 74 76
l 90 91
l 74 75
l 91 92
l 72 74
l 92 93
l 71 74
l 93 94
l 70 74
l 94 95
l 69 74
l 95 96
l 68 74
l 96 97
l 65 97
l 98 162
l 98 99
l 99 162
l 130 163
l 130 131
l 131 163
l 99 100
l 100 162
l 131 132
l 132 163
l 100 101
l 101 162
l 132 133
l 133 163
l 101 102
l 102 162
l 133 134
l 134 163
l 102 103
l 103 162
l 134 135
l 135 163
l 103 104
l 104 162
l 135 136
l 136 163
l 104 105
l 105 162
l 136 137
l 137 163
l 105 106
l 106 162
l 137 138
l 138 163
l 106 107
l 107 162
l 138 139
l 139 163
l 107 108
l 108 162
l 139 140
l 140 163
l 108 109
l 109 162
l 140 141
l 141 163
l 109 110
l 110 162
l 141 142
l 142 163
l 110 111
l 111 162
l 142 143
l 143 163
l 111 112
l 112 162
l 143 144
l 144 163
l 112 113
l 113 162
l 144 145
l 145 163
l 113 114
l 114 162
l 145 146
l 146 163
l 114 115
l 115 162
l 146 147
l 147 163
l 115 116
l 116 162
l 147 148
l 148 163
l 116 117
l 117 162
l 148 149
l 149 163
l 117 118
l 118 162
l 149 150
l 150 163
l 118 119
l 119 162
l 150 151
l 151 163
l 119 120
l 120 162
l 151 152
l 152 163
l 120 121
l 121 162
l 152 153
l 153 163
l 121 122
l 122 162
l 153 154
l 154 163
l 122 123
l 123 162
l 154 155
l 155 163
l 123 124
l 124 162
l 155 156
l 156 163
l 124 125
l 125 162
l 156 157
l 157 163
l 125 126
l 126 162
l 157 158
l 158 163
l 126 127
l 127 162
l 158 159
l 159 163
l 127 128
l 128 162
l 159 160
l 160 163
l 128 129
l 129 162
l 160 161
l 161 163
l 98 129
l 130 161
l 99 131
l 98 130
l 100 132
l 101 133
l 102 134
l 103 135
l 104 136
l 105 137
l 106 138
l 107 139
l 108 140
l 109 141
l 110 142
l 111 143
l 112 144
l 113 145
l 114 146
l 115 147
l 116 148
l 117 149
l 118 150
l 119 151
l 120 152
l 121 153
l 122 154
l 123 155
l 124 156
l 125 157
l 126 158
l 127 159
l 128 160
l 129 161
