# Blender v2.90.0 OBJ File: 'Origin.blend'
# www.blender.org
mtllib Origin.mtl
o Sphere
v 0.001913 -0.009808 -0.000381
v 0.003753 -0.009239 -0.000747
v 0.005449 -0.008315 -0.001084
v 0.006935 -0.007071 -0.001379
v 0.008155 -0.005556 -0.001622
v 0.009061 -0.003827 -0.001802
v 0.009619 -0.001951 -0.001913
v 0.009808 0.000000 -0.001951
v 0.009619 0.001951 -0.001913
v 0.009061 0.003827 -0.001802
v 0.008155 0.005556 -0.001622
v 0.006935 0.007071 -0.001379
v 0.005449 0.008315 -0.001084
v 0.003753 0.009239 -0.000747
v 0.001913 0.009808 -0.000381
v 0.001802 0.009808 -0.000747
v 0.003536 0.009239 -0.001464
v 0.005133 0.008315 -0.002126
v 0.006533 0.007071 -0.002706
v 0.007682 0.005556 -0.003182
v 0.008536 0.003827 -0.003536
v 0.009061 0.001951 -0.003753
v 0.009239 0.000000 -0.003827
v 0.009061 -0.001951 -0.003753
v 0.008536 -0.003827 -0.003536
v 0.007682 -0.005556 -0.003182
v 0.006533 -0.007071 -0.002706
v 0.005133 -0.008315 -0.002126
v 0.003536 -0.009239 -0.001464
v 0.001802 -0.009808 -0.000747
v 0.001622 -0.009808 -0.001084
v 0.003182 -0.009239 -0.002126
v 0.004619 -0.008315 -0.003087
v 0.005879 -0.007071 -0.003928
v 0.006913 -0.005556 -0.004619
v 0.007682 -0.003827 -0.005133
v 0.008155 -0.001951 -0.005449
v 0.008315 0.000000 -0.005556
v 0.008155 0.001951 -0.005449
v 0.007682 0.003827 -0.005133
v 0.006913 0.005556 -0.004619
v 0.005879 0.007071 -0.003928
v 0.004619 0.008315 -0.003087
v 0.003182 0.009239 -0.002126
v 0.001622 0.009808 -0.001084
v 0.001379 0.009808 -0.001379
v 0.002706 0.009239 -0.002706
v 0.003928 0.008315 -0.003928
v 0.005000 0.007071 -0.005000
v 0.005879 0.005556 -0.005879
v 0.006533 0.003827 -0.006533
v 0.006935 0.001951 -0.006935
v 0.007071 0.000000 -0.007071
v 0.006935 -0.001951 -0.006935
v 0.006533 -0.003827 -0.006533
v 0.005879 -0.005556 -0.005879
v 0.005000 -0.007071 -0.005000
v 0.003928 -0.008315 -0.003928
v 0.002706 -0.009239 -0.002706
v 0.001379 -0.009808 -0.001379
v 0.001084 -0.009808 -0.001622
v 0.002126 -0.009239 -0.003182
v 0.003087 -0.008315 -0.004619
v 0.003928 -0.007071 -0.005879
v 0.004619 -0.005556 -0.006913
v 0.005133 -0.003827 -0.007682
v 0.005449 -0.001951 -0.008155
v 0.005556 0.000000 -0.008315
v 0.005449 0.001951 -0.008155
v 0.005133 0.003827 -0.007682
v 0.004619 0.005556 -0.006913
v 0.003928 0.007071 -0.005879
v 0.003087 0.008315 -0.004619
v 0.002126 0.009239 -0.003182
v 0.001084 0.009808 -0.001622
v 0.000747 0.009808 -0.001802
v 0.001464 0.009239 -0.003536
v 0.002126 0.008315 -0.005133
v 0.002706 0.007071 -0.006533
v 0.003182 0.005556 -0.007682
v 0.003536 0.003827 -0.008536
v 0.003753 0.001951 -0.009061
v 0.003827 0.000000 -0.009239
v 0.003753 -0.001951 -0.009061
v 0.003536 -0.003827 -0.008536
v 0.003182 -0.005556 -0.007682
v 0.002706 -0.007071 -0.006533
v 0.002126 -0.008315 -0.005133
v 0.001464 -0.009239 -0.003536
v 0.000747 -0.009808 -0.001802
v -0.000000 -0.010000 0.000000
v 0.000381 -0.009808 -0.001913
v 0.000747 -0.009239 -0.003753
v 0.001084 -0.008315 -0.005449
v 0.001379 -0.007071 -0.006935
v 0.001622 -0.005556 -0.008155
v 0.001802 -0.003827 -0.009061
v 0.001913 -0.001951 -0.009619
v 0.001951 0.000000 -0.009808
v 0.001913 0.001951 -0.009619
v 0.001802 0.003827 -0.009061
v 0.001622 0.005556 -0.008155
v 0.001379 0.007071 -0.006935
v 0.001084 0.008315 -0.005449
v 0.000747 0.009239 -0.003753
v 0.000381 0.009808 -0.001913
v -0.000000 0.009808 -0.001951
v -0.000000 0.009239 -0.003827
v -0.000000 0.008315 -0.005556
v -0.000000 0.007071 -0.007071
v -0.000000 0.005556 -0.008315
v -0.000000 0.003827 -0.009239
v -0.000000 0.001951 -0.009808
v -0.000000 0.000000 -0.010000
v -0.000000 -0.001951 -0.009808
v -0.000000 -0.003827 -0.009239
v -0.000000 -0.005556 -0.008315
v -0.000000 -0.007071 -0.007071
v -0.000000 -0.008315 -0.005556
v -0.000000 -0.009239 -0.003827
v -0.000000 -0.009808 -0.001951
v -0.000381 -0.009808 -0.001913
v -0.000747 -0.009239 -0.003753
v -0.001084 -0.008315 -0.005449
v -0.001379 -0.007071 -0.006935
v -0.001622 -0.005556 -0.008155
v -0.001802 -0.003827 -0.009061
v -0.001913 -0.001951 -0.009619
v -0.001951 0.000000 -0.009808
v -0.001913 0.001951 -0.009619
v -0.001802 0.003827 -0.009061
v -0.001622 0.005556 -0.008155
v -0.001379 0.007071 -0.006935
v -0.001084 0.008315 -0.005449
v -0.000747 0.009239 -0.003753
v -0.000381 0.009808 -0.001913
v -0.000747 0.009808 -0.001802
v -0.001464 0.009239 -0.003536
v -0.002126 0.008315 -0.005133
v -0.002706 0.007071 -0.006533
v -0.003182 0.005556 -0.007682
v -0.003536 0.003827 -0.008536
v -0.003753 0.001951 -0.009061
v -0.003827 0.000000 -0.009239
v -0.003753 -0.001951 -0.009061
v -0.003536 -0.003827 -0.008536
v -0.003182 -0.005556 -0.007682
v -0.002706 -0.007071 -0.006533
v -0.002126 -0.008315 -0.005133
v -0.001464 -0.009239 -0.003536
v -0.000747 -0.009808 -0.001802
v -0.001084 -0.009808 -0.001622
v -0.002126 -0.009239 -0.003182
v -0.003087 -0.008315 -0.004619
v -0.003928 -0.007071 -0.005879
v -0.004619 -0.005556 -0.006913
v -0.005133 -0.003827 -0.007682
v -0.005449 -0.001951 -0.008155
v -0.005556 0.000000 -0.008315
v -0.005449 0.001951 -0.008155
v -0.005133 0.003827 -0.007682
v -0.004619 0.005556 -0.006913
v -0.003928 0.007071 -0.005879
v -0.003087 0.008315 -0.004619
v -0.002126 0.009239 -0.003182
v -0.001084 0.009808 -0.001622
v -0.001379 0.009808 -0.001379
v -0.002706 0.009239 -0.002706
v -0.003928 0.008315 -0.003928
v -0.005000 0.007071 -0.005000
v -0.005879 0.005556 -0.005879
v -0.006533 0.003827 -0.006533
v -0.006935 0.001951 -0.006935
v -0.007071 0.000000 -0.007071
v -0.006935 -0.001951 -0.006935
v -0.006533 -0.003827 -0.006533
v -0.005879 -0.005556 -0.005879
v -0.005000 -0.007071 -0.005000
v -0.003928 -0.008315 -0.003928
v -0.002706 -0.009239 -0.002706
v -0.001379 -0.009808 -0.001379
v -0.001622 -0.009808 -0.001084
v -0.003182 -0.009239 -0.002126
v -0.004619 -0.008315 -0.003087
v -0.005879 -0.007071 -0.003928
v -0.006913 -0.005556 -0.004619
v -0.007682 -0.003827 -0.005133
v -0.008155 -0.001951 -0.005449
v -0.008315 0.000000 -0.005556
v -0.008155 0.001951 -0.005449
v -0.007682 0.003827 -0.005133
v -0.006913 0.005556 -0.004619
v -0.005879 0.007071 -0.003928
v -0.004619 0.008315 -0.003087
v -0.003182 0.009239 -0.002126
v -0.001622 0.009808 -0.001084
v -0.001802 0.009808 -0.000747
v -0.003536 0.009239 -0.001464
v -0.005133 0.008315 -0.002126
v -0.006533 0.007071 -0.002706
v -0.007682 0.005556 -0.003182
v -0.008536 0.003827 -0.003536
v -0.009061 0.001951 -0.003753
v -0.009239 0.000000 -0.003827
v -0.009061 -0.001951 -0.003753
v -0.008536 -0.003827 -0.003536
v -0.007682 -0.005556 -0.003182
v -0.006533 -0.007071 -0.002706
v -0.005133 -0.008315 -0.002126
v -0.003536 -0.009239 -0.001464
v -0.001802 -0.009808 -0.000747
v -0.001913 -0.009808 -0.000381
v -0.003753 -0.009239 -0.000747
v -0.005449 -0.008315 -0.001084
v -0.006935 -0.007071 -0.001379
v -0.008155 -0.005556 -0.001622
v -0.009061 -0.003827 -0.001802
v -0.009619 -0.001951 -0.001913
v -0.009808 0.000000 -0.001951
v -0.009619 0.001951 -0.001913
v -0.009061 0.003827 -0.001802
v -0.008155 0.005556 -0.001622
v -0.006935 0.007071 -0.001379
v -0.005449 0.008315 -0.001084
v -0.003753 0.009239 -0.000747
v -0.001913 0.009808 -0.000381
v -0.001951 0.009808 0.000000
v -0.003827 0.009239 0.000000
v -0.005556 0.008315 0.000000
v -0.007071 0.007071 0.000000
v -0.008315 0.005556 0.000000
v -0.009239 0.003827 0.000000
v -0.009808 0.001951 0.000000
v -0.010000 0.000000 0.000000
v -0.009808 -0.001951 0.000000
v -0.009239 -0.003827 0.000000
v -0.008315 -0.005556 0.000000
v -0.007071 -0.007071 0.000000
v -0.005556 -0.008315 0.000000
v -0.003827 -0.009239 0.000000
v -0.001951 -0.009808 0.000000
v -0.001913 -0.009808 0.000381
v -0.003753 -0.009239 0.000747
v -0.005449 -0.008315 0.001084
v -0.006935 -0.007071 0.001379
v -0.008155 -0.005556 0.001622
v -0.009061 -0.003827 0.001802
v -0.009619 -0.001951 0.001913
v -0.009808 0.000000 0.001951
v -0.009619 0.001951 0.001913
v -0.009061 0.003827 0.001802
v -0.008155 0.005556 0.001622
v -0.006935 0.007071 0.001379
v -0.005449 0.008315 0.001084
v -0.003753 0.009239 0.000747
v -0.001913 0.009808 0.000381
v -0.001802 0.009808 0.000747
v -0.003536 0.009239 0.001464
v -0.005133 0.008315 0.002126
v -0.006533 0.007071 0.002706
v -0.007682 0.005556 0.003182
v -0.008536 0.003827 0.003536
v -0.009061 0.001951 0.003753
v -0.009239 0.000000 0.003827
v -0.009061 -0.001951 0.003753
v -0.008536 -0.003827 0.003536
v -0.007682 -0.005556 0.003182
v -0.006533 -0.007071 0.002706
v -0.005133 -0.008315 0.002126
v -0.003536 -0.009239 0.001464
v -0.001802 -0.009808 0.000747
v -0.001622 -0.009808 0.001084
v -0.003182 -0.009239 0.002126
v -0.004619 -0.008315 0.003087
v -0.005879 -0.007071 0.003928
v -0.006913 -0.005556 0.004619
v -0.007682 -0.003827 0.005133
v -0.008155 -0.001951 0.005449
v -0.008315 0.000000 0.005556
v -0.008155 0.001951 0.005449
v -0.007682 0.003827 0.005133
v -0.006913 0.005556 0.004619
v -0.005879 0.007071 0.003928
v -0.004619 0.008315 0.003087
v -0.003182 0.009239 0.002126
v -0.001622 0.009808 0.001084
v -0.001379 0.009808 0.001379
v -0.002706 0.009239 0.002706
v -0.003928 0.008315 0.003928
v -0.005000 0.007071 0.005000
v -0.005879 0.005556 0.005879
v -0.006533 0.003827 0.006533
v -0.006935 0.001951 0.006935
v -0.007071 0.000000 0.007071
v -0.006935 -0.001951 0.006935
v -0.006533 -0.003827 0.006533
v -0.005879 -0.005556 0.005879
v -0.005000 -0.007071 0.005000
v -0.003928 -0.008315 0.003928
v -0.002706 -0.009239 0.002706
v -0.001379 -0.009808 0.001379
v -0.001084 -0.009808 0.001622
v -0.002126 -0.009239 0.003182
v -0.003087 -0.008315 0.004619
v -0.003928 -0.007071 0.005879
v -0.004619 -0.005556 0.006913
v -0.005133 -0.003827 0.007682
v -0.005449 -0.001951 0.008155
v -0.005556 0.000000 0.008315
v -0.005449 0.001951 0.008155
v -0.005133 0.003827 0.007682
v -0.004619 0.005556 0.006913
v -0.003928 0.007071 0.005879
v -0.003087 0.008315 0.004619
v -0.002126 0.009239 0.003182
v -0.001084 0.009808 0.001622
v -0.000747 0.009808 0.001802
v -0.001464 0.009239 0.003536
v -0.002126 0.008315 0.005133
v -0.002706 0.007071 0.006533
v -0.003182 0.005556 0.007682
v -0.003536 0.003827 0.008536
v -0.003753 0.001951 0.009061
v -0.003827 0.000000 0.009239
v -0.003753 -0.001951 0.009061
v -0.003536 -0.003827 0.008536
v -0.003182 -0.005556 0.007682
v -0.002706 -0.007071 0.006533
v -0.002126 -0.008315 0.005133
v -0.001464 -0.009239 0.003536
v -0.000747 -0.009808 0.001802
v -0.000381 -0.009808 0.001913
v -0.000747 -0.009239 0.003753
v -0.001084 -0.008315 0.005449
v -0.001379 -0.007071 0.006935
v -0.001622 -0.005556 0.008155
v -0.001802 -0.003827 0.009061
v -0.001913 -0.001951 0.009619
v -0.001951 0.000000 0.009808
v -0.001913 0.001951 0.009619
v -0.001802 0.003827 0.009061
v -0.001622 0.005556 0.008155
v -0.001379 0.007071 0.006935
v -0.001084 0.008315 0.005449
v -0.000747 0.009239 0.003753
v -0.000381 0.009808 0.001913
v 0.000000 0.009808 0.001951
v 0.000000 0.009239 0.003827
v 0.000000 0.008315 0.005556
v 0.000000 0.007071 0.007071
v 0.000000 0.005556 0.008315
v 0.000000 0.003827 0.009239
v 0.000000 0.001951 0.009808
v 0.000000 0.000000 0.010000
v 0.000000 -0.001951 0.009808
v 0.000000 -0.003827 0.009239
v 0.000000 -0.005556 0.008315
v 0.000000 -0.007071 0.007071
v 0.000000 -0.008315 0.005556
v 0.000000 -0.009239 0.003827
v 0.000000 -0.009808 0.001951
v 0.000381 -0.009808 0.001913
v 0.000747 -0.009239 0.003753
v 0.001084 -0.008315 0.005449
v 0.001379 -0.007071 0.006935
v 0.001622 -0.005556 0.008155
v 0.001802 -0.003827 0.009061
v 0.001913 -0.001951 0.009619
v 0.001951 0.000000 0.009808
v 0.001913 0.001951 0.009619
v 0.001802 0.003827 0.009061
v 0.001622 0.005556 0.008155
v 0.001379 0.007071 0.006935
v 0.001084 0.008315 0.005449
v 0.000747 0.009239 0.003753
v 0.000381 0.009808 0.001913
v 0.000747 0.009808 0.001802
v 0.001464 0.009239 0.003536
v 0.002126 0.008315 0.005133
v 0.002706 0.007071 0.006533
v 0.003182 0.005556 0.007682
v 0.003536 0.003827 0.008536
v 0.003753 0.001951 0.009061
v 0.003827 0.000000 0.009239
v 0.003753 -0.001951 0.009061
v 0.003536 -0.003827 0.008536
v 0.003182 -0.005556 0.007682
v 0.002706 -0.007071 0.006533
v 0.002126 -0.008315 0.005133
v 0.001464 -0.009239 0.003536
v 0.000747 -0.009808 0.001802
v 0.001084 -0.009808 0.001622
v 0.002126 -0.009239 0.003182
v 0.003087 -0.008315 0.004619
v 0.003928 -0.007071 0.005879
v 0.004619 -0.005556 0.006913
v 0.005133 -0.003827 0.007682
v 0.005449 -0.001951 0.008155
v 0.005556 0.000000 0.008315
v 0.005449 0.001951 0.008155
v 0.005133 0.003827 0.007682
v 0.004619 0.005556 0.006913
v 0.003928 0.007071 0.005879
v 0.003087 0.008315 0.004619
v 0.002126 0.009239 0.003182
v 0.001084 0.009808 0.001622
v 0.001379 0.009808 0.001379
v 0.002706 0.009239 0.002706
v 0.003928 0.008315 0.003928
v 0.005000 0.007071 0.005000
v 0.005879 0.005556 0.005879
v 0.006533 0.003827 0.006533
v 0.006935 0.001951 0.006935
v 0.007071 0.000000 0.007071
v 0.006935 -0.001951 0.006935
v 0.006533 -0.003827 0.006533
v 0.005879 -0.005556 0.005879
v 0.005000 -0.007071 0.005000
v 0.003928 -0.008315 0.003928
v 0.002706 -0.009239 0.002706
v 0.001379 -0.009808 0.001379
v 0.001622 -0.009808 0.001084
v 0.003182 -0.009239 0.002126
v 0.004619 -0.008315 0.003087
v 0.005879 -0.007071 0.003928
v 0.006913 -0.005556 0.004619
v 0.007682 -0.003827 0.005133
v 0.008155 -0.001951 0.005449
v 0.008315 0.000000 0.005556
v 0.008155 0.001951 0.005449
v 0.007682 0.003827 0.005133
v 0.006913 0.005556 0.004619
v 0.005879 0.007071 0.003928
v 0.004619 0.008315 0.003087
v 0.003182 0.009239 0.002126
v 0.001622 0.009808 0.001084
v 0.001802 0.009808 0.000747
v 0.003536 0.009239 0.001464
v 0.005133 0.008315 0.002126
v 0.006533 0.007071 0.002706
v 0.007682 0.005556 0.003182
v 0.008536 0.003827 0.003536
v 0.009061 0.001951 0.003753
v 0.009239 0.000000 0.003827
v 0.009061 -0.001951 0.003753
v 0.008536 -0.003827 0.003536
v 0.007682 -0.005556 0.003182
v 0.006533 -0.007071 0.002706
v 0.005133 -0.008315 0.002126
v 0.003536 -0.009239 0.001464
v 0.001802 -0.009808 0.000747
v 0.001913 -0.009808 0.000381
v 0.003753 -0.009239 0.000747
v 0.005449 -0.008315 0.001084
v 0.006935 -0.007071 0.001379
v 0.008155 -0.005556 0.001622
v 0.009061 -0.003827 0.001802
v 0.009619 -0.001951 0.001913
v 0.009808 0.000000 0.001951
v 0.009619 0.001951 0.001913
v 0.009061 0.003827 0.001802
v 0.008155 0.005556 0.001622
v 0.006935 0.007071 0.001379
v 0.005449 0.008315 0.001084
v 0.003753 0.009239 0.000747
v 0.001913 0.009808 0.000381
v 0.000000 0.010000 0.000000
v 0.001951 0.009808 -0.000000
v 0.003827 0.009239 -0.000000
v 0.005556 0.008315 -0.000000
v 0.007071 0.007071 -0.000000
v 0.008315 0.005556 -0.000000
v 0.009239 0.003827 -0.000000
v 0.009808 0.001951 -0.000000
v 0.010000 0.000000 -0.000000
v 0.009808 -0.001951 -0.000000
v 0.009239 -0.003827 -0.000000
v 0.008315 -0.005556 -0.000000
v 0.007071 -0.007071 -0.000000
v 0.005556 -0.008315 -0.000000
v 0.003827 -0.009239 -0.000000
v 0.001951 -0.009808 -0.000000
v 0.120000 0.000000 -0.010000
v 0.120000 -0.001951 -0.009808
v 0.120000 -0.003827 -0.009239
v 0.120000 -0.005556 -0.008315
v 0.120000 -0.007071 -0.007071
v 0.120000 -0.008315 -0.005556
v 0.120000 -0.009239 -0.003827
v 0.120000 -0.009808 -0.001951
v 0.120000 -0.010000 -0.000000
v 0.120000 -0.009808 0.001951
v 0.120000 -0.009239 0.003827
v 0.120000 -0.008315 0.005556
v 0.120000 -0.007071 0.007071
v 0.120000 -0.005556 0.008315
v 0.120000 -0.003827 0.009239
v 0.120000 -0.001951 0.009808
v 0.120000 0.000000 0.010000
v 0.120000 0.001951 0.009808
v 0.120000 0.003827 0.009239
v 0.120000 0.005556 0.008315
v 0.120000 0.007071 0.007071
v 0.120000 0.008315 0.005556
v 0.120000 0.009239 0.003827
v 0.120000 0.009808 0.001951
v 0.120000 0.010000 -0.000000
v 0.120000 0.009808 -0.001951
v 0.120000 0.009239 -0.003827
v 0.120000 0.008315 -0.005556
v 0.120000 0.007071 -0.007071
v 0.120000 0.005556 -0.008315
v 0.120000 0.003827 -0.009239
v 0.120000 0.001951 -0.009808
v 0.144000 -0.000000 0.000000
v 0.120000 0.000000 0.000000
v 0.000000 -0.010000 -0.120000
v 0.001951 -0.009808 -0.120000
v 0.003827 -0.009239 -0.120000
v 0.005556 -0.008315 -0.120000
v 0.007071 -0.007071 -0.120000
v 0.008315 -0.005556 -0.120000
v 0.009239 -0.003827 -0.120000
v 0.009808 -0.001951 -0.120000
v 0.010000 0.000000 -0.120000
v 0.009808 0.001951 -0.120000
v 0.009239 0.003827 -0.120000
v 0.008315 0.005556 -0.120000
v 0.007071 0.007071 -0.120000
v 0.005556 0.008315 -0.120000
v 0.003827 0.009239 -0.120000
v 0.001951 0.009808 -0.120000
v -0.000000 0.010000 -0.120000
v -0.001951 0.009808 -0.120000
v -0.003827 0.009239 -0.120000
v -0.005556 0.008315 -0.120000
v -0.007071 0.007071 -0.120000
v -0.008315 0.005556 -0.120000
v -0.009239 0.003827 -0.120000
v -0.009808 0.001951 -0.120000
v -0.010000 -0.000000 -0.120000
v -0.009808 -0.001951 -0.120000
v -0.009239 -0.003827 -0.120000
v -0.008315 -0.005556 -0.120000
v -0.007071 -0.007071 -0.120000
v -0.005556 -0.008315 -0.120000
v -0.003827 -0.009239 -0.120000
v -0.001951 -0.009808 -0.120000
v 0.000000 -0.000000 -0.144000
v 0.000000 0.000000 -0.120000
v 0.000000 0.120000 -0.010000
v 0.001951 0.120000 -0.009808
v 0.003827 0.120000 -0.009239
v 0.005556 0.120000 -0.008315
v 0.007071 0.120000 -0.007071
v 0.008315 0.120000 -0.005556
v 0.009239 0.120000 -0.003827
v 0.009808 0.120000 -0.001951
v 0.010000 0.120000 -0.000000
v 0.009808 0.120000 0.001951
v 0.009239 0.120000 0.003827
v 0.008315 0.120000 0.005556
v 0.007071 0.120000 0.007071
v 0.005556 0.120000 0.008315
v 0.003827 0.120000 0.009239
v 0.001951 0.120000 0.009808
v -0.000000 0.120000 0.010000
v -0.001951 0.120000 0.009808
v -0.003827 0.120000 0.009239
v -0.005556 0.120000 0.008315
v -0.007071 0.120000 0.007071
v -0.008315 0.120000 0.005556
v -0.009239 0.120000 0.003827
v -0.009808 0.120000 0.001951
v -0.010000 0.120000 -0.000000
v -0.009808 0.120000 -0.001951
v -0.009239 0.120000 -0.003827
v -0.008315 0.120000 -0.005556
v -0.007071 0.120000 -0.007071
v -0.005556 0.120000 -0.008315
v -0.003827 0.120000 -0.009239
v -0.001951 0.120000 -0.009808
v 0.000000 0.144000 0.000000
v 0.000000 0.120000 0.000000
v 0.000000 0.000000 -0.005000
v -0.000000 -0.000975 -0.004904
v -0.000000 -0.001913 -0.004619
v -0.000000 -0.002778 -0.004157
v -0.000000 -0.003535 -0.003536
v -0.000000 -0.004157 -0.002778
v -0.000000 -0.004619 -0.001913
v -0.000000 -0.004904 -0.000975
v -0.000000 -0.005000 -0.000000
v -0.000000 -0.004904 0.000975
v -0.000000 -0.004619 0.001913
v -0.000000 -0.004157 0.002778
v -0.000000 -0.003535 0.003536
v -0.000000 -0.002778 0.004157
v -0.000000 -0.001913 0.004619
v -0.000000 -0.000975 0.004904
v 0.000000 0.000000 0.005000
v 0.000000 0.000975 0.004904
v 0.000000 0.001913 0.004619
v 0.000000 0.002778 0.004157
v 0.000000 0.003536 0.003536
v 0.000000 0.004157 0.002778
v 0.000000 0.004619 0.001913
v 0.000000 0.004904 0.000975
v 0.000000 0.005000 -0.000000
v 0.000000 0.004904 -0.000975
v 0.000000 0.004619 -0.001913
v 0.000000 0.004157 -0.002778
v 0.000000 0.003536 -0.003536
v 0.000000 0.002778 -0.004157
v 0.000000 0.001913 -0.004619
v 0.000000 0.000975 -0.004904
v 0.120000 -0.000000 -0.005000
v 0.120000 -0.000975 -0.004904
v 0.120000 -0.001913 -0.004619
v 0.120000 -0.002778 -0.004157
v 0.120000 -0.003536 -0.003536
v 0.120000 -0.004157 -0.002778
v 0.120000 -0.004619 -0.001913
v 0.120000 -0.004904 -0.000975
v 0.120000 -0.005000 0.000000
v 0.120000 -0.004904 0.000975
v 0.120000 -0.004619 0.001913
v 0.120000 -0.004157 0.002778
v 0.120000 -0.003536 0.003536
v 0.120000 -0.002778 0.004157
v 0.120000 -0.001913 0.004619
v 0.120000 -0.000975 0.004904
v 0.120000 -0.000000 0.005000
v 0.120000 0.000975 0.004904
v 0.120000 0.001913 0.004619
v 0.120000 0.002778 0.004157
v 0.120000 0.003535 0.003536
v 0.120000 0.004157 0.002778
v 0.120000 0.004619 0.001913
v 0.120000 0.004904 0.000975
v 0.120000 0.005000 0.000000
v 0.120000 0.004904 -0.000975
v 0.120000 0.004619 -0.001913
v 0.120000 0.004157 -0.002778
v 0.120000 0.003536 -0.003536
v 0.120000 0.002778 -0.004157
v 0.120000 0.001913 -0.004619
v 0.120000 0.000975 -0.004904
v 0.000000 0.000000 0.000000
v 0.120000 -0.000000 0.000000
v 0.000000 0.005000 -0.120000
v 0.000975 0.004904 -0.120000
v 0.001913 0.004619 -0.120000
v 0.002778 0.004157 -0.120000
v 0.003536 0.003536 -0.120000
v 0.004157 0.002778 -0.120000
v 0.004619 0.001913 -0.120000
v 0.004904 0.000975 -0.120000
v 0.005000 0.000000 -0.120000
v 0.004904 -0.000975 -0.120000
v 0.004619 -0.001913 -0.120000
v 0.004157 -0.002778 -0.120000
v 0.003536 -0.003535 -0.120000
v 0.002778 -0.004157 -0.120000
v 0.001913 -0.004619 -0.120000
v 0.000975 -0.004904 -0.120000
v -0.000000 -0.005000 -0.120000
v -0.000975 -0.004904 -0.120000
v -0.001913 -0.004619 -0.120000
v -0.002778 -0.004157 -0.120000
v -0.003536 -0.003535 -0.120000
v -0.004157 -0.002778 -0.120000
v -0.004619 -0.001913 -0.120000
v -0.004904 -0.000975 -0.120000
v -0.005000 0.000000 -0.120000
v -0.004904 0.000975 -0.120000
v -0.004619 0.001913 -0.120000
v -0.004157 0.002778 -0.120000
v -0.003536 0.003536 -0.120000
v -0.002778 0.004157 -0.120000
v -0.001913 0.004619 -0.120000
v -0.000975 0.004904 -0.120000
v 0.000000 0.005000 0.000000
v 0.000975 0.004904 0.000000
v 0.001913 0.004619 0.000000
v 0.002778 0.004157 0.000000
v 0.003536 0.003535 0.000000
v 0.004157 0.002778 0.000000
v 0.004619 0.001913 0.000000
v 0.004904 0.000975 0.000000
v 0.005000 -0.000000 -0.000000
v 0.004904 -0.000975 -0.000000
v 0.004619 -0.001913 -0.000000
v 0.004157 -0.002778 -0.000000
v 0.003536 -0.003536 -0.000000
v 0.002778 -0.004157 -0.000000
v 0.001913 -0.004619 -0.000000
v 0.000975 -0.004904 -0.000000
v 0.000000 -0.005000 -0.000000
v -0.000975 -0.004904 -0.000000
v -0.001913 -0.004619 -0.000000
v -0.002778 -0.004157 -0.000000
v -0.003536 -0.003536 -0.000000
v -0.004157 -0.002778 -0.000000
v -0.004619 -0.001913 -0.000000
v -0.004904 -0.000976 -0.000000
v -0.005000 -0.000000 -0.000000
v -0.004904 0.000975 0.000000
v -0.004619 0.001913 0.000000
v -0.004157 0.002778 0.000000
v -0.003536 0.003535 0.000000
v -0.002778 0.004157 0.000000
v -0.001913 0.004619 0.000000
v -0.000975 0.004904 0.000000
v 0.000000 0.000000 -0.120000
v 0.000000 -0.000000 0.000000
v 0.000000 0.000000 -0.005000
v 0.000975 0.000000 -0.004904
v 0.001913 0.000000 -0.004619
v 0.002778 0.000000 -0.004157
v 0.003536 0.000000 -0.003536
v 0.004157 0.000000 -0.002778
v 0.004619 0.000000 -0.001913
v 0.004904 0.000000 -0.000975
v 0.005000 0.000000 -0.000000
v 0.004904 0.000000 0.000975
v 0.004619 0.000000 0.001913
v 0.004157 0.000000 0.002778
v 0.003536 0.000000 0.003536
v 0.002778 0.000000 0.004157
v 0.001913 0.000000 0.004619
v 0.000975 0.000000 0.004904
v -0.000000 0.000000 0.005000
v -0.000975 0.000000 0.004904
v -0.001913 0.000000 0.004619
v -0.002778 0.000000 0.004157
v -0.003536 0.000000 0.003536
v -0.004157 0.000000 0.002778
v -0.004619 0.000000 0.001913
v -0.004904 0.000000 0.000975
v -0.005000 0.000000 -0.000000
v -0.004904 0.000000 -0.000975
v -0.004619 0.000000 -0.001913
v -0.004157 0.000000 -0.002778
v -0.003536 0.000000 -0.003536
v -0.002778 0.000000 -0.004157
v -0.001913 0.000000 -0.004619
v -0.000975 0.000000 -0.004904
v 0.000000 0.120000 -0.005000
v 0.000975 0.120000 -0.004904
v 0.001913 0.120000 -0.004619
v 0.002778 0.120000 -0.004157
v 0.003536 0.120000 -0.003536
v 0.004157 0.120000 -0.002778
v 0.004619 0.120000 -0.001913
v 0.004904 0.120000 -0.000975
v 0.005000 0.120000 0.000000
v 0.004904 0.120000 0.000975
v 0.004619 0.120000 0.001913
v 0.004157 0.120000 0.002778
v 0.003536 0.120000 0.003536
v 0.002778 0.120000 0.004157
v 0.001913 0.120000 0.004619
v 0.000975 0.120000 0.004904
v 0.000000 0.120000 0.005000
v -0.000975 0.120000 0.004904
v -0.001913 0.120000 0.004619
v -0.002778 0.120000 0.004157
v -0.003536 0.120000 0.003536
v -0.004157 0.120000 0.002778
v -0.004619 0.120000 0.001913
v -0.004904 0.120000 0.000975
v -0.005000 0.120000 0.000000
v -0.004904 0.120000 -0.000975
v -0.004619 0.120000 -0.001913
v -0.004157 0.120000 -0.002778
v -0.003536 0.120000 -0.003536
v -0.002778 0.120000 -0.004157
v -0.001913 0.120000 -0.004619
v -0.000975 0.120000 -0.004904
v 0.000000 0.000000 0.000000
v 0.000000 0.120000 0.000000
vn 0.0000 -1.0000 0.0000
vn 0.1971 -0.9796 -0.0392
vn 0.2010 -0.9796 0.0000
vn 0.3804 -0.9217 -0.0757
vn 0.3879 -0.9217 0.0000
vn 0.5598 -0.8286 0.0000
vn 0.5490 -0.8286 -0.1092
vn 0.7101 -0.7040 0.0000
vn 0.6965 -0.7040 -0.1385
vn 0.8333 -0.5528 0.0000
vn 0.8173 -0.5528 -0.1626
vn 0.9247 -0.3805 0.0000
vn 0.9070 -0.3805 -0.1804
vn 0.9810 -0.1939 0.0000
vn 0.9622 -0.1939 -0.1914
vn 1.0000 0.0000 0.0000
vn 0.9808 0.0000 -0.1951
vn 0.9810 0.1939 0.0000
vn 0.9622 0.1939 -0.1914
vn 0.9247 0.3805 0.0000
vn 0.9070 0.3805 -0.1804
vn 0.8333 0.5528 0.0000
vn 0.8173 0.5528 -0.1626
vn 0.7101 0.7040 0.0000
vn 0.6965 0.7040 -0.1385
vn 0.5598 0.8286 0.0000
vn 0.5490 0.8286 -0.1092
vn 0.3879 0.9217 0.0000
vn 0.3804 0.9217 -0.0757
vn 0.2010 0.9796 0.0000
vn 0.1971 0.9796 -0.0392
vn 0.0000 1.0000 0.0000
vn 0.1856 0.9796 -0.0769
vn 0.3583 0.9217 -0.1484
vn 0.5171 0.8286 -0.2142
vn 0.6561 0.7040 -0.2717
vn 0.7699 0.5528 -0.3189
vn 0.8544 0.3805 -0.3539
vn 0.9063 0.1939 -0.3754
vn 0.9239 0.0000 -0.3827
vn 0.9063 -0.1939 -0.3754
vn 0.8544 -0.3805 -0.3539
vn 0.7699 -0.5528 -0.3189
vn 0.6561 -0.7040 -0.2717
vn 0.5171 -0.8286 -0.2142
vn 0.3583 -0.9217 -0.1484
vn 0.1856 -0.9796 -0.0769
vn 0.1671 -0.9796 -0.1116
vn 0.3225 -0.9217 -0.2155
vn 0.4654 -0.8286 -0.3110
vn 0.5904 -0.7040 -0.3945
vn 0.6929 -0.5528 -0.4630
vn 0.7689 -0.3805 -0.5137
vn 0.8157 -0.1939 -0.5450
vn 0.8314 0.0000 -0.5556
vn 0.8157 0.1939 -0.5450
vn 0.7689 0.3805 -0.5137
vn 0.6929 0.5528 -0.4630
vn 0.5904 0.7040 -0.3945
vn 0.4654 0.8286 -0.3110
vn 0.3225 0.9217 -0.2155
vn 0.1671 0.9796 -0.1116
vn 0.1421 0.9796 -0.1421
vn 0.2743 0.9217 -0.2743
vn 0.3958 0.8286 -0.3958
vn 0.5021 0.7040 -0.5021
vn 0.5893 0.5528 -0.5893
vn 0.6539 0.3805 -0.6539
vn 0.6937 0.1939 -0.6937
vn 0.7071 0.0000 -0.7071
vn 0.6937 -0.1939 -0.6937
vn 0.6539 -0.3805 -0.6539
vn 0.5893 -0.5528 -0.5893
vn 0.5021 -0.7040 -0.5021
vn 0.3958 -0.8286 -0.3958
vn 0.2743 -0.9217 -0.2743
vn 0.1421 -0.9796 -0.1421
vn 0.1116 -0.9796 -0.1671
vn 0.2155 -0.9217 -0.3225
vn 0.3110 -0.8286 -0.4654
vn 0.3945 -0.7040 -0.5904
vn 0.4630 -0.5528 -0.6929
vn 0.5137 -0.3805 -0.7689
vn 0.5450 -0.1939 -0.8157
vn 0.5556 0.0000 -0.8314
vn 0.5450 0.1939 -0.8157
vn 0.5137 0.3805 -0.7689
vn 0.4630 0.5528 -0.6929
vn 0.3945 0.7040 -0.5904
vn 0.3110 0.8286 -0.4654
vn 0.2155 0.9217 -0.3225
vn 0.1116 0.9796 -0.1671
vn 0.0769 0.9796 -0.1856
vn 0.1484 0.9217 -0.3583
vn 0.2142 0.8286 -0.5171
vn 0.2717 0.7040 -0.6561
vn 0.3189 0.5528 -0.7699
vn 0.3539 0.3805 -0.8544
vn 0.3754 0.1939 -0.9063
vn 0.3827 0.0000 -0.9239
vn 0.3754 -0.1939 -0.9063
vn 0.3539 -0.3805 -0.8544
vn 0.3189 -0.5528 -0.7699
vn 0.2717 -0.7040 -0.6561
vn 0.2142 -0.8286 -0.5171
vn 0.1484 -0.9217 -0.3583
vn 0.0769 -0.9796 -0.1856
vn 0.0392 -0.9796 -0.1971
vn 0.0757 -0.9217 -0.3804
vn 0.1092 -0.8286 -0.5490
vn 0.1385 -0.7040 -0.6965
vn 0.1626 -0.5528 -0.8173
vn 0.1804 -0.3805 -0.9070
vn 0.1914 -0.1939 -0.9622
vn 0.1951 0.0000 -0.9808
vn 0.1914 0.1939 -0.9622
vn 0.1804 0.3805 -0.9070
vn 0.1626 0.5528 -0.8173
vn 0.1385 0.7040 -0.6965
vn 0.1092 0.8286 -0.5490
vn 0.0757 0.9217 -0.3804
vn 0.0392 0.9796 -0.1971
vn 0.0000 0.9796 -0.2010
vn 0.0000 0.9217 -0.3879
vn 0.0000 0.8286 -0.5598
vn 0.0000 0.7040 -0.7101
vn 0.0000 0.5528 -0.8333
vn 0.0000 0.3805 -0.9247
vn 0.0000 0.1939 -0.9810
vn 0.0000 0.0000 -1.0000
vn 0.0000 -0.1939 -0.9810
vn 0.0000 -0.3805 -0.9247
vn 0.0000 -0.5528 -0.8333
vn 0.0000 -0.7040 -0.7101
vn 0.0000 -0.8286 -0.5598
vn 0.0000 -0.9217 -0.3879
vn 0.0000 -0.9796 -0.2010
vn -0.0392 -0.9796 -0.1971
vn -0.0757 -0.9217 -0.3804
vn -0.1092 -0.8286 -0.5490
vn -0.1385 -0.7040 -0.6965
vn -0.1626 -0.5528 -0.8173
vn -0.1804 -0.3805 -0.9070
vn -0.1914 -0.1939 -0.9622
vn -0.1951 0.0000 -0.9808
vn -0.1914 0.1939 -0.9622
vn -0.1804 0.3805 -0.9070
vn -0.1626 0.5528 -0.8173
vn -0.1385 0.7040 -0.6965
vn -0.1092 0.8286 -0.5490
vn -0.0757 0.9217 -0.3804
vn -0.0392 0.9796 -0.1971
vn -0.0769 0.9796 -0.1856
vn -0.1484 0.9217 -0.3583
vn -0.2142 0.8286 -0.5171
vn -0.2717 0.7040 -0.6561
vn -0.3189 0.5528 -0.7699
vn -0.3539 0.3805 -0.8544
vn -0.3754 0.1939 -0.9063
vn -0.3827 0.0000 -0.9239
vn -0.3754 -0.1939 -0.9063
vn -0.3539 -0.3805 -0.8544
vn -0.3189 -0.5528 -0.7699
vn -0.2717 -0.7040 -0.6561
vn -0.2142 -0.8286 -0.5171
vn -0.1484 -0.9217 -0.3583
vn -0.0769 -0.9796 -0.1856
vn -0.1116 -0.9796 -0.1671
vn -0.2155 -0.9217 -0.3225
vn -0.3110 -0.8286 -0.4654
vn -0.3945 -0.7040 -0.5904
vn -0.4630 -0.5528 -0.6929
vn -0.5137 -0.3805 -0.7689
vn -0.5450 -0.1939 -0.8157
vn -0.5556 0.0000 -0.8314
vn -0.5450 0.1939 -0.8157
vn -0.5137 0.3805 -0.7689
vn -0.4630 0.5528 -0.6929
vn -0.3945 0.7040 -0.5904
vn -0.3110 0.8286 -0.4654
vn -0.2155 0.9217 -0.3225
vn -0.1116 0.9796 -0.1671
vn -0.1421 0.9796 -0.1421
vn -0.2743 0.9217 -0.2743
vn -0.3958 0.8286 -0.3958
vn -0.5021 0.7040 -0.5021
vn -0.5893 0.5528 -0.5893
vn -0.6539 0.3805 -0.6539
vn -0.6937 0.1939 -0.6937
vn -0.7071 0.0000 -0.7071
vn -0.6937 -0.1939 -0.6937
vn -0.6539 -0.3805 -0.6539
vn -0.5893 -0.5528 -0.5893
vn -0.5021 -0.7040 -0.5021
vn -0.3958 -0.8286 -0.3958
vn -0.2743 -0.9217 -0.2743
vn -0.1421 -0.9796 -0.1421
vn -0.1671 -0.9796 -0.1116
vn -0.3225 -0.9217 -0.2155
vn -0.4654 -0.8286 -0.3110
vn -0.5904 -0.7040 -0.3945
vn -0.6929 -0.5528 -0.4630
vn -0.7689 -0.3805 -0.5137
vn -0.8157 -0.1939 -0.5450
vn -0.8314 0.0000 -0.5556
vn -0.8157 0.1939 -0.5450
vn -0.7689 0.3805 -0.5137
vn -0.6929 0.5528 -0.4630
vn -0.5904 0.7040 -0.3945
vn -0.4654 0.8286 -0.3110
vn -0.3225 0.9217 -0.2155
vn -0.1671 0.9796 -0.1116
vn -0.1856 0.9796 -0.0769
vn -0.3583 0.9217 -0.1484
vn -0.5171 0.8286 -0.2142
vn -0.6561 0.7040 -0.2717
vn -0.7699 0.5528 -0.3189
vn -0.8544 0.3805 -0.3539
vn -0.9063 0.1939 -0.3754
vn -0.9239 0.0000 -0.3827
vn -0.9063 -0.1939 -0.3754
vn -0.8544 -0.3805 -0.3539
vn -0.7699 -0.5528 -0.3189
vn -0.6561 -0.7040 -0.2717
vn -0.5171 -0.8286 -0.2142
vn -0.3583 -0.9217 -0.1484
vn -0.1856 -0.9796 -0.0769
vn -0.1971 -0.9796 -0.0392
vn -0.3804 -0.9217 -0.0757
vn -0.5490 -0.8286 -0.1092
vn -0.6965 -0.7040 -0.1385
vn -0.8173 -0.5528 -0.1626
vn -0.9070 -0.3805 -0.1804
vn -0.9622 -0.1939 -0.1914
vn -0.9808 0.0000 -0.1951
vn -0.9622 0.1939 -0.1914
vn -0.9070 0.3805 -0.1804
vn -0.8173 0.5528 -0.1626
vn -0.6965 0.7040 -0.1385
vn -0.5490 0.8286 -0.1092
vn -0.3804 0.9217 -0.0757
vn -0.1971 0.9796 -0.0392
vn -0.2010 0.9796 0.0000
vn -0.3879 0.9217 0.0000
vn -0.5598 0.8286 0.0000
vn -0.7101 0.7040 0.0000
vn -0.8333 0.5528 0.0000
vn -0.9247 0.3805 0.0000
vn -0.9810 0.1939 0.0000
vn -1.0000 0.0000 0.0000
vn -0.9810 -0.1939 0.0000
vn -0.9247 -0.3805 0.0000
vn -0.8333 -0.5528 0.0000
vn -0.7101 -0.7040 0.0000
vn -0.5598 -0.8286 0.0000
vn -0.3879 -0.9217 0.0000
vn -0.2010 -0.9796 0.0000
vn -0.1971 -0.9796 0.0392
vn -0.3804 -0.9217 0.0757
vn -0.5490 -0.8286 0.1092
vn -0.6965 -0.7040 0.1385
vn -0.8173 -0.5528 0.1626
vn -0.9070 -0.3805 0.1804
vn -0.9622 -0.1939 0.1914
vn -0.9808 0.0000 0.1951
vn -0.9622 0.1939 0.1914
vn -0.9070 0.3805 0.1804
vn -0.8173 0.5528 0.1626
vn -0.6965 0.7040 0.1385
vn -0.5490 0.8286 0.1092
vn -0.3804 0.9217 0.0757
vn -0.1971 0.9796 0.0392
vn -0.1856 0.9796 0.0769
vn -0.3583 0.9217 0.1484
vn -0.5171 0.8286 0.2142
vn -0.6561 0.7040 0.2717
vn -0.7699 0.5528 0.3189
vn -0.8544 0.3805 0.3539
vn -0.9063 0.1939 0.3754
vn -0.9239 0.0000 0.3827
vn -0.9063 -0.1939 0.3754
vn -0.8544 -0.3805 0.3539
vn -0.7699 -0.5528 0.3189
vn -0.6561 -0.7040 0.2717
vn -0.5171 -0.8286 0.2142
vn -0.3583 -0.9217 0.1484
vn -0.1856 -0.9796 0.0769
vn -0.1671 -0.9796 0.1116
vn -0.3225 -0.9217 0.2155
vn -0.4654 -0.8286 0.3110
vn -0.5904 -0.7040 0.3945
vn -0.6929 -0.5528 0.4630
vn -0.7689 -0.3805 0.5137
vn -0.8157 -0.1939 0.5450
vn -0.8314 0.0000 0.5556
vn -0.8157 0.1939 0.5450
vn -0.7689 0.3805 0.5137
vn -0.6929 0.5528 0.4630
vn -0.5904 0.7040 0.3945
vn -0.4654 0.8286 0.3110
vn -0.3225 0.9217 0.2155
vn -0.1671 0.9796 0.1116
vn -0.1421 0.9796 0.1421
vn -0.2743 0.9217 0.2743
vn -0.3958 0.8286 0.3958
vn -0.5021 0.7040 0.5021
vn -0.5893 0.5528 0.5893
vn -0.6539 0.3805 0.6539
vn -0.6937 0.1939 0.6937
vn -0.7071 0.0000 0.7071
vn -0.6937 -0.1939 0.6937
vn -0.6539 -0.3805 0.6539
vn -0.5893 -0.5528 0.5893
vn -0.5021 -0.7040 0.5021
vn -0.3958 -0.8286 0.3958
vn -0.2743 -0.9217 0.2743
vn -0.1421 -0.9796 0.1421
vn -0.1116 -0.9796 0.1671
vn -0.2155 -0.9217 0.3225
vn -0.3110 -0.8286 0.4654
vn -0.3945 -0.7040 0.5904
vn -0.4630 -0.5528 0.6929
vn -0.5137 -0.3805 0.7689
vn -0.5450 -0.1939 0.8157
vn -0.5556 0.0000 0.8314
vn -0.5450 0.1939 0.8157
vn -0.5137 0.3805 0.7689
vn -0.4630 0.5528 0.6929
vn -0.3945 0.7040 0.5904
vn -0.3110 0.8286 0.4654
vn -0.2155 0.9217 0.3225
vn -0.1116 0.9796 0.1671
vn -0.0769 0.9796 0.1856
vn -0.1484 0.9217 0.3583
vn -0.2142 0.8286 0.5171
vn -0.2717 0.7040 0.6561
vn -0.3189 0.5528 0.7699
vn -0.3539 0.3805 0.8544
vn -0.3754 0.1939 0.9063
vn -0.3827 0.0000 0.9239
vn -0.3754 -0.1939 0.9063
vn -0.3539 -0.3805 0.8544
vn -0.3189 -0.5528 0.7699
vn -0.2717 -0.7040 0.6561
vn -0.2142 -0.8286 0.5171
vn -0.1484 -0.9217 0.3583
vn -0.0769 -0.9796 0.1856
vn -0.0392 -0.9796 0.1971
vn -0.0757 -0.9217 0.3804
vn -0.1092 -0.8286 0.5490
vn -0.1385 -0.7040 0.6965
vn -0.1626 -0.5528 0.8173
vn -0.1804 -0.3805 0.9070
vn -0.1914 -0.1939 0.9622
vn -0.1951 0.0000 0.9808
vn -0.1914 0.1939 0.9622
vn -0.1804 0.3805 0.9070
vn -0.1626 0.5528 0.8173
vn -0.1385 0.7040 0.6965
vn -0.1092 0.8286 0.5490
vn -0.0757 0.9217 0.3804
vn -0.0392 0.9796 0.1971
vn 0.0000 0.9796 0.2010
vn 0.0000 0.9217 0.3879
vn 0.0000 0.8286 0.5598
vn 0.0000 0.7040 0.7101
vn 0.0000 0.5528 0.8333
vn 0.0000 0.3805 0.9247
vn 0.0000 0.1939 0.9810
vn 0.0000 0.0000 1.0000
vn 0.0000 -0.1939 0.9810
vn 0.0000 -0.3805 0.9247
vn 0.0000 -0.5528 0.8333
vn 0.0000 -0.7040 0.7101
vn 0.0000 -0.8286 0.5598
vn 0.0000 -0.9217 0.3879
vn 0.0000 -0.9796 0.2010
vn 0.0392 -0.9796 0.1971
vn 0.0757 -0.9217 0.3804
vn 0.1092 -0.8286 0.5490
vn 0.1385 -0.7040 0.6965
vn 0.1626 -0.5528 0.8173
vn 0.1804 -0.3805 0.9070
vn 0.1914 -0.1939 0.9622
vn 0.1951 0.0000 0.9808
vn 0.1914 0.1939 0.9622
vn 0.1804 0.3805 0.9070
vn 0.1626 0.5528 0.8173
vn 0.1385 0.7040 0.6965
vn 0.1092 0.8286 0.5490
vn 0.0757 0.9217 0.3804
vn 0.0392 0.9796 0.1971
vn 0.0769 0.9796 0.1856
vn 0.1484 0.9217 0.3583
vn 0.2142 0.8286 0.5171
vn 0.2717 0.7040 0.6561
vn 0.3189 0.5528 0.7699
vn 0.3539 0.3805 0.8544
vn 0.3754 0.1939 0.9063
vn 0.3827 0.0000 0.9239
vn 0.3754 -0.1939 0.9063
vn 0.3539 -0.3805 0.8544
vn 0.3189 -0.5528 0.7699
vn 0.2717 -0.7040 0.6561
vn 0.2142 -0.8286 0.5171
vn 0.1484 -0.9217 0.3583
vn 0.0769 -0.9796 0.1856
vn 0.1116 -0.9796 0.1671
vn 0.2155 -0.9217 0.3225
vn 0.3110 -0.8286 0.4654
vn 0.3945 -0.7040 0.5904
vn 0.4630 -0.5528 0.6929
vn 0.5137 -0.3805 0.7689
vn 0.5450 -0.1939 0.8157
vn 0.5556 0.0000 0.8314
vn 0.5450 0.1939 0.8157
vn 0.5137 0.3805 0.7689
vn 0.4630 0.5528 0.6929
vn 0.3945 0.7040 0.5904
vn 0.3110 0.8286 0.4654
vn 0.2155 0.9217 0.3225
vn 0.1116 0.9796 0.1671
vn 0.1421 0.9796 0.1421
vn 0.2743 0.9217 0.2743
vn 0.3958 0.8286 0.3958
vn 0.5021 0.7040 0.5021
vn 0.5893 0.5528 0.5893
vn 0.6539 0.3805 0.6539
vn 0.6937 0.1939 0.6937
vn 0.7071 0.0000 0.7071
vn 0.6937 -0.1939 0.6937
vn 0.6539 -0.3805 0.6539
vn 0.5893 -0.5528 0.5893
vn 0.5021 -0.7040 0.5021
vn 0.3958 -0.8286 0.3958
vn 0.2743 -0.9217 0.2743
vn 0.1421 -0.9796 0.1421
vn 0.1671 -0.9796 0.1116
vn 0.3225 -0.9217 0.2155
vn 0.4654 -0.8286 0.3110
vn 0.5904 -0.7040 0.3945
vn 0.6929 -0.5528 0.4630
vn 0.7689 -0.3805 0.5137
vn 0.8157 -0.1939 0.5450
vn 0.8314 0.0000 0.5556
vn 0.8157 0.1939 0.5450
vn 0.7689 0.3805 0.5137
vn 0.6929 0.5528 0.4630
vn 0.5904 0.7040 0.3945
vn 0.4654 0.8286 0.3110
vn 0.3225 0.9217 0.2155
vn 0.1671 0.9796 0.1116
vn 0.1856 0.9796 0.0769
vn 0.3583 0.9217 0.1484
vn 0.5171 0.8286 0.2142
vn 0.6561 0.7040 0.2717
vn 0.7699 0.5528 0.3189
vn 0.8544 0.3805 0.3539
vn 0.9063 0.1939 0.3754
vn 0.9239 0.0000 0.3827
vn 0.9063 -0.1939 0.3754
vn 0.8544 -0.3805 0.3539
vn 0.7699 -0.5528 0.3189
vn 0.6561 -0.7040 0.2717
vn 0.5171 -0.8286 0.2142
vn 0.3583 -0.9217 0.1484
vn 0.1856 -0.9796 0.0769
vn 0.1971 -0.9796 0.0392
vn 0.3804 -0.9217 0.0757
vn 0.5490 -0.8286 0.1092
vn 0.6965 -0.7040 0.1385
vn 0.8173 -0.5528 0.1626
vn 0.9070 -0.3805 0.1804
vn 0.9622 -0.1939 0.1914
vn 0.9808 0.0000 0.1951
vn 0.9622 0.1939 0.1914
vn 0.9070 0.3805 0.1804
vn 0.8173 0.5528 0.1626
vn 0.6965 0.7040 0.1385
vn 0.5490 0.8286 0.1092
vn 0.3804 0.9217 0.0757
vn 0.1971 0.9796 0.0392
vn -0.5319 -0.1652 -0.8305
vn -0.5319 0.0000 -0.8468
vn -0.5319 -0.3240 -0.7823
vn -0.5319 -0.4704 -0.7040
vn -0.5319 -0.5987 -0.5987
vn -0.5319 -0.7040 -0.4704
vn -0.5319 -0.7823 -0.3240
vn -0.5319 -0.8305 -0.1652
vn -0.5319 -0.8468 0.0000
vn -0.5319 -0.8305 0.1652
vn -0.5319 -0.7823 0.3240
vn -0.5319 -0.7040 0.4704
vn -0.5319 -0.5987 0.5987
vn -0.5319 -0.4704 0.7040
vn -0.5319 -0.3240 0.7823
vn -0.5319 -0.1652 0.8305
vn -0.5319 0.0000 0.8468
vn -0.5319 0.1652 0.8305
vn -0.5319 0.3240 0.7823
vn -0.5319 0.4704 0.7040
vn -0.5319 0.5987 0.5987
vn -0.5319 0.7040 0.4704
vn -0.5319 0.7823 0.3240
vn -0.5319 0.8305 0.1652
vn -0.5319 0.8468 0.0000
vn -0.5319 0.8305 -0.1652
vn -0.5319 0.7823 -0.3240
vn -0.5319 0.7040 -0.4704
vn -0.5319 0.5987 -0.5987
vn -0.5319 0.4704 -0.7040
vn -0.5319 0.3240 -0.7823
vn -0.5319 0.1652 -0.8305
vn 0.1652 -0.8305 0.5319
vn 0.0000 -0.8467 0.5319
vn 0.3240 -0.7823 0.5319
vn 0.4704 -0.7040 0.5319
vn 0.5987 -0.5987 0.5319
vn 0.7040 -0.4704 0.5319
vn 0.7823 -0.3240 0.5319
vn 0.8305 -0.1652 0.5319
vn 0.8468 0.0000 0.5319
vn 0.8305 0.1652 0.5319
vn 0.7823 0.3240 0.5319
vn 0.7040 0.4704 0.5319
vn 0.5987 0.5987 0.5319
vn 0.4704 0.7040 0.5319
vn 0.3240 0.7823 0.5319
vn 0.1652 0.8305 0.5319
vn 0.0000 0.8468 0.5319
vn -0.1652 0.8305 0.5319
vn -0.3240 0.7823 0.5319
vn -0.4704 0.7040 0.5319
vn -0.5987 0.5987 0.5319
vn -0.7040 0.4704 0.5319
vn -0.7823 0.3240 0.5319
vn -0.8305 0.1652 0.5319
vn -0.8468 0.0000 0.5319
vn -0.8305 -0.1652 0.5319
vn -0.7823 -0.3240 0.5319
vn -0.7040 -0.4704 0.5319
vn -0.5987 -0.5987 0.5319
vn -0.4704 -0.7040 0.5319
vn -0.3240 -0.7823 0.5319
vn -0.1652 -0.8305 0.5319
vn 0.1652 -0.5319 -0.8305
vn 0.0000 -0.5319 -0.8468
vn 0.3240 -0.5319 -0.7823
vn 0.4704 -0.5319 -0.7040
vn 0.5987 -0.5319 -0.5987
vn 0.7040 -0.5319 -0.4704
vn 0.7823 -0.5319 -0.3240
vn 0.8305 -0.5319 -0.1652
vn 0.8468 -0.5319 0.0000
vn 0.8305 -0.5319 0.1652
vn 0.7823 -0.5319 0.3240
vn 0.7040 -0.5319 0.4704
vn 0.5987 -0.5319 0.5987
vn 0.4704 -0.5319 0.7040
vn 0.3240 -0.5319 0.7823
vn 0.1652 -0.5319 0.8305
vn 0.0000 -0.5319 0.8468
vn -0.1652 -0.5319 0.8305
vn -0.3240 -0.5319 0.7823
vn -0.4704 -0.5319 0.7040
vn -0.5987 -0.5319 0.5987
vn -0.7040 -0.5319 0.4704
vn -0.7823 -0.5319 0.3240
vn -0.8305 -0.5319 0.1652
vn -0.8468 -0.5319 0.0000
vn -0.8305 -0.5319 -0.1652
vn -0.7823 -0.5319 -0.3240
vn -0.7040 -0.5319 -0.4704
vn -0.5987 -0.5319 -0.5987
vn -0.4704 -0.5319 -0.7040
vn -0.3240 -0.5319 -0.7823
vn -0.1652 -0.5319 -0.8305
vn -0.6857 0.0000 -0.7279
vn -0.6857 -0.1420 -0.7139
vn 0.6857 -0.1420 -0.7139
vn 0.6857 0.0000 -0.7279
vn -0.6857 -0.2785 -0.6725
vn 0.6857 -0.2785 -0.6725
vn -0.6857 -0.4044 -0.6052
vn 0.6857 -0.4044 -0.6052
vn -0.6857 -0.5147 -0.5147
vn 0.6857 -0.5147 -0.5147
vn -0.6857 -0.6052 -0.4044
vn 0.6857 -0.6052 -0.4044
vn -0.6857 -0.6725 -0.2785
vn 0.6857 -0.6725 -0.2785
vn -0.6857 -0.7139 -0.1420
vn 0.6857 -0.7139 -0.1420
vn -0.6857 -0.7279 0.0000
vn 0.6857 -0.7279 0.0000
vn -0.6857 -0.7139 0.1420
vn 0.6857 -0.7139 0.1420
vn -0.6857 -0.6725 0.2785
vn 0.6857 -0.6725 0.2785
vn -0.6857 -0.6052 0.4044
vn 0.6857 -0.6052 0.4044
vn -0.6857 -0.5147 0.5147
vn 0.6857 -0.5147 0.5147
vn -0.6857 -0.4044 0.6052
vn 0.6857 -0.4044 0.6052
vn -0.6857 -0.2785 0.6725
vn 0.6857 -0.2785 0.6725
vn -0.6857 -0.1420 0.7139
vn 0.6857 -0.1420 0.7139
vn -0.6857 0.0000 0.7279
vn 0.6857 0.0000 0.7279
vn -0.6857 0.1420 0.7139
vn 0.6857 0.1420 0.7139
vn -0.6857 0.2785 0.6725
vn 0.6857 0.2785 0.6725
vn -0.6857 0.4044 0.6052
vn 0.6857 0.4044 0.6052
vn -0.6857 0.5147 0.5147
vn 0.6857 0.5147 0.5147
vn -0.6857 0.6052 0.4044
vn 0.6857 0.6052 0.4044
vn -0.6857 0.6725 0.2785
vn 0.6857 0.6725 0.2785
vn -0.6857 0.7139 0.1420
vn 0.6857 0.7139 0.1420
vn -0.6857 0.7279 0.0000
vn 0.6857 0.7279 0.0000
vn -0.6857 0.7139 -0.1420
vn 0.6857 0.7139 -0.1420
vn -0.6857 0.6725 -0.2785
vn 0.6857 0.6725 -0.2785
vn -0.6857 0.6052 -0.4044
vn 0.6857 0.6052 -0.4044
vn -0.6857 0.5147 -0.5147
vn 0.6857 0.5147 -0.5147
vn -0.6857 0.4044 -0.6052
vn 0.6857 0.4044 -0.6052
vn -0.6857 0.2785 -0.6725
vn 0.6857 0.2785 -0.6725
vn -0.6857 0.1420 -0.7139
vn 0.6857 0.1420 -0.7139
vn 0.0000 0.7279 -0.6857
vn 0.1420 0.7139 -0.6857
vn 0.1420 0.7139 0.6857
vn 0.0000 0.7279 0.6857
vn 0.2785 0.6725 -0.6857
vn 0.2785 0.6725 0.6857
vn 0.4044 0.6052 -0.6857
vn 0.4044 0.6052 0.6857
vn 0.5147 0.5147 -0.6857
vn 0.5147 0.5147 0.6857
vn 0.6052 0.4044 -0.6857
vn 0.6052 0.4044 0.6857
vn 0.6725 0.2785 -0.6857
vn 0.6725 0.2785 0.6857
vn 0.7139 0.1420 -0.6857
vn 0.7139 0.1420 0.6857
vn 0.7279 0.0000 -0.6857
vn 0.7279 0.0000 0.6857
vn 0.7139 -0.1420 -0.6857
vn 0.7139 -0.1420 0.6857
vn 0.6725 -0.2785 -0.6857
vn 0.6725 -0.2785 0.6857
vn 0.6052 -0.4044 -0.6857
vn 0.6052 -0.4044 0.6857
vn 0.5147 -0.5147 -0.6857
vn 0.5147 -0.5147 0.6857
vn 0.4044 -0.6052 -0.6857
vn 0.4044 -0.6052 0.6857
vn 0.2785 -0.6725 -0.6857
vn 0.2785 -0.6725 0.6857
vn 0.1420 -0.7139 -0.6857
vn 0.1420 -0.7139 0.6857
vn 0.0000 -0.7279 -0.6857
vn 0.0000 -0.7279 0.6857
vn -0.1420 -0.7139 -0.6857
vn -0.1420 -0.7139 0.6857
vn -0.2785 -0.6725 -0.6857
vn -0.2785 -0.6725 0.6857
vn -0.4044 -0.6052 -0.6857
vn -0.4044 -0.6052 0.6857
vn -0.5147 -0.5147 -0.6857
vn -0.5147 -0.5147 0.6857
vn -0.6052 -0.4044 -0.6857
vn -0.6052 -0.4044 0.6857
vn -0.6725 -0.2785 -0.6857
vn -0.6725 -0.2785 0.6857
vn -0.7139 -0.1420 -0.6857
vn -0.7139 -0.1420 0.6857
vn -0.7279 0.0000 -0.6857
vn -0.7279 0.0000 0.6857
vn -0.7139 0.1420 -0.6857
vn -0.7139 0.1420 0.6857
vn -0.6725 0.2785 -0.6857
vn -0.6725 0.2785 0.6857
vn -0.6052 0.4044 -0.6857
vn -0.6052 0.4044 0.6857
vn -0.5147 0.5147 -0.6857
vn -0.5147 0.5147 0.6857
vn -0.4044 0.6052 -0.6857
vn -0.4044 0.6052 0.6857
vn -0.2785 0.6725 -0.6857
vn -0.2785 0.6725 0.6857
vn -0.1420 0.7139 -0.6857
vn -0.1420 0.7139 0.6857
vn 0.0000 -0.6857 -0.7279
vn 0.1420 -0.6857 -0.7139
vn 0.1420 0.6857 -0.7139
vn 0.0000 0.6857 -0.7279
vn 0.2785 -0.6857 -0.6725
vn 0.2785 0.6857 -0.6725
vn 0.4044 -0.6857 -0.6052
vn 0.4044 0.6857 -0.6052
vn 0.5147 -0.6857 -0.5147
vn 0.5147 0.6857 -0.5147
vn 0.6052 -0.6857 -0.4044
vn 0.6052 0.6857 -0.4044
vn 0.6725 -0.6857 -0.2785
vn 0.6725 0.6857 -0.2785
vn 0.7139 -0.6857 -0.1420
vn 0.7139 0.6857 -0.1420
vn 0.7279 -0.6857 0.0000
vn 0.7279 0.6857 0.0000
vn 0.7139 -0.6857 0.1420
vn 0.7139 0.6857 0.1420
vn 0.6725 -0.6857 0.2785
vn 0.6725 0.6857 0.2785
vn 0.6052 -0.6857 0.4044
vn 0.6052 0.6857 0.4044
vn 0.5147 -0.6857 0.5147
vn 0.5147 0.6857 0.5147
vn 0.4044 -0.6857 0.6052
vn 0.4044 0.6857 0.6052
vn 0.2785 -0.6857 0.6725
vn 0.2785 0.6857 0.6725
vn 0.1420 -0.6857 0.7139
vn 0.1420 0.6857 0.7139
vn 0.0000 -0.6857 0.7279
vn 0.0000 0.6857 0.7279
vn -0.1420 -0.6857 0.7139
vn -0.1420 0.6857 0.7139
vn -0.2785 -0.6857 0.6725
vn -0.2785 0.6857 0.6725
vn -0.4044 -0.6857 0.6052
vn -0.4044 0.6857 0.6052
vn -0.5147 -0.6857 0.5147
vn -0.5147 0.6857 0.5147
vn -0.6052 -0.6857 0.4044
vn -0.6052 0.6857 0.4044
vn -0.6725 -0.6857 0.2785
vn -0.6725 0.6857 0.2785
vn -0.7139 -0.6857 0.1420
vn -0.7139 0.6857 0.1420
vn -0.7279 -0.6857 0.0000
vn -0.7279 0.6857 0.0000
vn -0.7139 -0.6857 -0.1420
vn -0.7139 0.6857 -0.1420
vn -0.6725 -0.6857 -0.2785
vn -0.6725 0.6857 -0.2785
vn -0.6052 -0.6857 -0.4044
vn -0.6052 0.6857 -0.4044
vn -0.5147 -0.6857 -0.5147
vn -0.5147 0.6857 -0.5147
vn -0.4044 -0.6857 -0.6052
vn -0.4044 0.6857 -0.6052
vn -0.2785 -0.6857 -0.6725
vn -0.2785 0.6857 -0.6725
vn -0.1420 -0.6857 -0.7139
vn -0.1420 0.6857 -0.7139
usemtl Material.001
s 1
f 91//1 1//2 482//3
f 1//2 2//4 481//5 482//3
f 480//6 481//5 2//4 3//7
f 479//8 480//6 3//7 4//9
f 478//10 479//8 4//9 5//11
f 477//12 478//10 5//11 6//13
f 476//14 477//12 6//13 7//15
f 475//16 476//14 7//15 8//17
f 474//18 475//16 8//17 9//19
f 473//20 474//18 9//19 10//21
f 472//22 473//20 10//21 11//23
f 471//24 472//22 11//23 12//25
f 470//26 471//24 12//25 13//27
f 469//28 470//26 13//27 14//29
f 468//30 469//28 14//29 15//31
f 467//32 468//30 15//31
f 467//32 15//31 16//33
f 15//31 14//29 17//34 16//33
f 14//29 13//27 18//35 17//34
f 13//27 12//25 19//36 18//35
f 12//25 11//23 20//37 19//36
f 11//23 10//21 21//38 20//37
f 10//21 9//19 22//39 21//38
f 9//19 8//17 23//40 22//39
f 8//17 7//15 24//41 23//40
f 7//15 6//13 25//42 24//41
f 6//13 5//11 26//43 25//42
f 5//11 4//9 27//44 26//43
f 4//9 3//7 28//45 27//44
f 3//7 2//4 29//46 28//45
f 2//4 1//2 30//47 29//46
f 1//2 91//1 30//47
f 30//47 91//1 31//48
f 29//46 30//47 31//48 32//49
f 28//45 29//46 32//49 33//50
f 27//44 28//45 33//50 34//51
f 26//43 27//44 34//51 35//52
f 25//42 26//43 35//52 36//53
f 24//41 25//42 36//53 37//54
f 23//40 24//41 37//54 38//55
f 22//39 23//40 38//55 39//56
f 21//38 22//39 39//56 40//57
f 20//37 21//38 40//57 41//58
f 19//36 20//37 41//58 42//59
f 18//35 19//36 42//59 43//60
f 17//34 18//35 43//60 44//61
f 16//33 17//34 44//61 45//62
f 467//32 16//33 45//62
f 467//32 45//62 46//63
f 45//62 44//61 47//64 46//63
f 44//61 43//60 48//65 47//64
f 43//60 42//59 49//66 48//65
f 42//59 41//58 50//67 49//66
f 41//58 40//57 51//68 50//67
f 40//57 39//56 52//69 51//68
f 39//56 38//55 53//70 52//69
f 38//55 37//54 54//71 53//70
f 37//54 36//53 55//72 54//71
f 36//53 35//52 56//73 55//72
f 35//52 34//51 57//74 56//73
f 34//51 33//50 58//75 57//74
f 33//50 32//49 59//76 58//75
f 32//49 31//48 60//77 59//76
f 31//48 91//1 60//77
f 60//77 91//1 61//78
f 59//76 60//77 61//78 62//79
f 58//75 59//76 62//79 63//80
f 57//74 58//75 63//80 64//81
f 56//73 57//74 64//81 65//82
f 55//72 56//73 65//82 66//83
f 54//71 55//72 66//83 67//84
f 53//70 54//71 67//84 68//85
f 52//69 53//70 68//85 69//86
f 51//68 52//69 69//86 70//87
f 50//67 51//68 70//87 71//88
f 49//66 50//67 71//88 72//89
f 48//65 49//66 72//89 73//90
f 47//64 48//65 73//90 74//91
f 46//63 47//64 74//91 75//92
f 467//32 46//63 75//92
f 467//32 75//92 76//93
f 75//92 74//91 77//94 76//93
f 74//91 73//90 78//95 77//94
f 73//90 72//89 79//96 78//95
f 72//89 71//88 80//97 79//96
f 71//88 70//87 81//98 80//97
f 70//87 69//86 82//99 81//98
f 69//86 68//85 83//100 82//99
f 68//85 67//84 84//101 83//100
f 67//84 66//83 85//102 84//101
f 66//83 65//82 86//103 85//102
f 65//82 64//81 87//104 86//103
f 64//81 63//80 88//105 87//104
f 63//80 62//79 89//106 88//105
f 62//79 61//78 90//107 89//106
f 61//78 91//1 90//107
f 90//107 91//1 92//108
f 89//106 90//107 92//108 93//109
f 88//105 89//106 93//109 94//110
f 87//104 88//105 94//110 95//111
f 86//103 87//104 95//111 96//112
f 85//102 86//103 96//112 97//113
f 84//101 85//102 97//113 98//114
f 83//100 84//101 98//114 99//115
f 82//99 83//100 99//115 100//116
f 81//98 82//99 100//116 101//117
f 80//97 81//98 101//117 102//118
f 79//96 80//97 102//118 103//119
f 78//95 79//96 103//119 104//120
f 77//94 78//95 104//120 105//121
f 76//93 77//94 105//121 106//122
f 467//32 76//93 106//122
f 467//32 106//122 107//123
f 106//122 105//121 108//124 107//123
f 105//121 104//120 109//125 108//124
f 104//120 103//119 110//126 109//125
f 103//119 102//118 111//127 110//126
f 102//118 101//117 112//128 111//127
f 101//117 100//116 113//129 112//128
f 100//116 99//115 114//130 113//129
f 99//115 98//114 115//131 114//130
f 98//114 97//113 116//132 115//131
f 97//113 96//112 117//133 116//132
f 96//112 95//111 118//134 117//133
f 95//111 94//110 119//135 118//134
f 94//110 93//109 120//136 119//135
f 93//109 92//108 121//137 120//136
f 92//108 91//1 121//137
f 121//137 91//1 122//138
f 120//136 121//137 122//138 123//139
f 119//135 120//136 123//139 124//140
f 118//134 119//135 124//140 125//141
f 117//133 118//134 125//141 126//142
f 116//132 117//133 126//142 127//143
f 115//131 116//132 127//143 128//144
f 114//130 115//131 128//144 129//145
f 113//129 114//130 129//145 130//146
f 112//128 113//129 130//146 131//147
f 111//127 112//128 131//147 132//148
f 110//126 111//127 132//148 133//149
f 109//125 110//126 133//149 134//150
f 108//124 109//125 134//150 135//151
f 107//123 108//124 135//151 136//152
f 467//32 107//123 136//152
f 467//32 136//152 137//153
f 136//152 135//151 138//154 137//153
f 135//151 134//150 139//155 138//154
f 134//150 133//149 140//156 139//155
f 133//149 132//148 141//157 140//156
f 132//148 131//147 142//158 141//157
f 131//147 130//146 143//159 142//158
f 130//146 129//145 144//160 143//159
f 129//145 128//144 145//161 144//160
f 128//144 127//143 146//162 145//161
f 127//143 126//142 147//163 146//162
f 126//142 125//141 148//164 147//163
f 125//141 124//140 149//165 148//164
f 124//140 123//139 150//166 149//165
f 123//139 122//138 151//167 150//166
f 122//138 91//1 151//167
f 151//167 91//1 152//168
f 150//166 151//167 152//168 153//169
f 149//165 150//166 153//169 154//170
f 148//164 149//165 154//170 155//171
f 147//163 148//164 155//171 156//172
f 146//162 147//163 156//172 157//173
f 145//161 146//162 157//173 158//174
f 144//160 145//161 158//174 159//175
f 143//159 144//160 159//175 160//176
f 142//158 143//159 160//176 161//177
f 141//157 142//158 161//177 162//178
f 140//156 141//157 162//178 163//179
f 139//155 140//156 163//179 164//180
f 138//154 139//155 164//180 165//181
f 137//153 138//154 165//181 166//182
f 467//32 137//153 166//182
f 467//32 166//182 167//183
f 166//182 165//181 168//184 167//183
f 165//181 164//180 169//185 168//184
f 164//180 163//179 170//186 169//185
f 163//179 162//178 171//187 170//186
f 162//178 161//177 172//188 171//187
f 161//177 160//176 173//189 172//188
f 160//176 159//175 174//190 173//189
f 159//175 158//174 175//191 174//190
f 158//174 157//173 176//192 175//191
f 157//173 156//172 177//193 176//192
f 156//172 155//171 178//194 177//193
f 155//171 154//170 179//195 178//194
f 154//170 153//169 180//196 179//195
f 153//169 152//168 181//197 180//196
f 152//168 91//1 181//197
f 181//197 91//1 182//198
f 180//196 181//197 182//198 183//199
f 179//195 180//196 183//199 184//200
f 178//194 179//195 184//200 185//201
f 177//193 178//194 185//201 186//202
f 176//192 177//193 186//202 187//203
f 175//191 176//192 187//203 188//204
f 174//190 175//191 188//204 189//205
f 173//189 174//190 189//205 190//206
f 172//188 173//189 190//206 191//207
f 171//187 172//188 191//207 192//208
f 170//186 171//187 192//208 193//209
f 169//185 170//186 193//209 194//210
f 168//184 169//185 194//210 195//211
f 167//183 168//184 195//211 196//212
f 467//32 167//183 196//212
f 467//32 196//212 197//213
f 196//212 195//211 198//214 197//213
f 195//211 194//210 199//215 198//214
f 194//210 193//209 200//216 199//215
f 193//209 192//208 201//217 200//216
f 192//208 191//207 202//218 201//217
f 191//207 190//206 203//219 202//218
f 190//206 189//205 204//220 203//219
f 189//205 188//204 205//221 204//220
f 188//204 187//203 206//222 205//221
f 187//203 186//202 207//223 206//222
f 186//202 185//201 208//224 207//223
f 185//201 184//200 209//225 208//224
f 184//200 183//199 210//226 209//225
f 183//199 182//198 211//227 210//226
f 182//198 91//1 211//227
f 211//227 91//1 212//228
f 210//226 211//227 212//228 213//229
f 209//225 210//226 213//229 214//230
f 208//224 209//225 214//230 215//231
f 207//223 208//224 215//231 216//232
f 206//222 207//223 216//232 217//233
f 205//221 206//222 217//233 218//234
f 204//220 205//221 218//234 219//235
f 203//219 204//220 219//235 220//236
f 202//218 203//219 220//236 221//237
f 201//217 202//218 221//237 222//238
f 200//216 201//217 222//238 223//239
f 199//215 200//216 223//239 224//240
f 198//214 199//215 224//240 225//241
f 197//213 198//214 225//241 226//242
f 467//32 197//213 226//242
f 467//32 226//242 227//243
f 226//242 225//241 228//244 227//243
f 225//241 224//240 229//245 228//244
f 224//240 223//239 230//246 229//245
f 223//239 222//238 231//247 230//246
f 222//238 221//237 232//248 231//247
f 221//237 220//236 233//249 232//248
f 220//236 219//235 234//250 233//249
f 219//235 218//234 235//251 234//250
f 218//234 217//233 236//252 235//251
f 217//233 216//232 237//253 236//252
f 216//232 215//231 238//254 237//253
f 215//231 214//230 239//255 238//254
f 214//230 213//229 240//256 239//255
f 213//229 212//228 241//257 240//256
f 212//228 91//1 241//257
f 241//257 91//1 242//258
f 240//256 241//257 242//258 243//259
f 239//255 240//256 243//259 244//260
f 238//254 239//255 244//260 245//261
f 237//253 238//254 245//261 246//262
f 236//252 237//253 246//262 247//263
f 235//251 236//252 247//263 248//264
f 234//250 235//251 248//264 249//265
f 233//249 234//250 249//265 250//266
f 232//248 233//249 250//266 251//267
f 231//247 232//248 251//267 252//268
f 230//246 231//247 252//268 253//269
f 229//245 230//246 253//269 254//270
f 228//244 229//245 254//270 255//271
f 227//243 228//244 255//271 256//272
f 467//32 227//243 256//272
f 467//32 256//272 257//273
f 256//272 255//271 258//274 257//273
f 255//271 254//270 259//275 258//274
f 254//270 253//269 260//276 259//275
f 253//269 252//268 261//277 260//276
f 252//268 251//267 262//278 261//277
f 251//267 250//266 263//279 262//278
f 250//266 249//265 264//280 263//279
f 249//265 248//264 265//281 264//280
f 248//264 247//263 266//282 265//281
f 247//263 246//262 267//283 266//282
f 246//262 245//261 268//284 267//283
f 245//261 244//260 269//285 268//284
f 244//260 243//259 270//286 269//285
f 243//259 242//258 271//287 270//286
f 242//258 91//1 271//287
f 271//287 91//1 272//288
f 270//286 271//287 272//288 273//289
f 269//285 270//286 273//289 274//290
f 268//284 269//285 274//290 275//291
f 267//283 268//284 275//291 276//292
f 266//282 267//283 276//292 277//293
f 265//281 266//282 277//293 278//294
f 264//280 265//281 278//294 279//295
f 263//279 264//280 279//295 280//296
f 262//278 263//279 280//296 281//297
f 261//277 262//278 281//297 282//298
f 260//276 261//277 282//298 283//299
f 259//275 260//276 283//299 284//300
f 258//274 259//275 284//300 285//301
f 257//273 258//274 285//301 286//302
f 467//32 257//273 286//302
f 467//32 286//302 287//303
f 286//302 285//301 288//304 287//303
f 285//301 284//300 289//305 288//304
f 284//300 283//299 290//306 289//305
f 283//299 282//298 291//307 290//306
f 282//298 281//297 292//308 291//307
f 281//297 280//296 293//309 292//308
f 280//296 279//295 294//310 293//309
f 279//295 278//294 295//311 294//310
f 278//294 277//293 296//312 295//311
f 277//293 276//292 297//313 296//312
f 276//292 275//291 298//314 297//313
f 275//291 274//290 299//315 298//314
f 274//290 273//289 300//316 299//315
f 273//289 272//288 301//317 300//316
f 272//288 91//1 301//317
f 301//317 91//1 302//318
f 300//316 301//317 302//318 303//319
f 299//315 300//316 303//319 304//320
f 298//314 299//315 304//320 305//321
f 297//313 298//314 305//321 306//322
f 296//312 297//313 306//322 307//323
f 295//311 296//312 307//323 308//324
f 294//310 295//311 308//324 309//325
f 293//309 294//310 309//325 310//326
f 292//308 293//309 310//326 311//327
f 291//307 292//308 311//327 312//328
f 290//306 291//307 312//328 313//329
f 289//305 290//306 313//329 314//330
f 288//304 289//305 314//330 315//331
f 287//303 288//304 315//331 316//332
f 467//32 287//303 316//332
f 467//32 316//332 317//333
f 316//332 315//331 318//334 317//333
f 315//331 314//330 319//335 318//334
f 314//330 313//329 320//336 319//335
f 313//329 312//328 321//337 320//336
f 312//328 311//327 322//338 321//337
f 311//327 310//326 323//339 322//338
f 310//326 309//325 324//340 323//339
f 309//325 308//324 325//341 324//340
f 308//324 307//323 326//342 325//341
f 307//323 306//322 327//343 326//342
f 306//322 305//321 328//344 327//343
f 305//321 304//320 329//345 328//344
f 304//320 303//319 330//346 329//345
f 303//319 302//318 331//347 330//346
f 302//318 91//1 331//347
f 331//347 91//1 332//348
f 330//346 331//347 332//348 333//349
f 329//345 330//346 333//349 334//350
f 328//344 329//345 334//350 335//351
f 327//343 328//344 335//351 336//352
f 326//342 327//343 336//352 337//353
f 325//341 326//342 337//353 338//354
f 324//340 325//341 338//354 339//355
f 323//339 324//340 339//355 340//356
f 322//338 323//339 340//356 341//357
f 321//337 322//338 341//357 342//358
f 320//336 321//337 342//358 343//359
f 319//335 320//336 343//359 344//360
f 318//334 319//335 344//360 345//361
f 317//333 318//334 345//361 346//362
f 467//32 317//333 346//362
f 467//32 346//362 347//363
f 346//362 345//361 348//364 347//363
f 345//361 344//360 349//365 348//364
f 344//360 343//359 350//366 349//365
f 343//359 342//358 351//367 350//366
f 342//358 341//357 352//368 351//367
f 341//357 340//356 353//369 352//368
f 340//356 339//355 354//370 353//369
f 339//355 338//354 355//371 354//370
f 338//354 337//353 356//372 355//371
f 337//353 336//352 357//373 356//372
f 336//352 335//351 358//374 357//373
f 335//351 334//350 359//375 358//374
f 334//350 333//349 360//376 359//375
f 333//349 332//348 361//377 360//376
f 332//348 91//1 361//377
f 361//377 91//1 362//378
f 360//376 361//377 362//378 363//379
f 359//375 360//376 363//379 364//380
f 358//374 359//375 364//380 365//381
f 357//373 358//374 365//381 366//382
f 356//372 357//373 366//382 367//383
f 355//371 356//372 367//383 368//384
f 354//370 355//371 368//384 369//385
f 353//369 354//370 369//385 370//386
f 352//368 353//369 370//386 371//387
f 351//367 352//368 371//387 372//388
f 350//366 351//367 372//388 373//389
f 349//365 350//366 373//389 374//390
f 348//364 349//365 374//390 375//391
f 347//363 348//364 375//391 376//392
f 467//32 347//363 376//392
f 467//32 376//392 377//393
f 376//392 375//391 378//394 377//393
f 375//391 374//390 379//395 378//394
f 374//390 373//389 380//396 379//395
f 373//389 372//388 381//397 380//396
f 372//388 371//387 382//398 381//397
f 371//387 370//386 383//399 382//398
f 370//386 369//385 384//400 383//399
f 369//385 368//384 385//401 384//400
f 368//384 367//383 386//402 385//401
f 367//383 366//382 387//403 386//402
f 366//382 365//381 388//404 387//403
f 365//381 364//380 389//405 388//404
f 364//380 363//379 390//406 389//405
f 363//379 362//378 391//407 390//406
f 362//378 91//1 391//407
f 391//407 91//1 392//408
f 390//406 391//407 392//408 393//409
f 389//405 390//406 393//409 394//410
f 388//404 389//405 394//410 395//411
f 387//403 388//404 395//411 396//412
f 386//402 387//403 396//412 397//413
f 385//401 386//402 397//413 398//414
f 384//400 385//401 398//414 399//415
f 383//399 384//400 399//415 400//416
f 382//398 383//399 400//416 401//417
f 381//397 382//398 401//417 402//418
f 380//396 381//397 402//418 403//419
f 379//395 380//396 403//419 404//420
f 378//394 379//395 404//420 405//421
f 377//393 378//394 405//421 406//422
f 467//32 377//393 406//422
f 467//32 406//422 407//423
f 406//422 405//421 408//424 407//423
f 405//421 404//420 409//425 408//424
f 404//420 403//419 410//426 409//425
f 403//419 402//418 411//427 410//426
f 402//418 401//417 412//428 411//427
f 401//417 400//416 413//429 412//428
f 400//416 399//415 414//430 413//429
f 399//415 398//414 415//431 414//430
f 398//414 397//413 416//432 415//431
f 397//413 396//412 417//433 416//432
f 396//412 395//411 418//434 417//433
f 395//411 394//410 419//435 418//434
f 394//410 393//409 420//436 419//435
f 393//409 392//408 421//437 420//436
f 392//408 91//1 421//437
f 421//437 91//1 422//438
f 420//436 421//437 422//438 423//439
f 419//435 420//436 423//439 424//440
f 418//434 419//435 424//440 425//441
f 417//433 418//434 425//441 426//442
f 416//432 417//433 426//442 427//443
f 415//431 416//432 427//443 428//444
f 414//430 415//431 428//444 429//445
f 413//429 414//430 429//445 430//446
f 412//428 413//429 430//446 431//447
f 411//427 412//428 431//447 432//448
f 410//426 411//427 432//448 433//449
f 409//425 410//426 433//449 434//450
f 408//424 409//425 434//450 435//451
f 407//423 408//424 435//451 436//452
f 467//32 407//423 436//452
f 467//32 436//452 437//453
f 436//452 435//451 438//454 437//453
f 435//451 434//450 439//455 438//454
f 434//450 433//449 440//456 439//455
f 433//449 432//448 441//457 440//456
f 432//448 431//447 442//458 441//457
f 431//447 430//446 443//459 442//458
f 430//446 429//445 444//460 443//459
f 429//445 428//444 445//461 444//460
f 428//444 427//443 446//462 445//461
f 427//443 426//442 447//463 446//462
f 426//442 425//441 448//464 447//463
f 425//441 424//440 449//465 448//464
f 424//440 423//439 450//466 449//465
f 423//439 422//438 451//467 450//466
f 422//438 91//1 451//467
f 451//467 91//1 452//468
f 450//466 451//467 452//468 453//469
f 449//465 450//466 453//469 454//470
f 448//464 449//465 454//470 455//471
f 447//463 448//464 455//471 456//472
f 446//462 447//463 456//472 457//473
f 445//461 446//462 457//473 458//474
f 444//460 445//461 458//474 459//475
f 443//459 444//460 459//475 460//476
f 442//458 443//459 460//476 461//477
f 441//457 442//458 461//477 462//478
f 440//456 441//457 462//478 463//479
f 439//455 440//456 463//479 464//480
f 438//454 439//455 464//480 465//481
f 437//453 438//454 465//481 466//482
f 467//32 437//453 466//482
f 467//32 466//482 468//30
f 466//482 465//481 469//28 468//30
f 465//481 464//480 470//26 469//28
f 464//480 463//479 471//24 470//26
f 463//479 462//478 472//22 471//24
f 462//478 461//477 473//20 472//22
f 461//477 460//476 474//18 473//20
f 460//476 459//475 475//16 474//18
f 459//475 458//474 476//14 475//16
f 458//474 457//473 477//12 476//14
f 457//473 456//472 478//10 477//12
f 456//472 455//471 479//8 478//10
f 455//471 454//470 480//6 479//8
f 454//470 453//469 481//5 480//6
f 453//469 452//468 482//3 481//5
f 452//468 91//1 482//3
usemtl Material.005
f 484//483 483//484 515//16
f 515//16 485//485 484//483
f 515//16 486//486 485//485
f 515//16 487//487 486//486
f 515//16 488//488 487//487
f 515//16 489//489 488//488
f 515//16 490//490 489//489
f 515//16 491//491 490//490
f 515//16 492//492 491//491
f 515//16 493//493 492//492
f 515//16 494//494 493//493
f 515//16 495//495 494//494
f 515//16 496//496 495//495
f 515//16 497//497 496//496
f 515//16 498//498 497//497
f 515//16 499//499 498//498
f 515//16 500//500 499//499
f 515//16 501//501 500//500
f 515//16 502//502 501//501
f 515//16 503//503 502//502
f 515//16 504//504 503//503
f 515//16 505//505 504//504
f 515//16 506//506 505//505
f 515//16 507//507 506//506
f 515//16 508//508 507//507
f 515//16 509//509 508//508
f 515//16 510//510 509//509
f 515//16 511//511 510//510
f 515//16 512//512 511//511
f 515//16 513//513 512//512
f 515//16 514//514 513//513
f 515//16 483//484 514//514
f 516//250 483//484 484//483
f 516//250 484//483 485//485
f 516//250 485//485 486//486
f 516//250 486//486 487//487
f 516//250 487//487 488//488
f 516//250 488//488 489//489
f 516//250 489//489 490//490
f 516//250 490//490 491//491
f 516//250 491//491 492//492
f 516//250 492//492 493//493
f 516//250 493//493 494//494
f 516//250 494//494 495//495
f 516//250 495//495 496//496
f 516//250 496//496 497//497
f 516//250 497//497 498//498
f 516//250 498//498 499//499
f 516//250 499//499 500//500
f 516//250 500//500 501//501
f 516//250 501//501 502//502
f 516//250 502//502 503//503
f 516//250 503//503 504//504
f 516//250 504//504 505//505
f 516//250 505//505 506//506
f 516//250 506//506 507//507
f 516//250 507//507 508//508
f 516//250 508//508 509//509
f 516//250 509//509 510//510
f 516//250 510//510 511//511
f 516//250 511//511 512//512
f 516//250 512//512 513//513
f 516//250 513//513 514//514
f 514//514 483//484 516//250
usemtl Material.003
f 518//515 517//516 549//130
f 549//130 519//517 518//515
f 549//130 520//518 519//517
f 549//130 521//519 520//518
f 549//130 522//520 521//519
f 549//130 523//521 522//520
f 549//130 524//522 523//521
f 549//130 525//523 524//522
f 549//130 526//524 525//523
f 549//130 527//525 526//524
f 549//130 528//526 527//525
f 549//130 529//527 528//526
f 549//130 530//528 529//527
f 549//130 531//529 530//528
f 549//130 532//530 531//529
f 549//130 533//531 532//530
f 549//130 534//532 533//531
f 549//130 535//533 534//532
f 549//130 536//534 535//533
f 549//130 537//535 536//534
f 549//130 538//536 537//535
f 549//130 539//537 538//536
f 549//130 540//538 539//537
f 549//130 541//539 540//538
f 549//130 542//540 541//539
f 549//130 543//541 542//540
f 549//130 544//542 543//541
f 549//130 545//543 544//542
f 549//130 546//544 545//543
f 549//130 547//545 546//544
f 549//130 548//546 547//545
f 549//130 517//516 548//546
f 550//370 517//516 518//515
f 550//370 518//515 519//517
f 550//370 519//517 520//518
f 550//370 520//518 521//519
f 550//370 521//519 522//520
f 550//370 522//520 523//521
f 550//370 523//521 524//522
f 550//370 524//522 525//523
f 550//370 525//523 526//524
f 550//370 526//524 527//525
f 550//370 527//525 528//526
f 550//370 528//526 529//527
f 550//370 529//527 530//528
f 550//370 530//528 531//529
f 550//370 531//529 532//530
f 550//370 532//530 533//531
f 550//370 533//531 534//532
f 550//370 534//532 535//533
f 550//370 535//533 536//534
f 550//370 536//534 537//535
f 550//370 537//535 538//536
f 550//370 538//536 539//537
f 550//370 539//537 540//538
f 550//370 540//538 541//539
f 550//370 541//539 542//540
f 550//370 542//540 543//541
f 550//370 543//541 544//542
f 550//370 544//542 545//543
f 550//370 545//543 546//544
f 550//370 546//544 547//545
f 550//370 547//545 548//546
f 548//546 517//516 550//370
usemtl Material.007
f 552//547 551//548 583//32
f 583//32 553//549 552//547
f 583//32 554//550 553//549
f 583//32 555//551 554//550
f 583//32 556//552 555//551
f 583//32 557//553 556//552
f 583//32 558//554 557//553
f 583//32 559//555 558//554
f 583//32 560//556 559//555
f 583//32 561//557 560//556
f 583//32 562//558 561//557
f 583//32 563//559 562//558
f 583//32 564//560 563//559
f 583//32 565//561 564//560
f 583//32 566//562 565//561
f 583//32 567//563 566//562
f 583//32 568//564 567//563
f 583//32 569//565 568//564
f 583//32 570//566 569//565
f 583//32 571//567 570//566
f 583//32 572//568 571//567
f 583//32 573//569 572//568
f 583//32 574//570 573//569
f 583//32 575//571 574//570
f 583//32 576//572 575//571
f 583//32 577//573 576//572
f 583//32 578//574 577//573
f 583//32 579//575 578//574
f 583//32 580//576 579//575
f 583//32 581//577 580//576
f 583//32 582//578 581//577
f 583//32 551//548 582//578
f 584//1 551//548 552//547
f 584//1 552//547 553//549
f 584//1 553//549 554//550
f 584//1 554//550 555//551
f 584//1 555//551 556//552
f 584//1 556//552 557//553
f 584//1 557//553 558//554
f 584//1 558//554 559//555
f 584//1 559//555 560//556
f 584//1 560//556 561//557
f 584//1 561//557 562//558
f 584//1 562//558 563//559
f 584//1 563//559 564//560
f 584//1 564//560 565//561
f 584//1 565//561 566//562
f 584//1 566//562 567//563
f 584//1 567//563 568//564
f 584//1 568//564 569//565
f 584//1 569//565 570//566
f 584//1 570//566 571//567
f 584//1 571//567 572//568
f 584//1 572//568 573//569
f 584//1 573//569 574//570
f 584//1 574//570 575//571
f 584//1 575//571 576//572
f 584//1 576//572 577//573
f 584//1 577//573 578//574
f 584//1 578//574 579//575
f 584//1 579//575 580//576
f 584//1 580//576 581//577
f 584//1 581//577 582//578
f 582//578 551//548 584//1
usemtl Material.004
f 649//250 585//579 586//580
f 650//16 618//581 617//582
f 649//250 586//580 587//583
f 650//16 619//584 618//581
f 649//250 587//583 588//585
f 650//16 620//586 619//584
f 649//250 588//585 589//587
f 650//16 621//588 620//586
f 649//250 589//587 590//589
f 650//16 622//590 621//588
f 649//250 590//589 591//591
f 650//16 623//592 622//590
f 649//250 591//591 592//593
f 650//16 624//594 623//592
f 649//250 592//593 593//595
f 650//16 625//596 624//594
f 649//250 593//595 594//597
f 650//16 626//598 625//596
f 649//250 594//597 595//599
f 650//16 627//600 626//598
f 649//250 595//599 596//601
f 650//16 628//602 627//600
f 649//250 596//601 597//603
f 650//16 629//604 628//602
f 649//250 597//603 598//605
f 650//16 630//606 629//604
f 649//250 598//605 599//607
f 650//16 631//608 630//606
f 649//250 599//607 600//609
f 650//16 632//610 631//608
f 649//250 600//609 601//611
f 650//16 633//612 632//610
f 649//250 601//611 602//613
f 650//16 634//614 633//612
f 649//250 602//613 603//615
f 650//16 635//616 634//614
f 649//250 603//615 604//617
f 650//16 636//618 635//616
f 649//250 604//617 605//619
f 650//16 637//620 636//618
f 649//250 605//619 606//621
f 650//16 638//622 637//620
f 649//250 606//621 607//623
f 650//16 639//624 638//622
f 649//250 607//623 608//625
f 650//16 640//626 639//624
f 649//250 608//625 609//627
f 650//16 641//628 640//626
f 649//250 609//627 610//629
f 650//16 642//630 641//628
f 649//250 610//629 611//631
f 650//16 643//632 642//630
f 649//250 611//631 612//633
f 650//16 644//634 643//632
f 649//250 612//633 613//635
f 650//16 645//636 644//634
f 649//250 613//635 614//637
f 650//16 646//638 645//636
f 649//250 614//637 615//639
f 650//16 647//640 646//638
f 649//250 615//639 616//641
f 650//16 648//642 647//640
f 616//641 585//579 649//250
f 650//16 617//582 648//642
f 585//579 617//582 618//581 586//580
f 586//580 618//581 619//584 587//583
f 587//583 619//584 620//586 588//585
f 588//585 620//586 621//588 589//587
f 589//587 621//588 622//590 590//589
f 590//589 622//590 623//592 591//591
f 591//591 623//592 624//594 592//593
f 592//593 624//594 625//596 593//595
f 593//595 625//596 626//598 594//597
f 594//597 626//598 627//600 595//599
f 595//599 627//600 628//602 596//601
f 596//601 628//602 629//604 597//603
f 597//603 629//604 630//606 598//605
f 598//605 630//606 631//608 599//607
f 599//607 631//608 632//610 600//609
f 600//609 632//610 633//612 601//611
f 601//611 633//612 634//614 602//613
f 602//613 634//614 635//616 603//615
f 603//615 635//616 636//618 604//617
f 604//617 636//618 637//620 605//619
f 605//619 637//620 638//622 606//621
f 606//621 638//622 639//624 607//623
f 607//623 639//624 640//626 608//625
f 608//625 640//626 641//628 609//627
f 609//627 641//628 642//630 610//629
f 610//629 642//630 643//632 611//631
f 611//631 643//632 644//634 612//633
f 612//633 644//634 645//636 613//635
f 613//635 645//636 646//638 614//637
f 614//637 646//638 647//640 615//639
f 615//639 647//640 648//642 616//641
f 617//582 585//579 616//641 648//642
usemtl Material.002
f 715//130 651//643 652//644
f 716//370 684//645 683//646
f 715//130 652//644 653//647
f 716//370 685//648 684//645
f 715//130 653//647 654//649
f 716//370 686//650 685//648
f 715//130 654//649 655//651
f 716//370 687//652 686//650
f 715//130 655//651 656//653
f 716//370 688//654 687//652
f 715//130 656//653 657//655
f 716//370 689//656 688//654
f 715//130 657//655 658//657
f 716//370 690//658 689//656
f 715//130 658//657 659//659
f 716//370 691//660 690//658
f 715//130 659//659 660//661
f 716//370 692//662 691//660
f 715//130 660//661 661//663
f 716//370 693//664 692//662
f 715//130 661//663 662//665
f 716//370 694//666 693//664
f 715//130 662//665 663//667
f 716//370 695//668 694//666
f 715//130 663//667 664//669
f 716//370 696//670 695//668
f 715//130 664//669 665//671
f 716//370 697//672 696//670
f 715//130 665//671 666//673
f 716//370 698//674 697//672
f 715//130 666//673 667//675
f 716//370 699//676 698//674
f 715//130 667//675 668//677
f 716//370 700//678 699//676
f 715//130 668//677 669//679
f 716//370 701//680 700//678
f 715//130 669//679 670//681
f 716//370 702//682 701//680
f 715//130 670//681 671//683
f 716//370 703//684 702//682
f 715//130 671//683 672//685
f 716//370 704//686 703//684
f 715//130 672//685 673//687
f 716//370 705//688 704//686
f 715//130 673//687 674//689
f 716//370 706//690 705//688
f 715//130 674//689 675//691
f 716//370 707//692 706//690
f 715//130 675//691 676//693
f 716//370 708//694 707//692
f 715//130 676//693 677//695
f 716//370 709//696 708//694
f 715//130 677//695 678//697
f 716//370 710//698 709//696
f 715//130 678//697 679//699
f 716//370 711//700 710//698
f 715//130 679//699 680//701
f 716//370 712//702 711//700
f 715//130 680//701 681//703
f 716//370 713//704 712//702
f 715//130 681//703 682//705
f 716//370 714//706 713//704
f 682//705 651//643 715//130
f 716//370 683//646 714//706
f 651//643 683//646 684//645 652//644
f 652//644 684//645 685//648 653//647
f 653//647 685//648 686//650 654//649
f 654//649 686//650 687//652 655//651
f 655//651 687//652 688//654 656//653
f 656//653 688//654 689//656 657//655
f 657//655 689//656 690//658 658//657
f 658//657 690//658 691//660 659//659
f 659//659 691//660 692//662 660//661
f 660//661 692//662 693//664 661//663
f 661//663 693//664 694//666 662//665
f 662//665 694//666 695//668 663//667
f 663//667 695//668 696//670 664//669
f 664//669 696//670 697//672 665//671
f 665//671 697//672 698//674 666//673
f 666//673 698//674 699//676 667//675
f 667//675 699//676 700//678 668//677
f 668//677 700//678 701//680 669//679
f 669//679 701//680 702//682 670//681
f 670//681 702//682 703//684 671//683
f 671//683 703//684 704//686 672//685
f 672//685 704//686 705//688 673//687
f 673//687 705//688 706//690 674//689
f 674//689 706//690 707//692 675//691
f 675//691 707//692 708//694 676//693
f 676//693 708//694 709//696 677//695
f 677//695 709//696 710//698 678//697
f 678//697 710//698 711//700 679//699
f 679//699 711//700 712//702 680//701
f 680//701 712//702 713//704 681//703
f 681//703 713//704 714//706 682//705
f 683//646 651//643 682//705 714//706
usemtl Material.006
f 781//1 717//707 718//708
f 782//32 750//709 749//710
f 781//1 718//708 719//711
f 782//32 751//712 750//709
f 781//1 719//711 720//713
f 782//32 752//714 751//712
f 781//1 720//713 721//715
f 782//32 753//716 752//714
f 781//1 721//715 722//717
f 782//32 754//718 753//716
f 781//1 722//717 723//719
f 782//32 755//720 754//718
f 781//1 723//719 724//721
f 782//32 756//722 755//720
f 781//1 724//721 725//723
f 782//32 757//724 756//722
f 781//1 725//723 726//725
f 782//32 758//726 757//724
f 781//1 726//725 727//727
f 782//32 759//728 758//726
f 781//1 727//727 728//729
f 782//32 760//730 759//728
f 781//1 728//729 729//731
f 782//32 761//732 760//730
f 781//1 729//731 730//733
f 782//32 762//734 761//732
f 781//1 730//733 731//735
f 782//32 763//736 762//734
f 781//1 731//735 732//737
f 782//32 764//738 763//736
f 781//1 732//737 733//739
f 782//32 765//740 764//738
f 781//1 733//739 734//741
f 782//32 766//742 765//740
f 781//1 734//741 735//743
f 782//32 767//744 766//742
f 781//1 735//743 736//745
f 782//32 768//746 767//744
f 781//1 736//745 737//747
f 782//32 769//748 768//746
f 781//1 737//747 738//749
f 782//32 770//750 769//748
f 781//1 738//749 739//751
f 782//32 771//752 770//750
f 781//1 739//751 740//753
f 782//32 772//754 771//752
f 781//1 740//753 741//755
f 782//32 773//756 772//754
f 781//1 741//755 742//757
f 782//32 774//758 773//756
f 781//1 742//757 743//759
f 782//32 775//760 774//758
f 781//1 743//759 744//761
f 782//32 776//762 775//760
f 781//1 744//761 745//763
f 782//32 777//764 776//762
f 781//1 745//763 746//765
f 782//32 778//766 777//764
f 781//1 746//765 747//767
f 782//32 779//768 778//766
f 781//1 747//767 748//769
f 782//32 780//770 779//768
f 748//769 717//707 781//1
f 782//32 749//710 780//770
f 717//707 749//710 750//709 718//708
f 718//708 750//709 751//712 719//711
f 719//711 751//712 752//714 720//713
f 720//713 752//714 753//716 721//715
f 721//715 753//716 754//718 722//717
f 722//717 754//718 755//720 723//719
f 723//719 755//720 756//722 724//721
f 724//721 756//722 757//724 725//723
f 725//723 757//724 758//726 726//725
f 726//725 758//726 759//728 727//727
f 727//727 759//728 760//730 728//729
f 728//729 760//730 761//732 729//731
f 729//731 761//732 762//734 730//733
f 730//733 762//734 763//736 731//735
f 731//735 763//736 764//738 732//737
f 732//737 764//738 765//740 733//739
f 733//739 765//740 766//742 734//741
f 734//741 766//742 767//744 735//743
f 735//743 767//744 768//746 736//745
f 736//745 768//746 769//748 737//747
f 737//747 769//748 770//750 738//749
f 738//749 770//750 771//752 739//751
f 739//751 771//752 772//754 740//753
f 740//753 772//754 773//756 741//755
f 741//755 773//756 774//758 742//757
f 742//757 774//758 775//760 743//759
f 743//759 775//760 776//762 744//761
f 744//761 776//762 777//764 745//763
f 745//763 777//764 778//766 746//765
f 746//765 778//766 779//768 747//767
f 747//767 779//768 780//770 748//769
f 749//710 717//707 748//769 780//770
l 1 2
l 2 3
l 3 4
l 4 5
l 5 6
l 6 7
l 7 8
l 8 9
l 9 10
l 10 11
l 11 12
l 12 13
l 13 14
l 14 15
l 15 16
l 14 17
l 16 17
l 13 18
l 17 18
l 12 19
l 18 19
l 11 20
l 19 20
l 10 21
l 20 21
l 9 22
l 21 22
l 8 23
l 22 23
l 7 24
l 23 24
l 6 25
l 24 25
l 5 26
l 25 26
l 4 27
l 26 27
l 3 28
l 27 28
l 2 29
l 28 29
l 1 30
l 29 30
l 30 31
l 31 32
l 29 32
l 32 33
l 28 33
l 33 34
l 27 34
l 34 35
l 26 35
l 35 36
l 25 36
l 36 37
l 24 37
l 37 38
l 23 38
l 38 39
l 22 39
l 39 40
l 21 40
l 40 41
l 20 41
l 41 42
l 19 42
l 42 43
l 18 43
l 43 44
l 17 44
l 44 45
l 16 45
l 45 46
l 44 47
l 46 47
l 43 48
l 47 48
l 42 49
l 48 49
l 41 50
l 49 50
l 40 51
l 50 51
l 39 52
l 51 52
l 38 53
l 52 53
l 37 54
l 53 54
l 36 55
l 54 55
l 35 56
l 55 56
l 34 57
l 56 57
l 33 58
l 57 58
l 32 59
l 58 59
l 31 60
l 59 60
l 60 61
l 61 62
l 59 62
l 62 63
l 58 63
l 63 64
l 57 64
l 64 65
l 56 65
l 65 66
l 55 66
l 66 67
l 54 67
l 67 68
l 53 68
l 68 69
l 52 69
l 69 70
l 51 70
l 70 71
l 50 71
l 71 72
l 49 72
l 72 73
l 48 73
l 73 74
l 47 74
l 74 75
l 46 75
l 75 76
l 74 77
l 76 77
l 73 78
l 77 78
l 72 79
l 78 79
l 71 80
l 79 80
l 70 81
l 80 81
l 69 82
l 81 82
l 68 83
l 82 83
l 67 84
l 83 84
l 66 85
l 84 85
l 65 86
l 85 86
l 64 87
l 86 87
l 63 88
l 87 88
l 62 89
l 88 89
l 61 90
l 89 90
l 90 91
l 90 92
l 92 93
l 89 93
l 93 94
l 88 94
l 94 95
l 87 95
l 95 96
l 86 96
l 96 97
l 85 97
l 97 98
l 84 98
l 98 99
l 83 99
l 99 100
l 82 100
l 100 101
l 81 101
l 101 102
l 80 102
l 102 103
l 79 103
l 103 104
l 78 104
l 104 105
l 77 105
l 105 106
l 76 106
l 106 107
l 105 108
l 107 108
l 104 109
l 108 109
l 103 110
l 109 110
l 102 111
l 110 111
l 101 112
l 111 112
l 100 113
l 112 113
l 99 114
l 113 114
l 98 115
l 114 115
l 97 116
l 115 116
l 96 117
l 116 117
l 95 118
l 117 118
l 94 119
l 118 119
l 93 120
l 119 120
l 92 121
l 120 121
l 121 122
l 122 123
l 120 123
l 123 124
l 119 124
l 124 125
l 118 125
l 125 126
l 117 126
l 126 127
l 116 127
l 127 128
l 115 128
l 128 129
l 114 129
l 129 130
l 113 130
l 130 131
l 112 131
l 131 132
l 111 132
l 132 133
l 110 133
l 133 134
l 109 134
l 134 135
l 108 135
l 135 136
l 107 136
l 136 137
l 135 138
l 137 138
l 134 139
l 138 139
l 133 140
l 139 140
l 132 141
l 140 141
l 131 142
l 141 142
l 130 143
l 142 143
l 129 144
l 143 144
l 128 145
l 144 145
l 127 146
l 145 146
l 126 147
l 146 147
l 125 148
l 147 148
l 124 149
l 148 149
l 123 150
l 149 150
l 122 151
l 150 151
l 151 152
l 152 153
l 150 153
l 153 154
l 149 154
l 154 155
l 148 155
l 155 156
l 147 156
l 156 157
l 146 157
l 157 158
l 145 158
l 158 159
l 144 159
l 159 160
l 143 160
l 160 161
l 142 161
l 161 162
l 141 162
l 162 163
l 140 163
l 163 164
l 139 164
l 164 165
l 138 165
l 165 166
l 137 166
l 166 167
l 165 168
l 167 168
l 164 169
l 168 169
l 163 170
l 169 170
l 162 171
l 170 171
l 161 172
l 171 172
l 160 173
l 172 173
l 159 174
l 173 174
l 158 175
l 174 175
l 157 176
l 175 176
l 156 177
l 176 177
l 155 178
l 177 178
l 154 179
l 178 179
l 153 180
l 179 180
l 152 181
l 180 181
l 181 182
l 182 183
l 180 183
l 183 184
l 179 184
l 184 185
l 178 185
l 185 186
l 177 186
l 186 187
l 176 187
l 187 188
l 175 188
l 188 189
l 174 189
l 189 190
l 173 190
l 190 191
l 172 191
l 191 192
l 171 192
l 192 193
l 170 193
l 193 194
l 169 194
l 194 195
l 168 195
l 195 196
l 167 196
l 196 197
l 195 198
l 197 198
l 194 199
l 198 199
l 193 200
l 199 200
l 192 201
l 200 201
l 191 202
l 201 202
l 190 203
l 202 203
l 189 204
l 203 204
l 188 205
l 204 205
l 187 206
l 205 206
l 186 207
l 206 207
l 185 208
l 207 208
l 184 209
l 208 209
l 183 210
l 209 210
l 182 211
l 210 211
l 211 212
l 212 213
l 210 213
l 213 214
l 209 214
l 214 215
l 208 215
l 215 216
l 207 216
l 216 217
l 206 217
l 217 218
l 205 218
l 218 219
l 204 219
l 219 220
l 203 220
l 220 221
l 202 221
l 221 222
l 201 222
l 222 223
l 200 223
l 223 224
l 199 224
l 224 225
l 198 225
l 225 226
l 197 226
l 226 227
l 225 228
l 227 228
l 224 229
l 228 229
l 223 230
l 229 230
l 222 231
l 230 231
l 221 232
l 231 232
l 220 233
l 232 233
l 219 234
l 233 234
l 218 235
l 234 235
l 217 236
l 235 236
l 216 237
l 236 237
l 215 238
l 237 238
l 214 239
l 238 239
l 213 240
l 239 240
l 212 241
l 240 241
l 241 242
l 242 243
l 240 243
l 243 244
l 239 244
l 244 245
l 238 245
l 245 246
l 237 246
l 246 247
l 236 247
l 247 248
l 235 248
l 248 249
l 234 249
l 249 250
l 233 250
l 250 251
l 232 251
l 251 252
l 231 252
l 252 253
l 230 253
l 253 254
l 229 254
l 254 255
l 228 255
l 255 256
l 227 256
l 256 257
l 255 258
l 257 258
l 254 259
l 258 259
l 253 260
l 259 260
l 252 261
l 260 261
l 251 262
l 261 262
l 250 263
l 262 263
l 249 264
l 263 264
l 248 265
l 264 265
l 247 266
l 265 266
l 246 267
l 266 267
l 245 268
l 267 268
l 244 269
l 268 269
l 243 270
l 269 270
l 242 271
l 270 271
l 271 272
l 272 273
l 270 273
l 273 274
l 269 274
l 274 275
l 268 275
l 275 276
l 267 276
l 276 277
l 266 277
l 277 278
l 265 278
l 278 279
l 264 279
l 279 280
l 263 280
l 280 281
l 262 281
l 281 282
l 261 282
l 282 283
l 260 283
l 283 284
l 259 284
l 284 285
l 258 285
l 285 286
l 257 286
l 286 287
l 285 288
l 287 288
l 284 289
l 288 289
l 283 290
l 289 290
l 282 291
l 290 291
l 281 292
l 291 292
l 280 293
l 292 293
l 279 294
l 293 294
l 278 295
l 294 295
l 277 296
l 295 296
l 276 297
l 296 297
l 275 298
l 297 298
l 274 299
l 298 299
l 273 300
l 299 300
l 272 301
l 300 301
l 301 302
l 302 303
l 300 303
l 303 304
l 299 304
l 304 305
l 298 305
l 305 306
l 297 306
l 306 307
l 296 307
l 307 308
l 295 308
l 308 309
l 294 309
l 309 310
l 293 310
l 310 311
l 292 311
l 311 312
l 291 312
l 312 313
l 290 313
l 313 314
l 289 314
l 314 315
l 288 315
l 315 316
l 287 316
l 316 317
l 315 318
l 317 318
l 314 319
l 318 319
l 313 320
l 319 320
l 312 321
l 320 321
l 311 322
l 321 322
l 310 323
l 322 323
l 309 324
l 323 324
l 308 325
l 324 325
l 307 326
l 325 326
l 306 327
l 326 327
l 305 328
l 327 328
l 304 329
l 328 329
l 303 330
l 329 330
l 302 331
l 330 331
l 331 332
l 332 333
l 330 333
l 333 334
l 329 334
l 334 335
l 328 335
l 335 336
l 327 336
l 336 337
l 326 337
l 337 338
l 325 338
l 338 339
l 324 339
l 339 340
l 323 340
l 340 341
l 322 341
l 341 342
l 321 342
l 342 343
l 320 343
l 343 344
l 319 344
l 344 345
l 318 345
l 345 346
l 317 346
l 346 347
l 345 348
l 347 348
l 344 349
l 348 349
l 343 350
l 349 350
l 342 351
l 350 351
l 341 352
l 351 352
l 340 353
l 352 353
l 339 354
l 353 354
l 338 355
l 354 355
l 337 356
l 355 356
l 336 357
l 356 357
l 335 358
l 357 358
l 334 359
l 358 359
l 333 360
l 359 360
l 332 361
l 360 361
l 361 362
l 362 363
l 360 363
l 363 364
l 359 364
l 364 365
l 358 365
l 365 366
l 357 366
l 366 367
l 356 367
l 367 368
l 355 368
l 368 369
l 354 369
l 369 370
l 353 370
l 370 371
l 352 371
l 371 372
l 351 372
l 372 373
l 350 373
l 373 374
l 349 374
l 374 375
l 348 375
l 375 376
l 347 376
l 376 377
l 375 378
l 377 378
l 374 379
l 378 379
l 373 380
l 379 380
l 372 381
l 380 381
l 371 382
l 381 382
l 370 383
l 382 383
l 369 384
l 383 384
l 368 385
l 384 385
l 367 386
l 385 386
l 366 387
l 386 387
l 365 388
l 387 388
l 364 389
l 388 389
l 363 390
l 389 390
l 362 391
l 390 391
l 391 392
l 392 393
l 390 393
l 393 394
l 389 394
l 394 395
l 388 395
l 395 396
l 387 396
l 396 397
l 386 397
l 397 398
l 385 398
l 398 399
l 384 399
l 399 400
l 383 400
l 400 401
l 382 401
l 401 402
l 381 402
l 402 403
l 380 403
l 403 404
l 379 404
l 404 405
l 378 405
l 405 406
l 377 406
l 406 407
l 405 408
l 407 408
l 404 409
l 408 409
l 403 410
l 409 410
l 402 411
l 410 411
l 401 412
l 411 412
l 400 413
l 412 413
l 399 414
l 413 414
l 398 415
l 414 415
l 397 416
l 415 416
l 396 417
l 416 417
l 395 418
l 417 418
l 394 419
l 418 419
l 393 420
l 419 420
l 392 421
l 420 421
l 421 422
l 422 423
l 420 423
l 423 424
l 419 424
l 424 425
l 418 425
l 425 426
l 417 426
l 426 427
l 416 427
l 427 428
l 415 428
l 428 429
l 414 429
l 429 430
l 413 430
l 430 431
l 412 431
l 431 432
l 411 432
l 432 433
l 410 433
l 433 434
l 409 434
l 434 435
l 408 435
l 435 436
l 407 436
l 436 437
l 435 438
l 437 438
l 434 439
l 438 439
l 433 440
l 439 440
l 432 441
l 440 441
l 431 442
l 441 442
l 430 443
l 442 443
l 429 444
l 443 444
l 428 445
l 444 445
l 427 446
l 445 446
l 426 447
l 446 447
l 425 448
l 447 448
l 424 449
l 448 449
l 423 450
l 449 450
l 422 451
l 450 451
l 451 452
l 452 453
l 450 453
l 453 454
l 449 454
l 454 455
l 448 455
l 455 456
l 447 456
l 456 457
l 446 457
l 457 458
l 445 458
l 458 459
l 444 459
l 459 460
l 443 460
l 460 461
l 442 461
l 461 462
l 441 462
l 462 463
l 440 463
l 463 464
l 439 464
l 464 465
l 438 465
l 465 466
l 437 466
l 466 467
l 466 468
l 465 469
l 468 469
l 464 470
l 469 470
l 463 471
l 470 471
l 462 472
l 471 472
l 461 473
l 472 473
l 460 474
l 473 474
l 459 475
l 474 475
l 458 476
l 475 476
l 457 477
l 476 477
l 456 478
l 477 478
l 455 479
l 478 479
l 454 480
l 479 480
l 453 481
l 480 481
l 452 482
l 481 482
l 91 482
l 467 468
l 91 452
l 91 451
l 437 467
l 436 467
l 91 422
l 91 421
l 407 467
l 406 467
l 91 392
l 91 391
l 377 467
l 376 467
l 91 362
l 91 361
l 347 467
l 346 467
l 91 332
l 91 331
l 317 467
l 316 467
l 91 302
l 91 301
l 287 467
l 286 467
l 91 272
l 91 271
l 257 467
l 256 467
l 91 242
l 91 241
l 227 467
l 226 467
l 91 212
l 91 211
l 197 467
l 196 467
l 91 182
l 91 181
l 167 467
l 166 467
l 91 152
l 91 151
l 137 467
l 136 467
l 91 122
l 91 121
l 107 467
l 106 467
l 91 92
l 76 467
l 75 467
l 61 91
l 60 91
l 46 467
l 45 467
l 31 91
l 30 91
l 16 467
l 15 467
l 15 468
l 14 469
l 13 470
l 12 471
l 11 472
l 10 473
l 9 474
l 8 475
l 7 476
l 6 477
l 5 478
l 4 479
l 3 480
l 2 481
l 1 482
l 1 91
l 483 515
l 483 484
l 484 515
l 484 485
l 485 515
l 485 486
l 486 515
l 486 487
l 487 515
l 487 488
l 488 515
l 488 489
l 489 515
l 489 490
l 490 515
l 490 491
l 491 515
l 491 492
l 492 515
l 492 493
l 493 515
l 493 494
l 494 515
l 494 495
l 495 515
l 495 496
l 496 515
l 496 497
l 497 515
l 497 498
l 498 515
l 498 499
l 499 515
l 499 500
l 500 515
l 500 501
l 501 515
l 501 502
l 502 515
l 502 503
l 503 515
l 503 504
l 504 515
l 504 505
l 505 515
l 505 506
l 506 515
l 506 507
l 507 515
l 507 508
l 508 515
l 508 509
l 509 515
l 509 510
l 510 515
l 510 511
l 511 515
l 511 512
l 512 515
l 512 513
l 513 515
l 513 514
l 514 515
l 483 514
l 484 516
l 483 516
l 485 516
l 486 516
l 487 516
l 488 516
l 489 516
l 490 516
l 491 516
l 492 516
l 493 516
l 494 516
l 495 516
l 496 516
l 497 516
l 498 516
l 499 516
l 500 516
l 501 516
l 502 516
l 503 516
l 504 516
l 505 516
l 506 516
l 507 516
l 508 516
l 509 516
l 510 516
l 511 516
l 512 516
l 513 516
l 514 516
l 517 549
l 517 518
l 518 549
l 518 519
l 519 549
l 519 520
l 520 549
l 520 521
l 521 549
l 521 522
l 522 549
l 522 523
l 523 549
l 523 524
l 524 549
l 524 525
l 525 549
l 525 526
l 526 549
l 526 527
l 527 549
l 527 528
l 528 549
l 528 529
l 529 549
l 529 530
l 530 549
l 530 531
l 531 549
l 531 532
l 532 549
l 532 533
l 533 549
l 533 534
l 534 549
l 534 535
l 535 549
l 535 536
l 536 549
l 536 537
l 537 549
l 537 538
l 538 549
l 538 539
l 539 549
l 539 540
l 540 549
l 540 541
l 541 549
l 541 542
l 542 549
l 542 543
l 543 549
l 543 544
l 544 549
l 544 545
l 545 549
l 545 546
l 546 549
l 546 547
l 547 549
l 547 548
l 548 549
l 517 548
l 518 550
l 517 550
l 519 550
l 520 550
l 521 550
l 522 550
l 523 550
l 524 550
l 525 550
l 526 550
l 527 550
l 528 550
l 529 550
l 530 550
l 531 550
l 532 550
l 533 550
l 534 550
l 535 550
l 536 550
l 537 550
l 538 550
l 539 550
l 540 550
l 541 550
l 542 550
l 543 550
l 544 550
l 545 550
l 546 550
l 547 550
l 548 550
l 551 583
l 551 552
l 552 583
l 552 553
l 553 583
l 553 554
l 554 583
l 554 555
l 555 583
l 555 556
l 556 583
l 556 557
l 557 583
l 557 558
l 558 583
l 558 559
l 559 583
l 559 560
l 560 583
l 560 561
l 561 583
l 561 562
l 562 583
l 562 563
l 563 583
l 563 564
l 564 583
l 564 565
l 565 583
l 565 566
l 566 583
l 566 567
l 567 583
l 567 568
l 568 583
l 568 569
l 569 583
l 569 570
l 570 583
l 570 571
l 571 583
l 571 572
l 572 583
l 572 573
l 573 583
l 573 574
l 574 583
l 574 575
l 575 583
l 575 576
l 576 583
l 576 577
l 577 583
l 577 578
l 578 583
l 578 579
l 579 583
l 579 580
l 580 583
l 580 581
l 581 583
l 581 582
l 582 583
l 551 582
l 552 584
l 551 584
l 553 584
l 554 584
l 555 584
l 556 584
l 557 584
l 558 584
l 559 584
l 560 584
l 561 584
l 562 584
l 563 584
l 564 584
l 565 584
l 566 584
l 567 584
l 568 584
l 569 584
l 570 584
l 571 584
l 572 584
l 573 584
l 574 584
l 575 584
l 576 584
l 577 584
l 578 584
l 579 584
l 580 584
l 581 584
l 582 584
l 585 649
l 585 586
l 586 649
l 617 650
l 617 618
l 618 650
l 586 587
l 587 649
l 618 619
l 619 650
l 587 588
l 588 649
l 619 620
l 620 650
l 588 589
l 589 649
l 620 621
l 621 650
l 589 590
l 590 649
l 621 622
l 622 650
l 590 591
l 591 649
l 622 623
l 623 650
l 591 592
l 592 649
l 623 624
l 624 650
l 592 593
l 593 649
l 624 625
l 625 650
l 593 594
l 594 649
l 625 626
l 626 650
l 594 595
l 595 649
l 626 627
l 627 650
l 595 596
l 596 649
l 627 628
l 628 650
l 596 597
l 597 649
l 628 629
l 629 650
l 597 598
l 598 649
l 629 630
l 630 650
l 598 599
l 599 649
l 630 631
l 631 650
l 599 600
l 600 649
l 631 632
l 632 650
l 600 601
l 601 649
l 632 633
l 633 650
l 601 602
l 602 649
l 633 634
l 634 650
l 602 603
l 603 649
l 634 635
l 635 650
l 603 604
l 604 649
l 635 636
l 636 650
l 604 605
l 605 649
l 636 637
l 637 650
l 605 606
l 606 649
l 637 638
l 638 650
l 606 607
l 607 649
l 638 639
l 639 650
l 607 608
l 608 649
l 639 640
l 640 650
l 608 609
l 609 649
l 640 641
l 641 650
l 609 610
l 610 649
l 641 642
l 642 650
l 610 611
l 611 649
l 642 643
l 643 650
l 611 612
l 612 649
l 643 644
l 644 650
l 612 613
l 613 649
l 644 645
l 645 650
l 613 614
l 614 649
l 645 646
l 646 650
l 614 615
l 615 649
l 646 647
l 647 650
l 615 616
l 616 649
l 647 648
l 648 650
l 585 616
l 617 648
l 586 618
l 585 617
l 587 619
l 588 620
l 589 621
l 590 622
l 591 623
l 592 624
l 593 625
l 594 626
l 595 627
l 596 628
l 597 629
l 598 630
l 599 631
l 600 632
l 601 633
l 602 634
l 603 635
l 604 636
l 605 637
l 606 638
l 607 639
l 608 640
l 609 641
l 610 642
l 611 643
l 612 644
l 613 645
l 614 646
l 615 647
l 616 648
l 651 715
l 651 652
l 652 715
l 683 716
l 683 684
l 684 716
l 652 653
l 653 715
l 684 685
l 685 716
l 653 654
l 654 715
l 685 686
l 686 716
l 654 655
l 655 715
l 686 687
l 687 716
l 655 656
l 656 715
l 687 688
l 688 716
l 656 657
l 657 715
l 688 689
l 689 716
l 657 658
l 658 715
l 689 690
l 690 716
l 658 659
l 659 715
l 690 691
l 691 716
l 659 660
l 660 715
l 691 692
l 692 716
l 660 661
l 661 715
l 692 693
l 693 716
l 661 662
l 662 715
l 693 694
l 694 716
l 662 663
l 663 715
l 694 695
l 695 716
l 663 664
l 664 715
l 695 696
l 696 716
l 664 665
l 665 715
l 696 697
l 697 716
l 665 666
l 666 715
l 697 698
l 698 716
l 666 667
l 667 715
l 698 699
l 699 716
l 667 668
l 668 715
l 699 700
l 700 716
l 668 669
l 669 715
l 700 701
l 701 716
l 669 670
l 670 715
l 701 702
l 702 716
l 670 671
l 671 715
l 702 703
l 703 716
l 671 672
l 672 715
l 703 704
l 704 716
l 672 673
l 673 715
l 704 705
l 705 716
l 673 674
l 674 715
l 705 706
l 706 716
l 674 675
l 675 715
l 706 707
l 707 716
l 675 676
l 676 715
l 707 708
l 708 716
l 676 677
l 677 715
l 708 709
l 709 716
l 677 678
l 678 715
l 709 710
l 710 716
l 678 679
l 679 715
l 710 711
l 711 716
l 679 680
l 680 715
l 711 712
l 712 716
l 680 681
l 681 715
l 712 713
l 713 716
l 681 682
l 682 715
l 713 714
l 714 716
l 651 682
l 683 714
l 652 684
l 651 683
l 653 685
l 654 686
l 655 687
l 656 688
l 657 689
l 658 690
l 659 691
l 660 692
l 661 693
l 662 694
l 663 695
l 664 696
l 665 697
l 666 698
l 667 699
l 668 700
l 669 701
l 670 702
l 671 703
l 672 704
l 673 705
l 674 706
l 675 707
l 676 708
l 677 709
l 678 710
l 679 711
l 680 712
l 681 713
l 682 714
l 717 781
l 717 718
l 718 781
l 749 782
l 749 750
l 750 782
l 718 719
l 719 781
l 750 751
l 751 782
l 719 720
l 720 781
l 751 752
l 752 782
l 720 721
l 721 781
l 752 753
l 753 782
l 721 722
l 722 781
l 753 754
l 754 782
l 722 723
l 723 781
l 754 755
l 755 782
l 723 724
l 724 781
l 755 756
l 756 782
l 724 725
l 725 781
l 756 757
l 757 782
l 725 726
l 726 781
l 757 758
l 758 782
l 726 727
l 727 781
l 758 759
l 759 782
l 727 728
l 728 781
l 759 760
l 760 782
l 728 729
l 729 781
l 760 761
l 761 782
l 729 730
l 730 781
l 761 762
l 762 782
l 730 731
l 731 781
l 762 763
l 763 782
l 731 732
l 732 781
l 763 764
l 764 782
l 732 733
l 733 781
l 764 765
l 765 782
l 733 734
l 734 781
l 765 766
l 766 782
l 734 735
l 735 781
l 766 767
l 767 782
l 735 736
l 736 781
l 767 768
l 768 782
l 736 737
l 737 781
l 768 769
l 769 782
l 737 738
l 738 781
l 769 770
l 770 782
l 738 739
l 739 781
l 770 771
l 771 782
l 739 740
l 740 781
l 771 772
l 772 782
l 740 741
l 741 781
l 772 773
l 773 782
l 741 742
l 742 781
l 773 774
l 774 782
l 742 743
l 743 781
l 774 775
l 775 782
l 743 744
l 744 781
l 775 776
l 776 782
l 744 745
l 745 781
l 776 777
l 777 782
l 745 746
l 746 781
l 777 778
l 778 782
l 746 747
l 747 781
l 778 779
l 779 782
l 747 748
l 748 781
l 779 780
l 780 782
l 717 748
l 749 780
l 718 750
l 717 749
l 719 751
l 720 752
l 721 753
l 722 754
l 723 755
l 724 756
l 725 757
l 726 758
l 727 759
l 728 760
l 729 761
l 730 762
l 731 763
l 732 764
l 733 765
l 734 766
l 735 767
l 736 768
l 737 769
l 738 770
l 739 771
l 740 772
l 741 773
l 742 774
l 743 775
l 744 776
l 745 777
l 746 778
l 747 779
l 748 780
