# Blender v2.90.0 OBJ File: 'Reference_Point.blend'
# www.blender.org
mtllib Reference_Point.mtl
o Base_inf_Cube.002
v 0.050000 -0.010000 -0.050000
v 0.050000 -0.010000 0.050000
v -0.050000 -0.010000 0.050000
v -0.050000 -0.010000 -0.050000
v 0.050000 0.010000 -0.050000
v 0.050000 0.010000 0.050000
v -0.050000 0.010000 0.050000
v -0.050000 0.010000 -0.050000
vn 0.0000 -1.0000 0.0000
vn 0.0000 1.0000 0.0000
vn 1.0000 0.0000 0.0000
vn -0.0000 -0.0000 1.0000
vn -1.0000 -0.0000 -0.0000
vn 0.0000 0.0000 -1.0000
usemtl Material.001
s off
f 1//1 2//1 3//1 4//1
f 5//2 8//2 7//2 6//2
f 1//3 5//3 6//3 2//3
f 2//4 6//4 7//4 3//4
f 3//5 7//5 8//5 4//5
f 5//6 1//6 4//6 8//6
l 2 3
l 2 1
l 4 1
l 4 3
l 5 6
l 7 6
l 7 8
l 8 5
l 2 6
l 1 5
l 3 7
l 4 8
o supporto_punta_Cylinder
v 0.000000 0.410000 -0.010000
v 0.001951 0.410000 -0.009808
v 0.003827 0.410000 -0.009239
v 0.005556 0.410000 -0.008315
v 0.007071 0.410000 -0.007071
v 0.008315 0.410000 -0.005556
v 0.009239 0.410000 -0.003827
v 0.009808 0.410000 -0.001951
v 0.010000 0.410000 -0.000000
v 0.009808 0.410000 0.001951
v 0.009239 0.410000 0.003827
v 0.008315 0.410000 0.005556
v 0.007071 0.410000 0.007071
v 0.005556 0.410000 0.008315
v 0.003827 0.410000 0.009239
v 0.001951 0.410000 0.009808
v -0.000000 0.410000 0.010000
v -0.001951 0.410000 0.009808
v -0.003827 0.410000 0.009239
v -0.005556 0.410000 0.008315
v -0.007071 0.410000 0.007071
v -0.008315 0.410000 0.005556
v -0.009239 0.410000 0.003827
v -0.009808 0.410000 0.001951
v -0.010000 0.410000 -0.000000
v -0.009808 0.410000 -0.001951
v -0.009239 0.410000 -0.003827
v -0.008315 0.410000 -0.005556
v -0.007071 0.410000 -0.007071
v -0.005556 0.410000 -0.008315
v -0.003827 0.410000 -0.009239
v -0.001951 0.410000 -0.009808
v 0.000000 0.430000 0.000000
v 0.000000 0.410000 0.000000
v 0.000000 0.330000 -0.010000
v 0.001951 0.330000 -0.009808
v 0.003827 0.330000 -0.009239
v 0.005556 0.330000 -0.008315
v 0.007071 0.330000 -0.007071
v 0.008315 0.330000 -0.005556
v 0.009239 0.330000 -0.003827
v 0.009808 0.330000 -0.001951
v 0.010000 0.330000 -0.000000
v 0.009808 0.330000 0.001951
v 0.009239 0.330000 0.003827
v 0.008315 0.330000 0.005556
v 0.007071 0.330000 0.007071
v 0.005556 0.330000 0.008315
v 0.003827 0.330000 0.009239
v 0.001951 0.330000 0.009808
v -0.000000 0.330000 0.010000
v -0.001951 0.330000 0.009808
v -0.003827 0.330000 0.009239
v -0.005556 0.330000 0.008315
v -0.007071 0.330000 0.007071
v -0.008315 0.330000 0.005556
v -0.009239 0.330000 0.003827
v -0.009808 0.330000 0.001951
v -0.010000 0.330000 -0.000000
v -0.009808 0.330000 -0.001951
v -0.009239 0.330000 -0.003827
v -0.008315 0.330000 -0.005556
v -0.007071 0.330000 -0.007071
v -0.005556 0.330000 -0.008315
v -0.003827 0.330000 -0.009239
v -0.001951 0.330000 -0.009808
v 0.000000 0.410000 -0.010000
v 0.001951 0.410000 -0.009808
v 0.003827 0.410000 -0.009239
v 0.005556 0.410000 -0.008315
v 0.007071 0.410000 -0.007071
v 0.008315 0.410000 -0.005556
v 0.009239 0.410000 -0.003827
v 0.009808 0.410000 -0.001951
v 0.010000 0.410000 0.000000
v 0.009808 0.410000 0.001951
v 0.009239 0.410000 0.003827
v 0.008315 0.410000 0.005556
v 0.007071 0.410000 0.007071
v 0.005556 0.410000 0.008315
v 0.003827 0.410000 0.009239
v 0.001951 0.410000 0.009808
v 0.000000 0.410000 0.010000
v -0.001951 0.410000 0.009808
v -0.003827 0.410000 0.009239
v -0.005556 0.410000 0.008315
v -0.007071 0.410000 0.007071
v -0.008315 0.410000 0.005556
v -0.009239 0.410000 0.003827
v -0.009808 0.410000 0.001951
v -0.010000 0.410000 0.000000
v -0.009808 0.410000 -0.001951
v -0.009239 0.410000 -0.003827
v -0.008315 0.410000 -0.005556
v -0.007071 0.410000 -0.007071
v -0.005556 0.410000 -0.008315
v -0.003827 0.410000 -0.009239
v -0.001951 0.410000 -0.009808
v 0.000000 0.330000 0.000000
v 0.000000 0.410000 0.000000
vn 0.0000 -1.0000 0.0000
vn 0.0000 -0.6857 -0.7279
vn 0.1420 -0.6857 -0.7139
vn 0.0000 1.0000 0.0000
vn 0.1420 0.6857 -0.7139
vn 0.0000 0.6857 -0.7279
vn 0.2785 -0.6857 -0.6725
vn 0.2785 0.6857 -0.6725
vn 0.4044 -0.6857 -0.6052
vn 0.4044 0.6857 -0.6052
vn 0.5147 -0.6857 -0.5147
vn 0.5147 0.6857 -0.5147
vn 0.6052 -0.6857 -0.4044
vn 0.6052 0.6857 -0.4044
vn 0.6725 -0.6857 -0.2785
vn 0.6725 0.6857 -0.2785
vn 0.7139 -0.6857 -0.1420
vn 0.7139 0.6857 -0.1420
vn 0.7279 -0.6857 0.0000
vn 0.7279 0.6857 0.0000
vn 0.7139 -0.6857 0.1420
vn 0.7139 0.6857 0.1420
vn 0.6725 -0.6857 0.2785
vn 0.6725 0.6857 0.2785
vn 0.6052 -0.6857 0.4044
vn 0.6052 0.6857 0.4044
vn 0.5147 -0.6857 0.5147
vn 0.5147 0.6857 0.5147
vn 0.4044 -0.6857 0.6052
vn 0.4044 0.6857 0.6052
vn 0.2785 -0.6857 0.6725
vn 0.2785 0.6857 0.6725
vn 0.1420 -0.6857 0.7139
vn 0.1420 0.6857 0.7139
vn 0.0000 -0.6857 0.7279
vn 0.0000 0.6857 0.7279
vn -0.1420 -0.6857 0.7139
vn -0.1420 0.6857 0.7139
vn -0.2785 -0.6857 0.6725
vn -0.2785 0.6857 0.6725
vn -0.4044 -0.6857 0.6052
vn -0.4044 0.6857 0.6052
vn -0.5147 -0.6857 0.5147
vn -0.5147 0.6857 0.5147
vn -0.6052 -0.6857 0.4044
vn -0.6052 0.6857 0.4044
vn -0.6725 -0.6857 0.2785
vn -0.6725 0.6857 0.2785
vn -0.7139 -0.6857 0.1420
vn -0.7139 0.6857 0.1420
vn -0.7279 -0.6857 0.0000
vn -0.7279 0.6857 0.0000
vn -0.7139 -0.6857 -0.1420
vn -0.7139 0.6857 -0.1420
vn -0.6725 -0.6857 -0.2785
vn -0.6725 0.6857 -0.2785
vn -0.6052 -0.6857 -0.4044
vn -0.6052 0.6857 -0.4044
vn -0.5147 -0.6857 -0.5147
vn -0.5147 0.6857 -0.5147
vn -0.4044 -0.6857 -0.6052
vn -0.4044 0.6857 -0.6052
vn -0.2785 -0.6857 -0.6725
vn -0.2785 0.6857 -0.6725
vn -0.1420 -0.6857 -0.7139
vn -0.1420 0.6857 -0.7139
vn 0.1686 -0.5033 -0.8475
vn 0.0000 -0.5033 -0.8641
vn 0.3307 -0.5033 -0.7983
vn 0.4801 -0.5033 -0.7185
vn 0.6110 -0.5033 -0.6110
vn 0.7185 -0.5033 -0.4801
vn 0.7983 -0.5033 -0.3307
vn 0.8475 -0.5033 -0.1686
vn 0.8641 -0.5033 0.0000
vn 0.8475 -0.5033 0.1686
vn 0.7983 -0.5033 0.3307
vn 0.7185 -0.5033 0.4801
vn 0.6110 -0.5033 0.6110
vn 0.4801 -0.5033 0.7185
vn 0.3307 -0.5033 0.7983
vn 0.1686 -0.5033 0.8475
vn 0.0000 -0.5033 0.8641
vn -0.1686 -0.5033 0.8475
vn -0.3307 -0.5033 0.7983
vn -0.4801 -0.5033 0.7185
vn -0.6110 -0.5033 0.6110
vn -0.7185 -0.5033 0.4801
vn -0.7983 -0.5033 0.3307
vn -0.8475 -0.5033 0.1686
vn -0.8641 -0.5033 0.0000
vn -0.8475 -0.5033 -0.1686
vn -0.7983 -0.5033 -0.3307
vn -0.7185 -0.5033 -0.4801
vn -0.6110 -0.5033 -0.6110
vn -0.4801 -0.5033 -0.7185
vn -0.3307 -0.5033 -0.7983
vn -0.1686 -0.5033 -0.8475
usemtl Material.003
s 1
f 107//7 43//8 44//9
f 108//10 76//11 75//12
f 107//7 44//9 45//13
f 108//10 77//14 76//11
f 107//7 45//13 46//15
f 108//10 78//16 77//14
f 107//7 46//15 47//17
f 108//10 79//18 78//16
f 107//7 47//17 48//19
f 108//10 80//20 79//18
f 107//7 48//19 49//21
f 108//10 81//22 80//20
f 107//7 49//21 50//23
f 108//10 82//24 81//22
f 107//7 50//23 51//25
f 108//10 83//26 82//24
f 107//7 51//25 52//27
f 108//10 84//28 83//26
f 107//7 52//27 53//29
f 108//10 85//30 84//28
f 107//7 53//29 54//31
f 108//10 86//32 85//30
f 107//7 54//31 55//33
f 108//10 87//34 86//32
f 107//7 55//33 56//35
f 108//10 88//36 87//34
f 107//7 56//35 57//37
f 108//10 89//38 88//36
f 107//7 57//37 58//39
f 108//10 90//40 89//38
f 107//7 58//39 59//41
f 108//10 91//42 90//40
f 107//7 59//41 60//43
f 108//10 92//44 91//42
f 107//7 60//43 61//45
f 108//10 93//46 92//44
f 107//7 61//45 62//47
f 108//10 94//48 93//46
f 107//7 62//47 63//49
f 108//10 95//50 94//48
f 107//7 63//49 64//51
f 108//10 96//52 95//50
f 107//7 64//51 65//53
f 108//10 97//54 96//52
f 107//7 65//53 66//55
f 108//10 98//56 97//54
f 107//7 66//55 67//57
f 108//10 99//58 98//56
f 107//7 67//57 68//59
f 108//10 100//60 99//58
f 107//7 68//59 69//61
f 108//10 101//62 100//60
f 107//7 69//61 70//63
f 108//10 102//64 101//62
f 107//7 70//63 71//65
f 108//10 103//66 102//64
f 107//7 71//65 72//67
f 108//10 104//68 103//66
f 107//7 72//67 73//69
f 108//10 105//70 104//68
f 107//7 73//69 74//71
f 108//10 106//72 105//70
f 74//71 43//8 107//7
f 108//10 75//12 106//72
f 43//8 75//12 76//11 44//9
f 44//9 76//11 77//14 45//13
f 45//13 77//14 78//16 46//15
f 46//15 78//16 79//18 47//17
f 47//17 79//18 80//20 48//19
f 48//19 80//20 81//22 49//21
f 49//21 81//22 82//24 50//23
f 50//23 82//24 83//26 51//25
f 51//25 83//26 84//28 52//27
f 52//27 84//28 85//30 53//29
f 53//29 85//30 86//32 54//31
f 54//31 86//32 87//34 55//33
f 55//33 87//34 88//36 56//35
f 56//35 88//36 89//38 57//37
f 57//37 89//38 90//40 58//39
f 58//39 90//40 91//42 59//41
f 59//41 91//42 92//44 60//43
f 60//43 92//44 93//46 61//45
f 61//45 93//46 94//48 62//47
f 62//47 94//48 95//50 63//49
f 63//49 95//50 96//52 64//51
f 64//51 96//52 97//54 65//53
f 65//53 97//54 98//56 66//55
f 66//55 98//56 99//58 67//57
f 67//57 99//58 100//60 68//59
f 68//59 100//60 101//62 69//61
f 69//61 101//62 102//64 70//63
f 70//63 102//64 103//66 71//65
f 71//65 103//66 104//68 72//67
f 72//67 104//68 105//70 73//69
f 73//69 105//70 106//72 74//71
f 75//12 43//8 74//71 106//72
usemtl Material.004
f 10//73 9//74 41//10
f 41//10 11//75 10//73
f 41//10 12//76 11//75
f 41//10 13//77 12//76
f 41//10 14//78 13//77
f 41//10 15//79 14//78
f 41//10 16//80 15//79
f 41//10 17//81 16//80
f 41//10 18//82 17//81
f 41//10 19//83 18//82
f 41//10 20//84 19//83
f 41//10 21//85 20//84
f 41//10 22//86 21//85
f 41//10 23//87 22//86
f 41//10 24//88 23//87
f 41//10 25//89 24//88
f 41//10 26//90 25//89
f 41//10 27//91 26//90
f 41//10 28//92 27//91
f 41//10 29//93 28//92
f 41//10 30//94 29//93
f 41//10 31//95 30//94
f 41//10 32//96 31//95
f 41//10 33//97 32//96
f 41//10 34//98 33//97
f 41//10 35//99 34//98
f 41//10 36//100 35//99
f 41//10 37//101 36//100
f 41//10 38//102 37//101
f 41//10 39//103 38//102
f 41//10 40//104 39//103
f 41//10 9//74 40//104
f 42//7 9//74 10//73
f 42//7 10//73 11//75
f 42//7 11//75 12//76
f 42//7 12//76 13//77
f 42//7 13//77 14//78
f 42//7 14//78 15//79
f 42//7 15//79 16//80
f 42//7 16//80 17//81
f 42//7 17//81 18//82
f 42//7 18//82 19//83
f 42//7 19//83 20//84
f 42//7 20//84 21//85
f 42//7 21//85 22//86
f 42//7 22//86 23//87
f 42//7 23//87 24//88
f 42//7 24//88 25//89
f 42//7 25//89 26//90
f 42//7 26//90 27//91
f 42//7 27//91 28//92
f 42//7 28//92 29//93
f 42//7 29//93 30//94
f 42//7 30//94 31//95
f 42//7 31//95 32//96
f 42//7 32//96 33//97
f 42//7 33//97 34//98
f 42//7 34//98 35//99
f 42//7 35//99 36//100
f 42//7 36//100 37//101
f 42//7 37//101 38//102
f 42//7 38//102 39//103
f 42//7 39//103 40//104
f 40//104 9//74 42//7
l 9 41
l 9 10
l 10 41
l 10 11
l 11 41
l 11 12
l 12 41
l 12 13
l 13 41
l 13 14
l 14 41
l 14 15
l 15 41
l 15 16
l 16 41
l 16 17
l 17 41
l 17 18
l 18 41
l 18 19
l 19 41
l 19 20
l 20 41
l 20 21
l 21 41
l 21 22
l 22 41
l 22 23
l 23 41
l 23 24
l 24 41
l 24 25
l 25 41
l 25 26
l 26 41
l 26 27
l 27 41
l 27 28
l 28 41
l 28 29
l 29 41
l 29 30
l 30 41
l 30 31
l 31 41
l 31 32
l 32 41
l 32 33
l 33 41
l 33 34
l 34 41
l 34 35
l 35 41
l 35 36
l 36 41
l 36 37
l 37 41
l 37 38
l 38 41
l 38 39
l 39 41
l 39 40
l 40 41
l 9 40
l 10 42
l 9 42
l 11 42
l 12 42
l 13 42
l 14 42
l 15 42
l 16 42
l 17 42
l 18 42
l 19 42
l 20 42
l 21 42
l 22 42
l 23 42
l 24 42
l 25 42
l 26 42
l 27 42
l 28 42
l 29 42
l 30 42
l 31 42
l 32 42
l 33 42
l 34 42
l 35 42
l 36 42
l 37 42
l 38 42
l 39 42
l 40 42
l 43 107
l 43 44
l 44 107
l 75 108
l 75 76
l 76 108
l 44 45
l 45 107
l 76 77
l 77 108
l 45 46
l 46 107
l 77 78
l 78 108
l 46 47
l 47 107
l 78 79
l 79 108
l 47 48
l 48 107
l 79 80
l 80 108
l 48 49
l 49 107
l 80 81
l 81 108
l 49 50
l 50 107
l 81 82
l 82 108
l 50 51
l 51 107
l 82 83
l 83 108
l 51 52
l 52 107
l 83 84
l 84 108
l 52 53
l 53 107
l 84 85
l 85 108
l 53 54
l 54 107
l 85 86
l 86 108
l 54 55
l 55 107
l 86 87
l 87 108
l 55 56
l 56 107
l 87 88
l 88 108
l 56 57
l 57 107
l 88 89
l 89 108
l 57 58
l 58 107
l 89 90
l 90 108
l 58 59
l 59 107
l 90 91
l 91 108
l 59 60
l 60 107
l 91 92
l 92 108
l 60 61
l 61 107
l 92 93
l 93 108
l 61 62
l 62 107
l 93 94
l 94 108
l 62 63
l 63 107
l 94 95
l 95 108
l 63 64
l 64 107
l 95 96
l 96 108
l 64 65
l 65 107
l 96 97
l 97 108
l 65 66
l 66 107
l 97 98
l 98 108
l 66 67
l 67 107
l 98 99
l 99 108
l 67 68
l 68 107
l 99 100
l 100 108
l 68 69
l 69 107
l 100 101
l 101 108
l 69 70
l 70 107
l 101 102
l 102 108
l 70 71
l 71 107
l 102 103
l 103 108
l 71 72
l 72 107
l 103 104
l 104 108
l 72 73
l 73 107
l 104 105
l 105 108
l 73 74
l 74 107
l 105 106
l 106 108
l 43 74
l 75 106
l 44 76
l 43 75
l 45 77
l 46 78
l 47 79
l 48 80
l 49 81
l 50 82
l 51 83
l 52 84
l 53 85
l 54 86
l 55 87
l 56 88
l 57 89
l 58 90
l 59 91
l 60 92
l 61 93
l 62 94
l 63 95
l 64 96
l 65 97
l 66 98
l 67 99
l 68 100
l 69 101
l 70 102
l 71 103
l 72 104
l 73 105
l 74 106
o colonna_Cube.001
v 0.025000 0.010000 -0.025000
v 0.025000 0.010000 0.025000
v -0.025000 0.010000 0.025000
v -0.025000 0.010000 -0.025000
v 0.025000 0.310000 -0.025000
v 0.025000 0.310000 0.025000
v -0.025000 0.310000 0.025000
v -0.025000 0.310000 -0.025000
vn 0.0000 -1.0000 -0.0000
vn 0.0000 1.0000 0.0000
vn 1.0000 0.0000 0.0000
vn -0.0000 -0.0000 1.0000
vn -1.0000 -0.0000 -0.0000
vn 0.0000 0.0000 -1.0000
usemtl Material.002
s off
f 109//105 110//105 111//105 112//105
f 113//106 116//106 115//106 114//106
f 109//107 113//107 114//107 110//107
f 110//108 114//108 115//108 111//108
f 111//109 115//109 116//109 112//109
f 113//110 109//110 112//110 116//110
l 110 111
l 109 110
l 109 112
l 112 111
l 113 114
l 115 114
l 116 115
l 116 113
l 110 114
l 109 113
l 111 115
l 116 112
o base_sup_Cube
v 0.050000 0.310000 -0.050000
v 0.050000 0.310000 0.050000
v -0.050000 0.310000 0.050000
v -0.050000 0.310000 -0.050000
v 0.050000 0.330000 -0.050000
v 0.050000 0.330000 0.050000
v -0.050000 0.330000 0.050000
v -0.050000 0.330000 -0.050000
vn 0.0000 -1.0000 0.0000
vn 0.0000 1.0000 0.0000
vn 1.0000 0.0000 0.0000
vn -0.0000 -0.0000 1.0000
vn -1.0000 -0.0000 -0.0000
vn 0.0000 0.0000 -1.0000
usemtl Material
s off
f 117//111 118//111 119//111 120//111
f 121//112 124//112 123//112 122//112
f 117//113 121//113 122//113 118//113
f 118//114 122//114 123//114 119//114
f 119//115 123//115 124//115 120//115
f 121//116 117//116 120//116 124//116
l 117 118
l 117 120
l 117 121
l 118 119
l 118 122
l 119 120
l 119 123
l 120 124
l 121 122
l 121 124
l 122 123
l 123 124
