# Blender v2.90.0 OBJ File: 'shapes3D.blend'
# www.blender.org
mtllib shapes3D.mtl
o Cylinder.003
v 0.220000 0.000000 -0.110000
v 0.220000 0.000000 -0.010000
v 0.215000 0.000000 -0.015000
v 0.120000 0.000000 -0.010000
v 0.215000 0.000000 -0.105000
v 0.120000 0.000000 -0.110000
v 0.125000 0.000000 -0.015000
v 0.125000 0.000000 -0.105000
v 0.120000 0.005000 -0.110000
v 0.220000 0.005000 -0.110000
v 0.220000 0.005000 -0.010000
v 0.120000 0.005000 -0.010000
v 0.125000 0.005000 -0.015000
v 0.125000 0.005000 -0.105000
v 0.215000 0.005000 -0.015000
v 0.215000 0.005000 -0.105000
v 0.060000 0.000000 -0.110000
v 0.069755 0.000000 -0.109039
v 0.079134 0.000000 -0.106194
v 0.087779 0.000000 -0.101573
v 0.095355 0.000000 -0.095355
v 0.101573 0.000000 -0.087779
v 0.106194 0.000000 -0.079134
v 0.109039 0.000000 -0.069755
v 0.110000 0.000000 -0.060000
v 0.109039 0.000000 -0.050245
v 0.106194 0.000000 -0.040866
v 0.101573 0.000000 -0.032221
v 0.095355 0.000000 -0.024645
v 0.087779 0.000000 -0.018427
v 0.079134 0.000000 -0.013806
v 0.069755 0.000000 -0.010961
v 0.060000 0.000000 -0.010000
v 0.050245 0.000000 -0.010961
v 0.040866 0.000000 -0.013806
v 0.032221 0.000000 -0.018427
v 0.024645 0.000000 -0.024645
v 0.018426 0.000000 -0.032222
v 0.013806 0.000000 -0.040866
v 0.010961 0.000000 -0.050246
v 0.010000 0.000000 -0.060000
v 0.010961 0.000000 -0.069755
v 0.013806 0.000000 -0.079134
v 0.018427 0.000000 -0.087779
v 0.024645 0.000000 -0.095355
v 0.032222 0.000000 -0.101574
v 0.040866 0.000000 -0.106194
v 0.050246 0.000000 -0.109039
v 0.060000 0.005000 -0.110000
v 0.069755 0.005000 -0.109039
v 0.079134 0.005000 -0.106194
v 0.087779 0.005000 -0.101573
v 0.095355 0.005000 -0.095355
v 0.101574 0.005000 -0.087778
v 0.106194 0.005000 -0.079134
v 0.109039 0.005000 -0.069754
v 0.110000 0.005000 -0.060000
v 0.109039 0.005000 -0.050245
v 0.106194 0.005000 -0.040866
v 0.101573 0.005000 -0.032221
v 0.095355 0.005000 -0.024645
v 0.087778 0.005000 -0.018427
v 0.079134 0.005000 -0.013806
v 0.069755 0.005000 -0.010961
v 0.060000 0.005000 -0.010000
v 0.050246 0.005000 -0.010961
v 0.040866 0.005000 -0.013806
v 0.032222 0.005000 -0.018426
v 0.024645 0.005000 -0.024645
v 0.018427 0.005000 -0.032221
v 0.013806 0.005000 -0.040866
v 0.010961 0.005000 -0.050245
v 0.010000 0.005000 -0.060000
v 0.010961 0.005000 -0.069754
v 0.013806 0.005000 -0.079134
v 0.018426 0.005000 -0.087778
v 0.024644 0.005000 -0.095355
v 0.032221 0.005000 -0.101573
v 0.040866 0.005000 -0.106194
v 0.050245 0.005000 -0.109039
v 0.092833 0.000000 -0.165000
v 0.012833 0.000000 -0.115000
v 0.012833 0.000000 -0.215000
v 0.092833 0.005000 -0.165000
v 0.012833 0.005000 -0.115000
v 0.012833 0.005000 -0.215000
v 0.212020 0.000000 -0.191903
v 0.190806 0.000000 -0.121192
v 0.120096 0.000000 -0.121192
v 0.120096 0.000000 -0.191903
v 0.212020 0.005000 -0.191903
v 0.190806 0.005000 -0.121192
v 0.120096 0.005000 -0.121192
v 0.120096 0.005000 -0.191903
v 0.105635 0.000000 -0.300677
v 0.141832 0.000000 -0.249214
v 0.105034 0.000000 -0.196014
v 0.046095 0.000000 -0.214597
v 0.046466 0.000000 -0.279283
v 0.105635 0.005000 -0.300677
v 0.141832 0.005000 -0.249214
v 0.105034 0.005000 -0.196014
v 0.046095 0.005000 -0.214597
v 0.046466 0.005000 -0.279283
v 0.216911 0.000145 -0.106781
v 0.216991 0.000144 -0.013136
v 0.216543 0.000227 -0.013392
v 0.123089 0.000145 -0.013219
v 0.216642 0.000225 -0.106711
v 0.123009 0.000144 -0.106865
v 0.123358 0.000225 -0.013289
v 0.123457 0.000227 -0.106608
v 0.123009 0.004856 -0.106864
v 0.216911 0.004855 -0.106781
v 0.216991 0.004856 -0.013135
v 0.123089 0.004855 -0.013219
v 0.123358 0.004775 -0.013289
v 0.123457 0.004773 -0.106608
v 0.216543 0.004773 -0.013392
v 0.216642 0.004775 -0.106711
v 0.059849 0.000000 -0.104496
v 0.068621 0.000000 -0.103632
v 0.077062 0.000000 -0.101071
v 0.084836 0.000000 -0.096916
v 0.091640 0.000000 -0.091333
v 0.097209 0.000000 -0.084549
v 0.101334 0.000000 -0.076834
v 0.103865 0.000000 -0.068492
v 0.104718 0.000000 -0.059843
v 0.103869 0.000000 -0.051214
v 0.101353 0.000000 -0.042922
v 0.097266 0.000000 -0.035276
v 0.091754 0.000000 -0.028561
v 0.085017 0.000000 -0.023033
v 0.077304 0.000000 -0.018912
v 0.068907 0.000000 -0.016365
v 0.060151 0.000000 -0.015504
v 0.051379 0.000000 -0.016368
v 0.042938 0.000000 -0.018929
v 0.035164 0.000000 -0.023084
v 0.028360 0.000000 -0.028667
v 0.022791 0.000000 -0.035451
v 0.018666 0.000000 -0.043166
v 0.016135 0.000000 -0.051508
v 0.015282 0.000000 -0.060157
v 0.016132 0.000000 -0.068787
v 0.018647 0.000000 -0.077078
v 0.022734 0.000000 -0.084724
v 0.028246 0.000000 -0.091439
v 0.034983 0.000000 -0.096967
v 0.042696 0.000000 -0.101088
v 0.051093 0.000000 -0.103634
v 0.059849 0.005000 -0.104496
v 0.068621 0.005000 -0.103632
v 0.077062 0.005000 -0.101071
v 0.084836 0.005000 -0.096916
v 0.091640 0.005000 -0.091333
v 0.097209 0.005000 -0.084549
v 0.101334 0.005000 -0.076834
v 0.103865 0.005000 -0.068492
v 0.104718 0.005000 -0.059843
v 0.103869 0.005000 -0.051213
v 0.101353 0.005000 -0.042922
v 0.097266 0.005000 -0.035276
v 0.091754 0.005000 -0.028561
v 0.085017 0.005000 -0.023033
v 0.077304 0.005000 -0.018912
v 0.068907 0.005000 -0.016366
v 0.060151 0.005000 -0.015504
v 0.051379 0.005000 -0.016368
v 0.042938 0.005000 -0.018928
v 0.035164 0.005000 -0.023084
v 0.028360 0.005000 -0.028667
v 0.022791 0.005000 -0.035451
v 0.018666 0.005000 -0.043166
v 0.016135 0.005000 -0.051508
v 0.015282 0.005000 -0.060157
v 0.016131 0.005000 -0.068786
v 0.018646 0.005000 -0.077077
v 0.022734 0.005000 -0.084723
v 0.028246 0.005000 -0.091439
v 0.034983 0.005000 -0.096967
v 0.042696 0.005000 -0.101088
v 0.051093 0.005000 -0.103634
v 0.087553 0.000000 -0.164958
v 0.015485 0.000000 -0.119838
v 0.015387 0.000000 -0.210261
v 0.087553 0.005000 -0.164958
v 0.015485 0.005000 -0.119838
v 0.015387 0.005000 -0.210261
v 0.207715 0.000000 -0.188584
v 0.187745 0.000000 -0.125583
v 0.123884 0.000000 -0.125139
v 0.123776 0.000000 -0.188067
v 0.207715 0.005000 -0.188584
v 0.187745 0.005000 -0.125583
v 0.123884 0.005000 -0.125139
v 0.123776 0.005000 -0.188067
v 0.103973 0.000000 -0.295405
v 0.136550 0.000000 -0.249088
v 0.103432 0.000000 -0.201208
v 0.050386 0.000000 -0.217933
v 0.050721 0.000000 -0.276150
v 0.103973 0.005000 -0.295405
v 0.136550 0.005000 -0.249088
v 0.103432 0.005000 -0.201208
v 0.050386 0.005000 -0.217933
v 0.050721 0.005000 -0.276150
vn 0.8179 0.0000 -0.5753
vn 0.8224 -0.0000 0.5689
vn -0.3007 0.0000 0.9537
vn -1.0000 0.0000 -0.0057
vn -0.3400 -0.0000 -0.9404
vn -0.8179 0.0000 0.5753
vn -0.8224 0.0000 -0.5689
vn 0.3007 -0.0000 -0.9537
vn 1.0000 -0.0000 0.0057
vn 0.3400 0.0000 0.9404
vn 0.0000 -1.0000 0.0000
vn 0.0000 1.0000 0.0000
vn 0.0980 -0.0000 -0.9952
vn 0.2903 -0.0000 -0.9569
vn 0.4714 -0.0000 -0.8819
vn 0.6344 -0.0000 -0.7730
vn 0.7730 0.0000 -0.6344
vn 0.8819 0.0000 -0.4714
vn 0.9569 0.0000 -0.2903
vn 0.9952 0.0000 -0.0980
vn 0.9952 0.0000 0.0980
vn 0.9569 -0.0000 0.2903
vn 0.8819 0.0000 0.4714
vn 0.7730 0.0000 0.6344
vn 0.6344 0.0000 0.7730
vn 0.4714 0.0000 0.8819
vn 0.2903 0.0000 0.9569
vn 0.0980 -0.0000 0.9952
vn -0.0980 -0.0000 0.9952
vn -0.2903 -0.0000 0.9569
vn -0.4714 -0.0000 0.8819
vn -0.6344 0.0000 0.7730
vn -0.7730 0.0000 0.6344
vn -0.8819 0.0000 0.4714
vn -0.9569 -0.0000 0.2903
vn -0.9952 -0.0000 0.0980
vn -0.9952 -0.0000 -0.0980
vn -0.9569 0.0000 -0.2903
vn -0.8819 -0.0000 -0.4714
vn -0.7730 -0.0000 -0.6344
vn -0.6344 -0.0000 -0.7730
vn -0.4714 -0.0000 -0.8819
vn -0.2903 -0.0000 -0.9569
vn -0.0980 0.0000 -0.9952
vn -0.0981 0.0000 0.9952
vn -0.6343 0.0000 0.7731
vn -0.7729 -0.0000 0.6345
vn -0.8819 -0.0000 0.4715
vn -0.9569 0.0000 0.2904
vn -0.9952 -0.0000 0.0981
vn -0.7730 -0.0000 -0.6345
vn -0.6343 0.0000 -0.7731
vn -0.4713 -0.0000 -0.8820
vn -0.2902 0.0000 -0.9570
vn -0.0979 0.0000 -0.9952
vn 0.0981 0.0000 -0.9952
vn 0.6343 -0.0000 -0.7731
vn 0.7729 -0.0000 -0.6345
vn 0.8819 -0.0000 -0.4715
vn 0.9569 0.0000 -0.2904
vn 0.9952 0.0000 -0.0981
vn 0.7730 0.0000 0.6345
vn 0.6343 0.0000 0.7731
vn 0.4713 0.0000 0.8820
vn 0.2902 0.0000 0.9570
vn 0.0979 -0.0000 0.9952
vn 1.0000 -0.0000 0.0000
vn -0.0000 -0.0000 1.0000
vn -1.0000 -0.0000 -0.0000
vn 0.0000 0.0000 -1.0000
vn -0.2226 0.9749 -0.0000
vn -0.0000 0.8941 -0.4478
vn 0.0000 0.8941 0.4479
vn 0.2226 0.9749 0.0000
vn 0.2226 -0.9749 0.0000
vn -0.0000 -0.8941 -0.4479
vn 0.0000 -0.8941 0.4479
vn -0.2226 -0.9749 -0.0000
vn -1.0000 0.0000 0.0009
vn 0.0009 0.0000 -1.0000
vn 1.0000 0.0000 -0.0009
vn -0.0009 -0.0000 1.0000
vn 1.0000 0.0000 0.0011
vn 0.0011 -0.0000 1.0000
vn -1.0000 -0.0000 -0.0011
vn -0.0011 0.0000 -1.0000
vn 0.5300 0.0000 0.8480
vn 0.5300 -0.0000 -0.8480
vn -0.5307 -0.0000 -0.8476
vn 1.0000 0.0000 -0.0011
vn -0.5317 0.0000 0.8469
vn 0.9578 0.0000 0.2873
vn -0.9533 0.0000 -0.3022
vn -0.0069 0.0000 -1.0000
vn 1.0000 0.0000 -0.0017
vn 0.0062 -0.0000 1.0000
usemtl Material.004
s off
f 95//1 100//1 101//1 96//1
f 96//2 101//2 102//2 97//2
f 97//3 102//3 103//3 98//3
f 98//4 103//4 104//4 99//4
f 100//5 95//5 99//5 104//5
f 199//6 200//6 205//6 204//6
f 200//7 201//7 206//7 205//7
f 201//8 202//8 207//8 206//8
f 202//9 203//9 208//9 207//9
f 204//10 208//10 203//10 199//10
f 95//11 96//11 200//11 199//11
f 101//12 100//12 204//12 205//12
f 96//11 97//11 201//11 200//11
f 102//12 101//12 205//12 206//12
f 97//11 98//11 202//11 201//11
f 103//12 102//12 206//12 207//12
f 98//11 99//11 203//11 202//11
f 104//12 103//12 207//12 208//12
f 99//11 95//11 199//11 203//11
f 100//12 104//12 208//12 204//12
usemtl Material.001
f 17//13 49//13 50//13 18//13
f 18//14 50//14 51//14 19//14
f 19//15 51//15 52//15 20//15
f 20//16 52//16 53//16 21//16
f 21//17 53//17 54//17 22//17
f 22//18 54//18 55//18 23//18
f 23//19 55//19 56//19 24//19
f 24//20 56//20 57//20 25//20
f 25//21 57//21 58//21 26//21
f 26//22 58//22 59//22 27//22
f 27//23 59//23 60//23 28//23
f 28//24 60//24 61//24 29//24
f 29//25 61//25 62//25 30//25
f 30//26 62//26 63//26 31//26
f 31//27 63//27 64//27 32//27
f 32//28 64//28 65//28 33//28
f 33//29 65//29 66//29 34//29
f 34//30 66//30 67//30 35//30
f 35//31 67//31 68//31 36//31
f 36//32 68//32 69//32 37//32
f 37//33 69//33 70//33 38//33
f 38//34 70//34 71//34 39//34
f 39//35 71//35 72//35 40//35
f 40//36 72//36 73//36 41//36
f 41//37 73//37 74//37 42//37
f 42//38 74//38 75//38 43//38
f 43//39 75//39 76//39 44//39
f 44//40 76//40 77//40 45//40
f 45//41 77//41 78//41 46//41
f 46//42 78//42 79//42 47//42
f 47//43 79//43 80//43 48//43
f 49//44 17//44 48//44 80//44
f 121//45 122//45 154//45 153//45
f 122//30 123//30 155//30 154//30
f 123//31 124//31 156//31 155//31
f 124//46 125//46 157//46 156//46
f 125//47 126//47 158//47 157//47
f 126//48 127//48 159//48 158//48
f 127//49 128//49 160//49 159//49
f 128//50 129//50 161//50 160//50
f 129//37 130//37 162//37 161//37
f 130//38 131//38 163//38 162//38
f 131//39 132//39 164//39 163//39
f 132//51 133//51 165//51 164//51
f 133//52 134//52 166//52 165//52
f 134//53 135//53 167//53 166//53
f 135//54 136//54 168//54 167//54
f 136//55 137//55 169//55 168//55
f 137//56 138//56 170//56 169//56
f 138//14 139//14 171//14 170//14
f 139//15 140//15 172//15 171//15
f 140//57 141//57 173//57 172//57
f 141//58 142//58 174//58 173//58
f 142//59 143//59 175//59 174//59
f 143//60 144//60 176//60 175//60
f 144//61 145//61 177//61 176//61
f 145//21 146//21 178//21 177//21
f 146//22 147//22 179//22 178//22
f 147//23 148//23 180//23 179//23
f 148//62 149//62 181//62 180//62
f 149//63 150//63 182//63 181//63
f 150//64 151//64 183//64 182//64
f 151//65 152//65 184//65 183//65
f 153//66 184//66 152//66 121//66
f 17//11 18//11 122//11 121//11
f 50//12 49//12 153//12 154//12
f 18//11 19//11 123//11 122//11
f 51//12 50//12 154//12 155//12
f 19//11 20//11 124//11 123//11
f 52//12 51//12 155//12 156//12
f 20//11 21//11 125//11 124//11
f 53//12 52//12 156//12 157//12
f 21//11 22//11 126//11 125//11
f 54//12 53//12 157//12 158//12
f 22//11 23//11 127//11 126//11
f 55//12 54//12 158//12 159//12
f 23//11 24//11 128//11 127//11
f 56//12 55//12 159//12 160//12
f 24//11 25//11 129//11 128//11
f 57//12 56//12 160//12 161//12
f 25//11 26//11 130//11 129//11
f 58//12 57//12 161//12 162//12
f 26//11 27//11 131//11 130//11
f 59//12 58//12 162//12 163//12
f 27//11 28//11 132//11 131//11
f 60//12 59//12 163//12 164//12
f 28//11 29//11 133//11 132//11
f 61//12 60//12 164//12 165//12
f 29//11 30//11 134//11 133//11
f 62//12 61//12 165//12 166//12
f 30//11 31//11 135//11 134//11
f 63//12 62//12 166//12 167//12
f 31//11 32//11 136//11 135//11
f 64//12 63//12 167//12 168//12
f 32//11 33//11 137//11 136//11
f 65//12 64//12 168//12 169//12
f 33//11 34//11 138//11 137//11
f 66//12 65//12 169//12 170//12
f 34//11 35//11 139//11 138//11
f 67//12 66//12 170//12 171//12
f 35//11 36//11 140//11 139//11
f 68//12 67//12 171//12 172//12
f 36//11 37//11 141//11 140//11
f 69//12 68//12 172//12 173//12
f 37//11 38//11 142//11 141//11
f 70//12 69//12 173//12 174//12
f 38//11 39//11 143//11 142//11
f 71//12 70//12 174//12 175//12
f 39//11 40//11 144//11 143//11
f 72//12 71//12 175//12 176//12
f 40//11 41//11 145//11 144//11
f 73//12 72//12 176//12 177//12
f 41//11 42//11 146//11 145//11
f 74//12 73//12 177//12 178//12
f 42//11 43//11 147//11 146//11
f 75//12 74//12 178//12 179//12
f 43//11 44//11 148//11 147//11
f 76//12 75//12 179//12 180//12
f 44//11 45//11 149//11 148//11
f 77//12 76//12 180//12 181//12
f 45//11 46//11 150//11 149//11
f 78//12 77//12 181//12 182//12
f 46//11 47//11 151//11 150//11
f 79//12 78//12 182//12 183//12
f 47//11 48//11 152//11 151//11
f 80//12 79//12 183//12 184//12
f 48//11 17//11 121//11 152//11
f 49//12 80//12 184//12 153//12
usemtl Material
f 7//11 4//11 6//11 8//11
f 6//11 1//11 5//11 8//11
f 3//11 2//11 4//11 7//11
f 1//11 2//11 3//11 5//11
f 10//12 16//12 15//12 11//12
f 10//12 9//12 14//12 16//12
f 13//12 12//12 11//12 15//12
f 9//12 12//12 13//12 14//12
f 2//67 1//67 10//67 11//67
f 11//68 12//68 4//68 2//68
f 4//69 12//69 9//69 6//69
f 1//70 6//70 9//70 10//70
f 3//69 15//69 16//69 5//69
f 7//70 13//70 15//70 3//70
f 7//67 8//67 14//67 13//67
f 14//68 8//68 5//68 16//68
f 111//71 112//71 110//71 108//71
f 110//72 112//72 109//72 105//72
f 107//73 111//73 108//73 106//73
f 105//74 109//74 107//74 106//74
f 114//75 115//75 119//75 120//75
f 114//76 120//76 118//76 113//76
f 117//77 119//77 115//77 116//77
f 113//78 118//78 117//78 116//78
f 106//79 115//79 114//79 105//79
f 115//80 106//80 108//80 116//80
f 108//81 110//81 113//81 116//81
f 105//82 114//82 113//82 110//82
f 107//83 109//83 120//83 119//83
f 111//84 107//84 119//84 117//84
f 111//85 117//85 118//85 112//85
f 118//86 120//86 109//86 112//86
usemtl Material.002
f 81//87 84//87 85//87 82//87
f 82//69 85//69 86//69 83//69
f 84//88 81//88 83//88 86//88
f 185//89 186//89 189//89 188//89
f 186//90 187//90 190//90 189//90
f 188//91 190//91 187//91 185//91
f 81//11 82//11 186//11 185//11
f 85//12 84//12 188//12 189//12
f 82//11 83//11 187//11 186//11
f 86//12 85//12 189//12 190//12
f 83//11 81//11 185//11 187//11
f 84//12 86//12 190//12 188//12
usemtl Material.003
f 87//92 91//92 92//92 88//92
f 88//68 92//68 93//68 89//68
f 89//69 93//69 94//69 90//69
f 91//70 87//70 90//70 94//70
f 191//93 192//93 196//93 195//93
f 192//94 193//94 197//94 196//94
f 193//95 194//95 198//95 197//95
f 195//96 198//96 194//96 191//96
f 87//11 88//11 192//11 191//11
f 92//12 91//12 195//12 196//12
f 88//11 89//11 193//11 192//11
f 93//12 92//12 196//12 197//12
f 89//11 90//11 194//11 193//11
f 94//12 93//12 197//12 198//12
f 90//11 87//11 191//11 194//11
f 91//12 94//12 198//12 195//12
l 2 4
l 1 6
l 3 15
l 4 12
l 11 12
l 3 7
l 5 16
l 13 15
l 9 10
l 5 8
l 1 5
l 2 3
l 6 9
l 1 10
l 6 8
l 13 14
l 9 14
l 3 5
l 10 11
l 7 13
l 4 6
l 7 8
l 12 13
l 11 15
l 8 14
l 2 11
l 14 16
l 4 7
l 1 2
l 9 12
l 10 16
l 15 16
l 17 18
l 18 50
l 49 50
l 17 49
l 18 19
l 19 51
l 50 51
l 19 20
l 20 52
l 51 52
l 20 21
l 21 53
l 52 53
l 21 22
l 22 54
l 53 54
l 22 23
l 23 55
l 54 55
l 23 24
l 24 56
l 55 56
l 24 25
l 25 57
l 56 57
l 25 26
l 26 58
l 57 58
l 26 27
l 27 59
l 58 59
l 27 28
l 28 60
l 59 60
l 28 29
l 29 61
l 60 61
l 29 30
l 30 62
l 61 62
l 30 31
l 31 63
l 62 63
l 31 32
l 32 64
l 63 64
l 32 33
l 33 65
l 64 65
l 33 34
l 34 66
l 65 66
l 34 35
l 35 67
l 66 67
l 35 36
l 36 68
l 67 68
l 36 37
l 37 69
l 68 69
l 37 38
l 38 70
l 69 70
l 38 39
l 39 71
l 70 71
l 39 40
l 40 72
l 71 72
l 40 41
l 41 73
l 72 73
l 41 42
l 42 74
l 73 74
l 42 43
l 43 75
l 74 75
l 43 44
l 44 76
l 75 76
l 44 45
l 45 77
l 76 77
l 45 46
l 46 78
l 77 78
l 46 47
l 47 79
l 78 79
l 47 48
l 48 80
l 79 80
l 17 48
l 49 80
l 81 82
l 82 85
l 84 85
l 81 84
l 82 83
l 83 86
l 85 86
l 81 83
l 84 86
l 87 88
l 88 92
l 91 92
l 87 91
l 88 89
l 89 93
l 92 93
l 89 90
l 90 94
l 93 94
l 87 90
l 91 94
l 95 96
l 96 101
l 100 101
l 95 100
l 96 97
l 97 102
l 101 102
l 97 98
l 98 103
l 102 103
l 98 99
l 99 104
l 103 104
l 95 99
l 100 104
l 106 108
l 105 110
l 107 119
l 108 116
l 115 116
l 107 111
l 109 120
l 117 119
l 113 114
l 109 112
l 105 109
l 106 107
l 110 113
l 105 114
l 110 112
l 117 118
l 113 118
l 107 109
l 114 115
l 111 117
l 108 110
l 111 112
l 116 117
l 115 119
l 112 118
l 106 115
l 118 120
l 108 111
l 105 106
l 113 116
l 114 120
l 119 120
l 121 122
l 122 154
l 153 154
l 121 153
l 122 123
l 123 155
l 154 155
l 123 124
l 124 156
l 155 156
l 124 125
l 125 157
l 156 157
l 125 126
l 126 158
l 157 158
l 126 127
l 127 159
l 158 159
l 127 128
l 128 160
l 159 160
l 128 129
l 129 161
l 160 161
l 129 130
l 130 162
l 161 162
l 130 131
l 131 163
l 162 163
l 131 132
l 132 164
l 163 164
l 132 133
l 133 165
l 164 165
l 133 134
l 134 166
l 165 166
l 134 135
l 135 167
l 166 167
l 135 136
l 136 168
l 167 168
l 136 137
l 137 169
l 168 169
l 137 138
l 138 170
l 169 170
l 138 139
l 139 171
l 170 171
l 139 140
l 140 172
l 171 172
l 140 141
l 141 173
l 172 173
l 141 142
l 142 174
l 173 174
l 142 143
l 143 175
l 174 175
l 143 144
l 144 176
l 175 176
l 144 145
l 145 177
l 176 177
l 145 146
l 146 178
l 177 178
l 146 147
l 147 179
l 178 179
l 147 148
l 148 180
l 179 180
l 148 149
l 149 181
l 180 181
l 149 150
l 150 182
l 181 182
l 150 151
l 151 183
l 182 183
l 151 152
l 152 184
l 183 184
l 121 152
l 153 184
l 185 186
l 186 189
l 188 189
l 185 188
l 186 187
l 187 190
l 189 190
l 185 187
l 188 190
l 191 192
l 192 196
l 195 196
l 191 195
l 192 193
l 193 197
l 196 197
l 193 194
l 194 198
l 197 198
l 191 194
l 195 198
l 199 200
l 200 205
l 204 205
l 199 204
l 200 201
l 201 206
l 205 206
l 201 202
l 202 207
l 206 207
l 202 203
l 203 208
l 207 208
l 199 203
l 204 208
