# Blender v2.90.0 OBJ File: 'Xpos.blend'
# www.blender.org
mtllib Xpos.mtl
o Cylinder_Cylinder.001
v 0.000000 0.000000 -0.005000
v 0.000975 0.000000 -0.004904
v 0.001913 0.000000 -0.004619
v 0.002778 0.000000 -0.004157
v 0.003536 0.000000 -0.003536
v 0.004157 0.000000 -0.002778
v 0.004619 0.000000 -0.001913
v 0.004904 0.000000 -0.000975
v 0.005000 0.000000 -0.000000
v 0.004904 0.000000 0.000975
v 0.004619 0.000000 0.001913
v 0.004157 0.000000 0.002778
v 0.003536 0.000000 0.003536
v 0.002778 0.000000 0.004157
v 0.001913 0.000000 0.004619
v 0.000975 0.000000 0.004904
v -0.000000 0.000000 0.005000
v -0.000975 0.000000 0.004904
v -0.001913 0.000000 0.004619
v -0.002778 0.000000 0.004157
v -0.003536 0.000000 0.003536
v -0.004157 0.000000 0.002778
v -0.004619 0.000000 0.001913
v -0.004904 0.000000 0.000975
v -0.005000 0.000000 -0.000000
v -0.004904 0.000000 -0.000975
v -0.004619 0.000000 -0.001913
v -0.004157 0.000000 -0.002778
v -0.003536 0.000000 -0.003536
v -0.002778 0.000000 -0.004157
v -0.001913 0.000000 -0.004619
v -0.000975 0.000000 -0.004904
v 0.000000 20.000000 -0.005000
v 0.000975 20.000000 -0.004904
v 0.001913 20.000000 -0.004619
v 0.002778 20.000000 -0.004157
v 0.003536 20.000000 -0.003536
v 0.004157 20.000000 -0.002778
v 0.004619 20.000000 -0.001913
v 0.004904 20.000000 -0.000975
v 0.005000 20.000000 0.000000
v 0.004904 20.000000 0.000975
v 0.004619 20.000000 0.001913
v 0.004157 20.000000 0.002778
v 0.003536 20.000000 0.003536
v 0.002778 20.000000 0.004157
v 0.001913 20.000000 0.004619
v 0.000975 20.000000 0.004904
v 0.000000 20.000000 0.005000
v -0.000975 20.000000 0.004904
v -0.001913 20.000000 0.004619
v -0.002778 20.000000 0.004157
v -0.003536 20.000000 0.003536
v -0.004157 20.000000 0.002778
v -0.004619 20.000000 0.001913
v -0.004904 20.000000 0.000975
v -0.005000 20.000000 0.000000
v -0.004904 20.000000 -0.000975
v -0.004619 20.000000 -0.001913
v -0.004157 20.000000 -0.002778
v -0.003536 20.000000 -0.003536
v -0.002778 20.000000 -0.004157
v -0.001913 20.000000 -0.004619
v -0.000975 20.000000 -0.004904
v 0.000000 0.000000 0.000000
v 0.000000 20.000000 0.000000
vn 0.0000 -1.0000 0.0000
vn 0.0000 1.0000 -0.0008
vn 0.0000 1.0000 0.0000
vn 0.0000 1.0000 0.0008
vn 0.0000 1.0000 -0.0004
vn 0.0000 1.0000 -0.0015
vn 0.0000 1.0000 0.0015
vn 0.0000 1.0000 -0.0011
vn 0.0000 1.0000 0.0023
vn 0.0000 1.0000 -0.0031
vn 0.0000 1.0000 0.0019
vn 0.0980 -0.0000 -0.9952
vn 0.2903 -0.0000 -0.9569
vn 0.4714 -0.0000 -0.8819
vn 0.6344 -0.0000 -0.7730
vn 0.7730 -0.0000 -0.6344
vn 0.8819 -0.0000 -0.4714
vn 0.9569 -0.0000 -0.2903
vn 0.9952 0.0000 -0.0980
vn 0.9952 -0.0000 0.0980
vn 0.9569 0.0000 0.2903
vn 0.8819 0.0000 0.4714
vn 0.7730 0.0000 0.6344
vn 0.6344 -0.0000 0.7730
vn 0.4714 -0.0000 0.8819
vn 0.2903 -0.0000 0.9569
vn 0.0980 -0.0000 0.9952
vn -0.0980 0.0000 0.9952
vn -0.2903 -0.0000 0.9569
vn -0.4714 -0.0000 0.8819
vn -0.6344 0.0000 0.7730
vn -0.7730 0.0000 0.6344
vn -0.8819 -0.0000 0.4714
vn -0.9569 0.0000 0.2903
vn -0.9952 -0.0000 0.0980
vn -0.9952 -0.0000 -0.0980
vn -0.9569 -0.0000 -0.2903
vn -0.8819 -0.0000 -0.4714
vn -0.7730 -0.0000 -0.6344
vn -0.6344 -0.0000 -0.7730
vn -0.4714 -0.0000 -0.8819
vn -0.2903 -0.0000 -0.9569
vn -0.0980 0.0000 -0.9952
usemtl Material
s off
f 65//1 1//1 2//1
f 66//2 34//2 33//2
f 65//1 2//1 3//1
f 66//3 35//3 34//3
f 65//1 3//1 4//1
f 66//4 36//4 35//4
f 65//1 4//1 5//1
f 66//4 37//4 36//4
f 65//1 5//1 6//1
f 66//5 38//5 37//5
f 65//1 6//1 7//1
f 66//3 39//3 38//3
f 65//1 7//1 8//1
f 66//4 40//4 39//4
f 65//1 8//1 9//1
f 66//3 41//3 40//3
f 65//1 9//1 10//1
f 66//2 42//2 41//2
f 65//1 10//1 11//1
f 66//6 43//6 42//6
f 65//1 11//1 12//1
f 66//2 44//2 43//2
f 65//1 12//1 13//1
f 66//7 45//7 44//7
f 65//1 13//1 14//1
f 66//5 46//5 45//5
f 65//1 14//1 15//1
f 66//4 47//4 46//4
f 65//1 15//1 16//1
f 66//3 48//3 47//3
f 65//1 16//1 17//1
f 66//3 49//3 48//3
f 65//1 17//1 18//1
f 66//3 50//3 49//3
f 65//1 18//1 19//1
f 66//4 51//4 50//4
f 65//1 19//1 20//1
f 66//6 52//6 51//6
f 65//1 20//1 21//1
f 66//8 53//8 52//8
f 65//1 21//1 22//1
f 66//9 54//9 53//9
f 65//1 22//1 23//1
f 66//3 55//3 54//3
f 65//1 23//1 24//1
f 66//4 56//4 55//4
f 65//1 24//1 25//1
f 66//10 57//10 56//10
f 65//1 25//1 26//1
f 66//9 58//9 57//9
f 65//1 26//1 27//1
f 66//6 59//6 58//6
f 65//1 27//1 28//1
f 66//3 60//3 59//3
f 65//1 28//1 29//1
f 66//11 61//11 60//11
f 65//1 29//1 30//1
f 66//6 62//6 61//6
f 65//1 30//1 31//1
f 66//4 63//4 62//4
f 65//1 31//1 32//1
f 66//2 64//2 63//2
f 32//1 1//1 65//1
f 66//4 33//4 64//4
f 1//12 33//12 34//12 2//12
f 2//13 34//13 35//13 3//13
f 3//14 35//14 36//14 4//14
f 4//15 36//15 37//15 5//15
f 5//16 37//16 38//16 6//16
f 6//17 38//17 39//17 7//17
f 7//18 39//18 40//18 8//18
f 8//19 40//19 41//19 9//19
f 9//20 41//20 42//20 10//20
f 10//21 42//21 43//21 11//21
f 11//22 43//22 44//22 12//22
f 12//23 44//23 45//23 13//23
f 13//24 45//24 46//24 14//24
f 14//25 46//25 47//25 15//25
f 15//26 47//26 48//26 16//26
f 16//27 48//27 49//27 17//27
f 17//28 49//28 50//28 18//28
f 18//29 50//29 51//29 19//29
f 19//30 51//30 52//30 20//30
f 20//31 52//31 53//31 21//31
f 21//32 53//32 54//32 22//32
f 22//33 54//33 55//33 23//33
f 23//34 55//34 56//34 24//34
f 24//35 56//35 57//35 25//35
f 25//36 57//36 58//36 26//36
f 26//37 58//37 59//37 27//37
f 27//38 59//38 60//38 28//38
f 28//39 60//39 61//39 29//39
f 29//40 61//40 62//40 30//40
f 30//41 62//41 63//41 31//41
f 31//42 63//42 64//42 32//42
f 33//43 1//43 32//43 64//43
l 1 65
l 2 1
l 2 65
l 33 66
l 33 34
l 34 66
l 3 2
l 3 65
l 34 35
l 35 66
l 3 4
l 4 65
l 35 36
l 36 66
l 4 5
l 5 65
l 36 37
l 37 66
l 6 5
l 6 65
l 37 38
l 38 66
l 7 6
l 7 65
l 39 38
l 39 66
l 8 7
l 8 65
l 39 40
l 66 40
l 9 8
l 9 65
l 41 40
l 66 41
l 10 9
l 10 65
l 42 41
l 66 42
l 11 10
l 11 65
l 43 42
l 43 66
l 12 11
l 12 65
l 43 44
l 44 66
l 13 12
l 13 65
l 44 45
l 45 66
l 14 13
l 14 65
l 46 45
l 46 66
l 15 14
l 15 65
l 47 46
l 47 66
l 15 16
l 16 65
l 47 48
l 48 66
l 16 17
l 17 65
l 48 49
l 49 66
l 18 17
l 18 65
l 49 50
l 50 66
l 19 18
l 19 65
l 51 50
l 51 66
l 20 19
l 20 65
l 51 52
l 66 52
l 21 20
l 21 65
l 53 52
l 53 66
l 22 21
l 22 65
l 53 54
l 54 66
l 23 22
l 23 65
l 54 55
l 55 66
l 24 23
l 24 65
l 56 55
l 56 66
l 24 25
l 25 65
l 56 57
l 66 57
l 25 26
l 65 26
l 57 58
l 66 58
l 27 26
l 27 65
l 59 58
l 59 66
l 27 28
l 65 28
l 59 60
l 66 60
l 29 28
l 29 65
l 61 60
l 61 66
l 30 29
l 30 65
l 62 61
l 62 66
l 30 31
l 65 31
l 63 62
l 63 66
l 32 31
l 32 65
l 63 64
l 64 66
l 1 32
l 33 64
l 2 34
l 1 33
l 3 35
l 4 36
l 5 37
l 6 38
l 7 39
l 8 40
l 9 41
l 10 42
l 11 43
l 12 44
l 13 45
l 14 46
l 15 47
l 16 48
l 17 49
l 18 50
l 19 51
l 20 52
l 21 53
l 22 54
l 23 55
l 24 56
l 25 57
l 26 58
l 59 27
l 60 28
l 61 29
l 30 62
l 63 31
l 32 64
