# Blender v2.90.0 OBJ File: 'XYpos.blend'
# www.blender.org
mtllib XYpos.mtl
o Cube_Cube.001
v 0.000000 0.000000 0.000000
v 0.000000 0.002000 0.000000
v 0.000000 0.000000 -40.000000
v 0.000000 0.002000 -40.000000
v 40.000000 0.000000 0.000000
v 40.000000 0.002000 0.000000
v 40.000000 0.000000 -40.000000
v 40.000000 0.002000 -40.000000
vn -0.5773 0.5773 0.5773
vn -0.5773 0.5773 -0.5773
vn -0.5773 -0.5773 -0.5773
vn -0.5773 -0.5773 0.5773
vn 0.5773 0.5773 -0.5773
vn 0.5773 -0.5773 -0.5773
vn 0.5773 0.5773 0.5773
vn 0.5773 -0.5773 0.5773
usemtl Material.001
s 1
f 2//1 4//2 3//3 1//4
f 4//2 8//5 7//6 3//3
f 8//5 6//7 5//8 7//6
f 6//7 2//1 1//4 5//8
f 1//4 3//3 7//6 5//8
f 6//7 8//5 4//2 2//1
