# Blender v2.90.0 OBJ File: 'table.blend'
# www.blender.org
mtllib table.mtl
o base_inferiore_Cube.001
v 0.200000 -0.025000 -0.300000
v 0.200000 -0.025000 0.300000
v -0.200000 -0.025000 0.300000
v -0.200000 -0.025000 -0.300000
v 0.200000 0.025000 -0.300000
v 0.200000 0.025000 0.300000
v -0.200000 0.025000 0.300000
v -0.200000 0.025000 -0.300000
vn 0.0000 -1.0000 -0.0000
vn 0.0000 1.0000 0.0000
vn 1.0000 0.0000 0.0000
vn -0.0000 -0.0000 1.0000
vn -1.0000 -0.0000 -0.0000
vn 0.0000 0.0000 -1.0000
usemtl Material
s off
f 1//1 2//1 3//1 4//1
f 5//2 8//2 7//2 6//2
f 1//3 5//3 6//3 2//3
f 2//4 6//4 7//4 3//4
f 3//5 7//5 8//5 4//5
f 5//6 1//6 4//6 8//6
l 1 2
l 1 4
l 1 5
l 2 3
l 2 6
l 3 4
l 3 7
l 4 8
l 5 6
l 5 8
l 6 7
l 7 8
o mensola.004_Cube.007
v 0.210000 0.400000 0.280000
v 0.210000 0.000000 0.280000
v 0.190000 0.000000 0.280000
v 0.190000 0.400000 0.280000
v 0.210000 0.400000 0.320000
v 0.210000 -0.000000 0.320000
v 0.190000 0.000000 0.320000
v 0.190000 0.400000 0.320000
vn -0.0000 0.0000 -1.0000
vn -0.0000 -0.0000 1.0000
vn 1.0000 0.0000 0.0000
vn -0.0000 -1.0000 -0.0000
vn -1.0000 0.0000 -0.0000
vn 0.0000 1.0000 0.0000
usemtl Material
s off
f 9//7 10//7 11//7 12//7
f 13//8 16//8 15//8 14//8
f 9//9 13//9 14//9 10//9
f 10//10 14//10 15//10 11//10
f 11//11 15//11 16//11 12//11
f 13//12 9//12 12//12 16//12
l 9 10
l 9 12
l 9 13
l 10 11
l 10 14
l 11 12
l 11 15
l 12 16
l 13 14
l 13 16
l 14 15
l 15 16
o mensola.003_Cube.004
v 0.200000 0.400000 0.280000
v 0.200000 0.020000 0.280000
v -0.200000 0.020000 0.280000
v -0.200000 0.400000 0.280000
v 0.200000 0.400000 0.300000
v 0.200000 0.020000 0.300000
v -0.200000 0.020000 0.300000
v -0.200000 0.400000 0.300000
vn 0.0000 0.0000 -1.0000
vn 0.0000 -0.0000 1.0000
vn 1.0000 -0.0000 0.0000
vn -0.0000 -1.0000 -0.0000
vn -1.0000 0.0000 -0.0000
vn 0.0000 1.0000 0.0000
usemtl Material
s off
f 17//13 18//13 19//13 20//13
f 21//14 24//14 23//14 22//14
f 17//15 21//15 22//15 18//15
f 18//16 22//16 23//16 19//16
f 19//17 23//17 24//17 20//17
f 21//18 17//18 20//18 24//18
l 17 18
l 17 20
l 17 21
l 18 19
l 18 22
l 19 20
l 19 23
l 20 24
l 21 22
l 21 24
l 22 23
l 23 24
o mensola.001_Cube.006
v 0.210000 0.400000 -0.311000
v 0.210000 0.000000 -0.311000
v 0.190000 0.000000 -0.311000
v 0.190000 0.400000 -0.311000
v 0.210000 0.400000 -0.291000
v 0.210000 -0.000000 -0.291000
v 0.190000 0.000000 -0.291000
v 0.190000 0.400000 -0.291000
vn 0.0000 0.0000 -1.0000
vn 0.0000 -0.0000 1.0000
vn 1.0000 0.0000 0.0000
vn -0.0000 -1.0000 -0.0000
vn -1.0000 0.0000 -0.0000
vn 0.0000 1.0000 0.0000
usemtl Material
s off
f 25//19 26//19 27//19 28//19
f 29//20 32//20 31//20 30//20
f 25//21 29//21 30//21 26//21
f 26//22 30//22 31//22 27//22
f 27//23 31//23 32//23 28//23
f 29//24 25//24 28//24 32//24
l 25 26
l 25 28
l 25 29
l 26 27
l 26 30
l 27 28
l 27 31
l 28 32
l 29 30
l 29 32
l 30 31
l 31 32
o mensola.002_Cube.005
v 0.200000 0.400000 -0.299652
v 0.200000 0.020000 -0.299652
v -0.200000 0.020000 -0.299652
v -0.200000 0.400000 -0.299652
v 0.200000 0.400000 -0.279652
v 0.200000 0.020000 -0.279653
v -0.200000 0.020000 -0.279653
v -0.200000 0.400000 -0.279652
vn 0.0000 0.0000 -1.0000
vn -0.0000 -0.0000 1.0000
vn 1.0000 -0.0000 0.0000
vn -0.0000 -1.0000 -0.0000
vn -1.0000 0.0000 -0.0000
vn 0.0000 1.0000 0.0000
usemtl Material
s off
f 33//25 34//25 35//25 36//25
f 37//26 40//26 39//26 38//26
f 33//27 37//27 38//27 34//27
f 34//28 38//28 39//28 35//28
f 35//29 39//29 40//29 36//29
f 37//30 33//30 36//30 40//30
l 33 34
l 33 36
l 33 37
l 34 35
l 34 38
l 35 36
l 35 39
l 36 40
l 37 38
l 37 40
l 38 39
l 39 40
o mensola_logo_Cube.003
v 0.190000 -0.000000 0.300000
v 0.190000 0.400000 0.300000
v 0.190000 0.400000 0.283333
v 0.190000 -0.000000 0.283334
v 0.210000 0.000000 0.300000
v 0.210000 0.400000 0.300000
v 0.210000 0.400000 0.283333
v 0.210000 -0.000000 0.283334
v 0.190000 0.000000 -0.283333
v 0.190000 0.400000 -0.283334
v 0.190000 0.400000 -0.300000
v 0.190000 -0.000000 -0.300000
v 0.210000 0.000000 -0.283333
v 0.210000 0.400000 -0.283334
v 0.210000 0.400000 -0.300000
v 0.210000 0.000000 -0.300000
v 0.189000 -0.000086 0.291667
v 0.189000 0.399914 0.291666
v 0.189000 0.399913 -0.291667
v 0.189000 -0.000087 -0.291666
v 0.209000 -0.000086 0.291667
v 0.209000 0.399914 0.291666
v 0.209000 0.399913 -0.291667
v 0.209000 -0.000087 -0.291666
v 0.190000 0.000000 0.300000
v 0.190000 0.400000 0.300000
v 0.190000 0.400000 -0.300000
v 0.190000 -0.000000 -0.300000
v 0.210000 0.000000 0.300000
v 0.210000 0.400001 0.300000
v 0.210000 0.400000 -0.300000
v 0.210000 -0.000000 -0.300000
vt 0.000000 0.000000
vt 1.000000 0.000000
vt 1.000000 1.000000
vt 0.000000 1.000000
vt 0.000000 0.000000
vt 1.000000 0.000000
vt 1.000000 1.000000
vt 0.000000 1.000000
vt 1.000000 0.000000
vt 1.000000 1.000000
vt 0.000000 1.000000
vt 0.000000 0.000000
vt 1.000000 0.000000
vt 0.000000 1.000000
vt 0.000000 0.000000
vt 1.000000 0.000000
vt 1.000000 1.000000
vt 1.000000 0.000000
vt 1.000000 1.000000
vt 0.000000 1.000000
vt 0.000000 0.000000
vt 1.000000 0.000000
vt 1.000000 1.000000
vt 0.000000 1.000000
vt 0.000000 0.000000
vt 1.000000 0.000000
vt 1.000000 1.000000
vt 0.000000 1.000000
vt 1.000000 0.000000
vt 1.000000 1.000000
vt 0.000000 1.000000
vt 0.000000 0.000000
vt 1.000000 0.000000
vt 0.000000 1.000000
vt 0.000000 0.000000
vt 1.000000 0.000000
vt 1.000000 1.000000
vt 1.000000 0.000000
vt 1.000000 1.000000
vt 0.000000 1.000000
vt 0.000000 0.000000
vt 1.000000 0.000000
vt 1.000000 1.000000
vt 0.000000 1.000000
vt 0.000000 0.000000
vt 1.000000 0.000000
vt 1.000000 1.000000
vt 0.000000 1.000000
vt 1.000000 0.000000
vt 1.000000 1.000000
vt 0.000000 1.000000
vt 0.000000 0.000000
vt 1.000000 0.000000
vt 0.000000 1.000000
vt 0.000000 0.000000
vt 1.000000 0.000000
vt 1.000000 1.000000
vt 1.000000 0.000000
vt 1.000000 1.000000
vt 0.000000 1.000000
vt 0.000000 0.000000
vt 1.000000 0.000000
vt 1.000000 1.000000
vt 0.000000 1.000000
vt 0.000000 0.000000
vt 1.000000 0.000000
vt 1.000000 1.000000
vt 0.000000 1.000000
vt 1.000000 0.000000
vt 1.000000 1.000000
vt 0.000000 1.000000
vt 0.000000 0.000000
vt 1.000000 0.000000
vt 0.000000 1.000000
vt 0.000000 0.000000
vt 1.000000 0.000000
vt 1.000000 1.000000
vt 1.000000 0.000000
vt 1.000000 1.000000
vt 0.000000 1.000000
vn -1.0000 -0.0000 0.0000
vn 1.0000 0.0000 -0.0000
vn -0.0000 0.0000 1.0000
vn -0.0000 1.0000 -0.0000
vn -0.0000 -0.0000 -1.0000
vn 0.0000 -1.0000 0.0000
usemtl Material.001
s off
f 65/1/31 66/2/31 67/3/31 68/4/31
f 69/5/32 72/6/32 71/7/32 70/8/32
f 65/1/33 69/9/33 70/10/33 66/11/33
f 66/12/34 70/13/34 71/7/34 67/14/34
f 67/15/35 71/16/35 72/17/35 68/4/35
f 69/5/36 65/18/36 68/19/36 72/20/36
usemtl Material
f 41/21/31 42/22/31 43/23/31 44/24/31
f 45/25/32 48/26/32 47/27/32 46/28/32
f 41/21/33 45/29/33 46/30/33 42/31/33
f 42/32/34 46/33/34 47/27/34 43/34/34
f 43/35/35 47/36/35 48/37/35 44/24/35
f 45/25/36 41/38/36 44/39/36 48/40/36
f 49/41/31 50/42/31 51/43/31 52/44/31
f 53/45/32 56/46/32 55/47/32 54/48/32
f 49/41/33 53/49/33 54/50/33 50/51/33
f 50/52/34 54/53/34 55/47/34 51/54/34
f 51/55/35 55/56/35 56/57/35 52/44/35
f 53/45/36 49/58/36 52/59/36 56/60/36
f 57/61/31 58/62/31 59/63/31 60/64/31
f 61/65/32 64/66/32 63/67/32 62/68/32
f 57/61/33 61/69/33 62/70/33 58/71/33
f 58/72/34 62/73/34 63/67/34 59/74/34
f 59/75/35 63/76/35 64/77/35 60/64/35
f 61/65/36 57/78/36 60/79/36 64/80/36
l 41 42
l 41 44
l 41 45
l 42 43
l 42 46
l 43 44
l 43 47
l 44 48
l 45 46
l 45 48
l 46 47
l 47 48
l 49 50
l 49 52
l 49 53
l 50 51
l 50 54
l 51 52
l 51 55
l 52 56
l 53 54
l 53 56
l 54 55
l 55 56
l 57 58
l 57 60
l 57 61
l 58 59
l 58 62
l 59 60
l 59 63
l 60 64
l 61 62
l 61 64
l 62 63
l 63 64
l 65 66
l 65 68
l 65 69
l 66 67
l 66 70
l 67 68
l 67 71
l 68 72
l 69 70
l 69 72
l 70 71
l 71 72
o mensola_Cube.002
v 0.200000 0.390000 -0.299000
v 0.200000 0.390000 0.299000
v -0.200000 0.390000 0.299000
v -0.200000 0.390000 -0.299000
v 0.200000 0.410000 -0.299000
v 0.200000 0.410000 0.299000
v -0.200000 0.410000 0.299000
v -0.200000 0.410000 -0.299000
vn 0.0000 -1.0000 0.0000
vn 0.0000 1.0000 0.0000
vn 1.0000 -0.0000 0.0000
vn -0.0000 -0.0000 1.0000
vn -1.0000 -0.0000 -0.0000
vn 0.0000 0.0000 -1.0000
usemtl Material
s off
f 73//37 74//37 75//37 76//37
f 77//38 80//38 79//38 78//38
f 73//39 77//39 78//39 74//39
f 74//40 78//40 79//40 75//40
f 75//41 79//41 80//41 76//41
f 77//42 73//42 76//42 80//42
l 73 74
l 73 76
l 73 77
l 74 75
l 74 78
l 75 76
l 75 79
l 76 80
l 77 78
l 77 80
l 78 79
l 79 80
o base_superiore_Cube
v 0.350000 0.375000 -0.500000
v 0.350000 0.375000 0.500000
v -0.350000 0.375000 0.500000
v -0.350000 0.375000 -0.500000
v 0.350000 0.425000 -0.500000
v 0.350000 0.425000 0.500000
v -0.350000 0.425000 0.500000
v -0.350000 0.425000 -0.500000
vn 0.0000 -1.0000 0.0000
vn 0.0000 1.0000 0.0000
vn 1.0000 0.0000 0.0000
vn -0.0000 -0.0000 1.0000
vn -1.0000 -0.0000 -0.0000
vn 0.0000 0.0000 -1.0000
usemtl Material
s off
f 81//43 82//43 83//43 84//43
f 85//44 88//44 87//44 86//44
f 81//45 85//45 86//45 82//45
f 82//46 86//46 87//46 83//46
f 83//47 87//47 88//47 84//47
f 85//48 81//48 84//48 88//48
l 81 82
l 81 84
l 81 85
l 82 83
l 82 86
l 83 84
l 83 87
l 84 88
l 85 86
l 85 88
l 86 87
l 87 88
