# Blender v2.82 (sub 7) OBJ File: 'Pen_tooltest1.blend'
# www.blender.org
mtllib Pen_tooltest1.mtl
o Cylinder.001
v 0.014060 0.006000 0.008000
v 0.120060 0.006000 0.008000
v 0.014060 0.005885 0.006829
v 0.120060 0.005885 0.006829
v 0.014060 0.005543 0.005704
v 0.120060 0.005543 0.005704
v 0.014060 0.004989 0.004667
v 0.120060 0.004989 0.004667
v 0.014060 0.004243 0.003757
v 0.120060 0.004243 0.003757
v 0.014060 0.003333 0.003011
v 0.120060 0.003333 0.003011
v 0.014060 0.002296 0.002457
v 0.120060 0.002296 0.002457
v 0.014060 0.001171 0.002115
v 0.120060 0.001171 0.002115
v 0.014060 0.000000 0.002000
v 0.120060 0.000000 0.002000
v 0.014060 -0.001171 0.002115
v 0.120060 -0.001171 0.002115
v 0.014060 -0.002296 0.002457
v 0.120060 -0.002296 0.002457
v 0.014060 -0.003333 0.003011
v 0.120060 -0.003333 0.003011
v 0.014060 -0.004243 0.003757
v 0.120060 -0.004243 0.003757
v 0.014060 -0.004989 0.004667
v 0.120060 -0.004989 0.004667
v 0.014060 -0.005543 0.005704
v 0.120060 -0.005543 0.005704
v 0.014060 -0.005885 0.006829
v 0.120060 -0.005885 0.006829
v 0.014060 -0.006000 0.008000
v 0.120060 -0.006000 0.008000
v 0.014060 -0.005885 0.009171
v 0.120060 -0.005885 0.009170
v 0.014060 -0.005543 0.010296
v 0.120060 -0.005543 0.010296
v 0.014060 -0.004989 0.011333
v 0.120060 -0.004989 0.011333
v 0.014060 -0.004243 0.012243
v 0.120060 -0.004243 0.012243
v 0.014060 -0.003333 0.012989
v 0.120060 -0.003333 0.012989
v 0.014060 -0.002296 0.013543
v 0.120060 -0.002296 0.013543
v 0.014060 -0.001171 0.013885
v 0.120060 -0.001171 0.013885
v 0.014060 0.000000 0.014000
v 0.120060 0.000000 0.014000
v 0.014060 0.001171 0.013885
v 0.120060 0.001171 0.013885
v 0.014060 0.002296 0.013543
v 0.120060 0.002296 0.013543
v 0.014060 0.003333 0.012989
v 0.120060 0.003333 0.012989
v 0.014060 0.004243 0.012243
v 0.120060 0.004243 0.012243
v 0.014060 0.004989 0.011333
v 0.120060 0.004989 0.011333
v 0.014060 0.005543 0.010296
v 0.120060 0.005543 0.010296
v 0.014060 0.005885 0.009171
v 0.120060 0.005885 0.009170
v 0.119901 0.006000 0.008000
v 0.119901 0.005885 0.006829
v 0.119901 0.005543 0.005704
v 0.119901 0.004989 0.004667
v 0.119901 0.004243 0.003757
v 0.119901 0.003333 0.003011
v 0.119901 0.002296 0.002457
v 0.119901 0.001171 0.002115
v 0.119901 0.000000 0.002000
v 0.130000 -0.000000 0.008000
v 0.119901 -0.001171 0.002115
v 0.119901 -0.002296 0.002457
v 0.119901 -0.003333 0.003011
v 0.119901 -0.004243 0.003757
v 0.119901 -0.004989 0.004667
v 0.119901 -0.005543 0.005704
v 0.119901 -0.005885 0.006829
v 0.119901 -0.006000 0.008000
v 0.119901 -0.005885 0.009170
v 0.119901 -0.005543 0.010296
v 0.119901 -0.004989 0.011333
v 0.119901 -0.004243 0.012243
v 0.119901 -0.003333 0.012989
v 0.119901 -0.002296 0.013543
v 0.119901 -0.001171 0.013885
v 0.119901 0.000000 0.014000
v 0.119901 0.001171 0.013885
v 0.119901 0.002296 0.013543
v 0.119901 0.003333 0.012989
v 0.119901 0.004243 0.012243
v 0.119901 0.004989 0.011333
v 0.119901 0.005543 0.010296
v 0.119901 0.005885 0.009170
v 0.000000 0.017500 0.000000
v 0.003414 0.017164 0.000000
v 0.006697 0.016168 0.000000
v 0.009722 0.014551 0.000000
v 0.012374 0.012374 0.000000
v 0.014551 0.009722 0.000000
v 0.016168 0.006697 0.000000
v 0.017164 0.003414 0.000000
v 0.017500 0.000000 0.000000
v 0.017164 -0.003414 -0.000000
v 0.016168 -0.006697 -0.000000
v 0.014551 -0.009722 -0.000000
v 0.012374 -0.012374 -0.000000
v 0.009722 -0.014551 -0.000000
v 0.006697 -0.016168 -0.000000
v 0.003414 -0.017164 -0.000000
v -0.000000 -0.017500 -0.000000
v -0.003414 -0.017164 -0.000000
v -0.006697 -0.016168 -0.000000
v -0.009722 -0.014551 -0.000000
v -0.012374 -0.012374 -0.000000
v -0.014551 -0.009722 -0.000000
v -0.016168 -0.006697 -0.000000
v -0.017164 -0.003414 -0.000000
v -0.017500 0.000000 0.000000
v -0.017164 0.003414 0.000000
v -0.016168 0.006697 0.000000
v -0.014551 0.009722 0.000000
v -0.012374 0.012374 0.000000
v -0.009722 0.014551 0.000000
v -0.006697 0.016168 0.000000
v -0.003414 0.017164 0.000000
v 0.000000 0.017500 0.016000
v 0.003414 0.017164 0.016000
v 0.006697 0.016168 0.016000
v 0.009723 0.014551 0.016000
v 0.012374 0.012374 0.016000
v 0.014551 0.009722 0.016000
v 0.016168 0.006697 0.016000
v 0.017164 0.003414 0.016000
v 0.017500 -0.000000 0.016000
v 0.017164 -0.003414 0.016000
v 0.016168 -0.006697 0.016000
v 0.014551 -0.009722 0.016000
v 0.012374 -0.012374 0.016000
v 0.009722 -0.014551 0.016000
v 0.006697 -0.016168 0.016000
v 0.003414 -0.017164 0.016000
v 0.000000 -0.017500 0.016000
v -0.003414 -0.017164 0.016000
v -0.006697 -0.016168 0.016000
v -0.009722 -0.014551 0.016000
v -0.012374 -0.012374 0.016000
v -0.014551 -0.009723 0.016000
v -0.016168 -0.006697 0.016000
v -0.017164 -0.003414 0.016000
v -0.017500 -0.000000 0.016000
v -0.017164 0.003414 0.016000
v -0.016168 0.006697 0.016000
v -0.014551 0.009722 0.016000
v -0.012374 0.012374 0.016000
v -0.009723 0.014551 0.016000
v -0.006697 0.016168 0.016000
v -0.003414 0.017164 0.016000
v 0.000000 0.000000 0.000000
v 0.000000 -0.000000 0.016000
vn -0.0000 0.0000 -1.0000
vn -0.0000 0.0000 1.0000
vn 0.0980 0.9952 0.0000
vn 0.2903 0.9569 -0.0000
vn 0.4714 0.8819 0.0000
vn 0.6344 0.7730 0.0000
vn 0.7730 0.6344 0.0000
vn 0.8819 0.4714 0.0000
vn 0.9569 0.2903 0.0000
vn 0.9952 0.0980 0.0000
vn 0.9952 -0.0980 -0.0000
vn 0.9569 -0.2903 -0.0000
vn 0.8819 -0.4714 -0.0000
vn 0.7730 -0.6344 -0.0000
vn 0.6344 -0.7730 -0.0000
vn 0.4714 -0.8819 -0.0000
vn 0.2903 -0.9569 -0.0000
vn 0.0980 -0.9952 0.0000
vn -0.0980 -0.9952 -0.0000
vn -0.2903 -0.9569 -0.0000
vn -0.4714 -0.8819 -0.0000
vn -0.6344 -0.7730 -0.0000
vn -0.7730 -0.6344 -0.0000
vn -0.8819 -0.4714 -0.0000
vn -0.9569 -0.2903 -0.0000
vn -0.9952 -0.0980 -0.0000
vn -0.9952 0.0980 -0.0000
vn -0.9569 0.2903 -0.0000
vn -0.8819 0.4714 0.0000
vn -0.7730 0.6344 -0.0000
vn -0.6344 0.7730 0.0000
vn -0.4714 0.8819 -0.0000
vn -0.2903 0.9569 -0.0000
vn -0.0980 0.9952 0.0000
vn 0.0000 1.0000 0.0000
vn 0.0000 0.9808 -0.1951
vn 0.0000 0.9239 -0.3827
vn 0.0000 0.8314 -0.5556
vn 0.0000 0.7071 -0.7071
vn 0.0000 0.5556 -0.8314
vn 0.0000 0.3827 -0.9239
vn 0.0000 0.1951 -0.9808
vn 0.0000 -0.1951 -0.9808
vn 0.0000 -0.3827 -0.9239
vn 0.0000 -0.5556 -0.8314
vn 0.0000 -0.7071 -0.7071
vn 0.0000 -0.8314 -0.5556
vn 0.0000 -0.9239 -0.3827
vn 0.0000 -0.9808 -0.1951
vn 0.0000 -1.0000 0.0000
vn 0.0000 -0.9808 0.1951
vn 0.0000 -0.9239 0.3827
vn 0.0000 -0.8314 0.5556
vn 0.0000 -0.7071 0.7071
vn 0.0000 -0.5556 0.8314
vn 0.0000 -0.3827 0.9239
vn 0.0000 -0.1951 0.9808
vn 0.0000 0.1951 0.9808
vn 0.0000 0.3827 0.9239
vn 0.0000 0.5556 0.8314
vn 0.0000 0.7071 0.7071
vn 0.0000 0.8314 0.5556
vn 0.0000 0.9239 0.3827
vn 0.0000 0.9808 0.1951
vn 0.5108 0.7943 0.3290
vn 1.0000 0.0000 0.0000
vn 0.5108 0.8432 0.1677
vn 0.5108 0.8597 0.0000
vn 0.5108 0.8432 -0.1677
vn 0.5108 0.7148 0.4776
vn 0.5108 0.6079 0.6079
vn 0.5108 0.4776 0.7148
vn 0.5108 0.3290 0.7942
vn 0.5108 0.1677 0.8432
vn 0.5108 0.0000 0.8597
vn 0.5108 -0.1677 0.8432
vn 0.5108 -0.3290 0.7942
vn 0.5108 -0.4776 0.7148
vn 0.5108 -0.6079 0.6079
vn 0.5108 -0.7148 0.4776
vn 0.5108 -0.7942 0.3290
vn 0.5108 -0.8432 0.1677
vn 0.5108 -0.8597 0.0000
vn 0.5108 -0.8432 -0.1677
vn 0.5108 -0.7942 -0.3290
vn 0.5108 -0.7148 -0.4776
vn 0.5108 -0.6079 -0.6079
vn 0.5108 -0.4776 -0.7148
vn 0.5108 -0.3290 -0.7942
vn 0.5108 -0.1677 -0.8432
vn 0.5108 0.0000 -0.8597
vn 0.5108 0.1677 -0.8432
vn 0.5108 0.3290 -0.7942
vn 0.5108 0.4776 -0.7148
vn 0.5108 0.6079 -0.6079
vn 0.5108 0.7148 -0.4776
vn 0.5108 0.7942 -0.3290
usemtl Material.008
s off
f 162//1 98//1 99//1
f 163//2 131//2 130//2
f 162//1 99//1 100//1
f 163//2 132//2 131//2
f 162//1 100//1 101//1
f 163//2 133//2 132//2
f 162//1 101//1 102//1
f 163//2 134//2 133//2
f 162//1 102//1 103//1
f 163//2 135//2 134//2
f 162//1 103//1 104//1
f 163//2 136//2 135//2
f 162//1 104//1 105//1
f 163//2 137//2 136//2
f 162//1 105//1 106//1
f 163//2 138//2 137//2
f 162//1 106//1 107//1
f 163//2 139//2 138//2
f 162//1 107//1 108//1
f 163//2 140//2 139//2
f 162//1 108//1 109//1
f 163//2 141//2 140//2
f 162//1 109//1 110//1
f 163//2 142//2 141//2
f 162//1 110//1 111//1
f 163//2 143//2 142//2
f 162//1 111//1 112//1
f 163//2 144//2 143//2
f 162//1 112//1 113//1
f 163//2 145//2 144//2
f 162//1 113//1 114//1
f 163//2 146//2 145//2
f 162//1 114//1 115//1
f 163//2 147//2 146//2
f 162//1 115//1 116//1
f 163//2 148//2 147//2
f 162//1 116//1 117//1
f 163//2 149//2 148//2
f 162//1 117//1 118//1
f 163//2 150//2 149//2
f 162//1 118//1 119//1
f 163//2 151//2 150//2
f 162//1 119//1 120//1
f 163//2 152//2 151//2
f 162//1 120//1 121//1
f 163//2 153//2 152//2
f 162//1 121//1 122//1
f 163//2 154//2 153//2
f 162//1 122//1 123//1
f 163//2 155//2 154//2
f 162//1 123//1 124//1
f 163//2 156//2 155//2
f 162//1 124//1 125//1
f 163//2 157//2 156//2
f 162//1 125//1 126//1
f 163//2 158//2 157//2
f 162//1 126//1 127//1
f 163//2 159//2 158//2
f 162//1 127//1 128//1
f 163//2 160//2 159//2
f 162//1 128//1 129//1
f 163//2 161//2 160//2
f 129//1 98//1 162//1
f 163//2 130//2 161//2
f 98//3 130//3 131//3 99//3
f 99//4 131//4 132//4 100//4
f 100//5 132//5 133//5 101//5
f 101//6 133//6 134//6 102//6
f 102//7 134//7 135//7 103//7
f 103//8 135//8 136//8 104//8
f 104//9 136//9 137//9 105//9
f 105//10 137//10 138//10 106//10
f 106//11 138//11 139//11 107//11
f 107//12 139//12 140//12 108//12
f 108//13 140//13 141//13 109//13
f 109//14 141//14 142//14 110//14
f 110//15 142//15 143//15 111//15
f 111//16 143//16 144//16 112//16
f 112//17 144//17 145//17 113//17
f 113//18 145//18 146//18 114//18
f 114//19 146//19 147//19 115//19
f 115//20 147//20 148//20 116//20
f 116//21 148//21 149//21 117//21
f 117//22 149//22 150//22 118//22
f 118//23 150//23 151//23 119//23
f 119//24 151//24 152//24 120//24
f 120//25 152//25 153//25 121//25
f 121//26 153//26 154//26 122//26
f 122//27 154//27 155//27 123//27
f 123//28 155//28 156//28 124//28
f 124//29 156//29 157//29 125//29
f 125//30 157//30 158//30 126//30
f 126//31 158//31 159//31 127//31
f 127//32 159//32 160//32 128//32
f 128//33 160//33 161//33 129//33
f 130//34 98//34 129//34 161//34
s 1
f 1//35 2//35 4//36 3//36
f 3//36 4//36 6//37 5//37
f 5//37 6//37 8//38 7//38
f 7//38 8//38 10//39 9//39
f 9//39 10//39 12//40 11//40
f 11//40 12//40 14//41 13//41
f 13//41 14//41 16//42 15//42
f 15//42 16//42 18//1 17//1
f 17//1 18//1 20//43 19//43
f 19//43 20//43 22//44 21//44
f 21//44 22//44 24//45 23//45
f 23//45 24//45 26//46 25//46
f 25//46 26//46 28//47 27//47
f 27//47 28//47 30//48 29//48
f 29//48 30//48 32//49 31//49
f 31//49 32//49 34//50 33//50
f 33//50 34//50 36//51 35//51
f 35//51 36//51 38//52 37//52
f 37//52 38//52 40//53 39//53
f 39//53 40//53 42//54 41//54
f 41//54 42//54 44//55 43//55
f 43//55 44//55 46//56 45//56
f 45//56 46//56 48//57 47//57
f 47//57 48//57 50//2 49//2
f 49//2 50//2 52//58 51//58
f 51//58 52//58 54//59 53//59
f 53//59 54//59 56//60 55//60
f 55//60 56//60 58//61 57//61
f 57//61 58//61 60//62 59//62
f 59//62 60//62 62//63 61//63
f 2//35 1//35 63//64 64//64
f 61//63 62//63 64//64 63//64
f 96//65 74//66 97//67
f 65//68 74//66 66//69
f 95//70 74//66 96//65
f 94//71 74//66 95//70
f 93//72 74//66 94//71
f 92//73 74//66 93//72
f 91//74 74//66 92//73
f 90//75 74//66 91//74
f 89//76 74//66 90//75
f 88//77 74//66 89//76
f 87//78 74//66 88//77
f 86//79 74//66 87//78
f 85//80 74//66 86//79
f 84//81 74//66 85//80
f 83//82 74//66 84//81
f 82//83 74//66 83//82
f 81//84 74//66 82//83
f 80//85 74//66 81//84
f 79//86 74//66 80//85
f 78//87 74//66 79//86
f 77//88 74//66 78//87
f 76//89 74//66 77//88
f 75//90 74//66 76//89
f 73//91 74//66 75//90
f 72//92 74//66 73//91
f 71//93 74//66 72//92
f 70//94 74//66 71//93
f 69//95 74//66 70//94
f 68//96 74//66 69//95
f 67//97 74//66 68//96
f 97//67 74//66 65//68
f 66//69 74//66 67//97
l 1 3
l 2 4
l 1 2
l 3 4
l 3 5
l 4 6
l 5 6
l 5 7
l 6 8
l 7 8
l 7 9
l 8 10
l 9 10
l 9 11
l 10 12
l 11 12
l 11 13
l 12 14
l 13 14
l 13 15
l 14 16
l 15 16
l 15 17
l 16 18
l 17 18
l 17 19
l 18 20
l 19 20
l 19 21
l 20 22
l 21 22
l 21 23
l 22 24
l 23 24
l 23 25
l 24 26
l 25 26
l 25 27
l 26 28
l 27 28
l 27 29
l 28 30
l 29 30
l 29 31
l 30 32
l 31 32
l 31 33
l 32 34
l 33 34
l 33 35
l 34 36
l 35 36
l 35 37
l 36 38
l 37 38
l 37 39
l 38 40
l 39 40
l 39 41
l 40 42
l 41 42
l 41 43
l 42 44
l 43 44
l 43 45
l 44 46
l 45 46
l 45 47
l 46 48
l 47 48
l 47 49
l 48 50
l 49 50
l 49 51
l 50 52
l 51 52
l 51 53
l 52 54
l 53 54
l 53 55
l 54 56
l 55 56
l 55 57
l 56 58
l 57 58
l 57 59
l 58 60
l 59 60
l 59 61
l 60 62
l 61 62
l 61 63
l 62 64
l 63 64
l 1 63
l 2 64
l 65 66
l 67 74
l 66 74
l 66 67
l 65 74
l 67 68
l 74 97
l 68 69
l 74 96
l 69 70
l 74 95
l 70 71
l 74 94
l 71 72
l 74 93
l 72 73
l 73 74
l 74 92
l 73 75
l 74 91
l 75 76
l 74 90
l 76 77
l 74 89
l 77 78
l 74 88
l 78 79
l 74 87
l 79 80
l 74 86
l 80 81
l 74 85
l 81 82
l 74 84
l 82 83
l 74 83
l 83 84
l 74 82
l 84 85
l 74 81
l 85 86
l 74 80
l 86 87
l 74 79
l 87 88
l 74 78
l 88 89
l 74 77
l 89 90
l 74 76
l 90 91
l 74 75
l 91 92
l 72 74
l 92 93
l 71 74
l 93 94
l 70 74
l 94 95
l 69 74
l 95 96
l 68 74
l 96 97
l 65 97
l 98 162
l 98 99
l 99 162
l 130 163
l 130 131
l 131 163
l 99 100
l 100 162
l 131 132
l 132 163
l 100 101
l 101 162
l 132 133
l 133 163
l 101 102
l 102 162
l 133 134
l 134 163
l 102 103
l 103 162
l 134 135
l 135 163
l 103 104
l 104 162
l 135 136
l 136 163
l 104 105
l 105 162
l 136 137
l 137 163
l 105 106
l 106 162
l 137 138
l 138 163
l 106 107
l 107 162
l 138 139
l 139 163
l 107 108
l 108 162
l 139 140
l 140 163
l 108 109
l 109 162
l 140 141
l 141 163
l 109 110
l 110 162
l 141 142
l 142 163
l 110 111
l 111 162
l 142 143
l 143 163
l 111 112
l 112 162
l 143 144
l 144 163
l 112 113
l 113 162
l 144 145
l 145 163
l 113 114
l 114 162
l 145 146
l 146 163
l 114 115
l 115 162
l 146 147
l 147 163
l 115 116
l 116 162
l 147 148
l 148 163
l 116 117
l 117 162
l 148 149
l 149 163
l 117 118
l 118 162
l 149 150
l 150 163
l 118 119
l 119 162
l 150 151
l 151 163
l 119 120
l 120 162
l 151 152
l 152 163
l 120 121
l 121 162
l 152 153
l 153 163
l 121 122
l 122 162
l 153 154
l 154 163
l 122 123
l 123 162
l 154 155
l 155 163
l 123 124
l 124 162
l 155 156
l 156 163
l 124 125
l 125 162
l 156 157
l 157 163
l 125 126
l 126 162
l 157 158
l 158 163
l 126 127
l 127 162
l 158 159
l 159 163
l 127 128
l 128 162
l 159 160
l 160 163
l 128 129
l 129 162
l 160 161
l 161 163
l 98 129
l 130 161
l 99 131
l 98 130
l 100 132
l 101 133
l 102 134
l 103 135
l 104 136
l 105 137
l 106 138
l 107 139
l 108 140
l 109 141
l 110 142
l 111 143
l 112 144
l 113 145
l 114 146
l 115 147
l 116 148
l 117 149
l 118 150
l 119 151
l 120 152
l 121 153
l 122 154
l 123 155
l 124 156
l 125 157
l 126 158
l 127 159
l 128 160
l 129 161
o Cylinder
v 0.000000 0.015000 0.000000
v 0.002926 0.014712 0.000000
v 0.005740 0.013858 0.000000
v 0.008334 0.012472 0.000000
v 0.010607 0.010607 0.000000
v 0.012472 0.008334 0.000000
v 0.013858 0.005740 0.000000
v 0.014712 0.002926 0.000000
v 0.015000 0.000000 0.000000
v 0.014712 -0.002926 -0.000000
v 0.013858 -0.005740 -0.000000
v 0.012472 -0.008334 -0.000000
v 0.010607 -0.010607 -0.000000
v 0.008334 -0.012472 -0.000000
v 0.005740 -0.013858 -0.000000
v 0.002926 -0.014712 -0.000000
v -0.000000 -0.015000 -0.000000
v -0.002926 -0.014712 -0.000000
v -0.005740 -0.013858 -0.000000
v -0.008334 -0.012472 -0.000000
v -0.010607 -0.010607 -0.000000
v -0.012472 -0.008334 -0.000000
v -0.013858 -0.005740 -0.000000
v -0.014712 -0.002926 -0.000000
v -0.015000 0.000000 0.000000
v -0.014712 0.002926 0.000000
v -0.013858 0.005740 0.000000
v -0.012472 0.008334 0.000000
v -0.010607 0.010607 0.000000
v -0.008334 0.012472 0.000000
v -0.005740 0.013858 0.000000
v -0.002926 0.014712 0.000000
v 0.000000 0.015000 0.005000
v 0.002926 0.014712 0.005000
v 0.005740 0.013858 0.005000
v 0.008334 0.012472 0.005000
v 0.010607 0.010607 0.005000
v 0.012472 0.008334 0.005000
v 0.013858 0.005740 0.005000
v 0.014712 0.002926 0.005000
v 0.015000 -0.000000 0.005000
v 0.014712 -0.002926 0.005000
v 0.013858 -0.005740 0.005000
v 0.012472 -0.008334 0.005000
v 0.010607 -0.010607 0.005000
v 0.008334 -0.012472 0.005000
v 0.005740 -0.013858 0.005000
v 0.002926 -0.014712 0.005000
v 0.000000 -0.015000 0.005000
v -0.002926 -0.014712 0.005000
v -0.005740 -0.013858 0.005000
v -0.008334 -0.012472 0.005000
v -0.010607 -0.010607 0.005000
v -0.012472 -0.008334 0.005000
v -0.013858 -0.005740 0.005000
v -0.014712 -0.002926 0.005000
v -0.015000 -0.000000 0.005000
v -0.014712 0.002926 0.005000
v -0.013858 0.005740 0.005000
v -0.012472 0.008333 0.005000
v -0.010607 0.010607 0.005000
v -0.008334 0.012472 0.005000
v -0.005740 0.013858 0.005000
v -0.002926 0.014712 0.005000
v 0.000000 0.000000 0.000000
v 0.000000 -0.000000 0.005000
v 0.000000 0.007000 0.105000
v 0.001366 0.006865 0.105000
v 0.002679 0.006467 0.105000
v 0.003889 0.005820 0.105000
v 0.004950 0.004950 0.105000
v 0.005820 0.003889 0.105000
v 0.006467 0.002679 0.105000
v 0.006865 0.001366 0.105000
v 0.007000 -0.000000 0.105000
v 0.006865 -0.001366 0.105000
v 0.006467 -0.002679 0.105000
v 0.005820 -0.003889 0.105000
v 0.004950 -0.004950 0.105000
v 0.003889 -0.005820 0.105000
v 0.002679 -0.006467 0.105000
v 0.001366 -0.006866 0.105000
v -0.000000 -0.007000 0.105000
v -0.001366 -0.006866 0.105000
v -0.002679 -0.006467 0.105000
v -0.003889 -0.005820 0.105000
v -0.004950 -0.004950 0.105000
v -0.005820 -0.003889 0.105000
v -0.006467 -0.002679 0.105000
v -0.006865 -0.001366 0.105000
v -0.007000 0.000000 0.105000
v -0.006865 0.001366 0.105000
v -0.006467 0.002679 0.105000
v -0.005820 0.003889 0.105000
v -0.004950 0.004950 0.105000
v -0.003889 0.005820 0.105000
v -0.002679 0.006467 0.105000
v -0.001366 0.006865 0.105000
v 0.000000 0.007000 0.135000
v 0.001366 0.006865 0.135000
v 0.002679 0.006467 0.135000
v 0.003889 0.005820 0.135000
v 0.004950 0.004950 0.135000
v 0.005820 0.003889 0.135000
v 0.006467 0.002679 0.135000
v 0.006866 0.001366 0.135000
v 0.007000 -0.000000 0.135000
v 0.006865 -0.001366 0.135000
v 0.006467 -0.002679 0.135000
v 0.005820 -0.003889 0.135000
v 0.004950 -0.004950 0.135000
v 0.003889 -0.005820 0.135000
v 0.002679 -0.006467 0.135000
v 0.001366 -0.006866 0.135000
v 0.000000 -0.007000 0.135000
v -0.001366 -0.006866 0.135000
v -0.002679 -0.006467 0.135000
v -0.003889 -0.005820 0.135000
v -0.004950 -0.004950 0.135000
v -0.005820 -0.003889 0.135000
v -0.006467 -0.002679 0.135000
v -0.006865 -0.001366 0.135000
v -0.007000 -0.000000 0.135000
v -0.006866 0.001366 0.135000
v -0.006467 0.002679 0.135000
v -0.005820 0.003889 0.135000
v -0.004950 0.004950 0.135000
v -0.003889 0.005820 0.135000
v -0.002679 0.006467 0.135000
v -0.001366 0.006865 0.135000
v 0.000000 -0.000000 0.105000
v 0.000000 -0.000000 0.135000
v 0.020000 0.020000 0.025000
v 0.020000 -0.020000 0.025000
v -0.020000 -0.020000 0.025000
v -0.020000 0.020000 0.025000
v 0.020000 0.020000 0.035000
v 0.020000 -0.020000 0.035000
v -0.020000 -0.020000 0.035000
v -0.020000 0.020000 0.035000
v 0.000000 0.007000 0.135000
v 0.001366 0.006865 0.135000
v 0.002679 0.006467 0.135000
v 0.003889 0.005820 0.135000
v 0.004950 0.004950 0.135000
v 0.005820 0.003889 0.135000
v 0.006467 0.002679 0.135000
v 0.006865 0.001366 0.135000
v 0.007000 -0.000000 0.135000
v 0.006865 -0.001366 0.135000
v 0.006467 -0.002679 0.135000
v 0.005820 -0.003889 0.135000
v 0.004950 -0.004950 0.135000
v 0.003889 -0.005820 0.135000
v 0.002679 -0.006467 0.135000
v 0.001366 -0.006866 0.135000
v -0.000000 -0.007000 0.135000
v -0.001366 -0.006866 0.135000
v -0.002679 -0.006467 0.135000
v -0.003889 -0.005820 0.135000
v -0.004950 -0.004950 0.135000
v -0.005820 -0.003889 0.135000
v -0.006467 -0.002679 0.135000
v -0.006865 -0.001366 0.135000
v -0.007000 0.000000 0.135000
v -0.006865 0.001366 0.135000
v -0.006467 0.002679 0.135000
v -0.005820 0.003889 0.135000
v -0.004950 0.004950 0.135000
v -0.003889 0.005820 0.135000
v -0.002679 0.006467 0.135000
v -0.001366 0.006865 0.135000
v 0.000000 -0.000000 0.175000
v 0.000000 -0.000000 0.135000
v 0.020004 0.015000 0.034747
v 0.020004 -0.015000 0.034747
v 0.010013 -0.015000 0.034310
v 0.010013 0.015000 0.034310
v 0.017387 0.015000 0.094690
v 0.017387 -0.015000 0.094690
v 0.007396 -0.015000 0.094253
v 0.007396 0.015000 0.094253
v 0.010000 0.020000 0.035000
v 0.010000 -0.020000 0.035000
v -0.010000 -0.020000 0.035000
v -0.010000 0.020000 0.035000
v 0.006951 0.014087 0.105000
v 0.007012 -0.013995 0.105000
v -0.006962 -0.013964 0.105000
v -0.007004 0.014096 0.105000
v -0.010013 0.015000 0.034310
v -0.010013 -0.015000 0.034310
v -0.020004 -0.015000 0.034747
v -0.020004 0.015000 0.034747
v -0.007396 0.015000 0.094253
v -0.007396 -0.015000 0.094253
v -0.017387 -0.015000 0.094690
v -0.017387 0.015000 0.094690
v 0.010000 0.010000 0.005000
v 0.010000 -0.010000 0.005000
v -0.010000 -0.010000 0.005000
v -0.010000 0.010000 0.005000
v 0.004947 0.005021 0.025000
v 0.005024 -0.004993 0.025000
v -0.005045 -0.004988 0.025000
v -0.004982 0.004990 0.025000
vn 0.0000 0.0000 -1.0000
vn 0.0000 0.7279 -0.6857
vn 0.1420 0.7139 -0.6857
vn 0.0000 0.0000 1.0000
vn 0.1420 0.7139 0.6857
vn 0.0000 0.7279 0.6857
vn 0.2785 0.6725 -0.6857
vn 0.2785 0.6725 0.6857
vn 0.4044 0.6052 -0.6857
vn 0.4044 0.6052 0.6857
vn 0.5147 0.5147 -0.6857
vn 0.5147 0.5147 0.6857
vn 0.6052 0.4044 -0.6857
vn 0.6052 0.4044 0.6857
vn 0.6725 0.2785 -0.6857
vn 0.6725 0.2785 0.6857
vn 0.7139 0.1420 -0.6857
vn 0.7139 0.1420 0.6857
vn 0.7279 0.0000 -0.6857
vn 0.7279 0.0000 0.6857
vn 0.7139 -0.1420 -0.6857
vn 0.7139 -0.1420 0.6857
vn 0.6725 -0.2785 -0.6857
vn 0.6725 -0.2785 0.6857
vn 0.6052 -0.4044 -0.6857
vn 0.6052 -0.4044 0.6857
vn 0.5147 -0.5147 -0.6857
vn 0.5147 -0.5147 0.6857
vn 0.4044 -0.6052 -0.6857
vn 0.4044 -0.6052 0.6857
vn 0.2785 -0.6725 -0.6857
vn 0.2785 -0.6725 0.6857
vn 0.1420 -0.7139 -0.6857
vn 0.1420 -0.7139 0.6857
vn 0.0000 -0.7279 -0.6857
vn 0.0000 -0.7279 0.6857
vn -0.1420 -0.7139 -0.6857
vn -0.1420 -0.7139 0.6857
vn -0.2785 -0.6725 -0.6857
vn -0.2785 -0.6725 0.6857
vn -0.4044 -0.6052 -0.6857
vn -0.4044 -0.6052 0.6857
vn -0.5147 -0.5147 -0.6857
vn -0.5147 -0.5147 0.6857
vn -0.6052 -0.4044 -0.6857
vn -0.6052 -0.4044 0.6857
vn -0.6725 -0.2785 -0.6857
vn -0.6725 -0.2785 0.6857
vn -0.7139 -0.1420 -0.6857
vn -0.7139 -0.1420 0.6857
vn -0.7279 0.0000 -0.6857
vn -0.7279 0.0000 0.6857
vn -0.7139 0.1420 -0.6857
vn -0.7139 0.1420 0.6857
vn -0.6725 0.2785 -0.6857
vn -0.6725 0.2785 0.6857
vn -0.6052 0.4044 -0.6857
vn -0.6052 0.4044 0.6857
vn -0.5147 0.5147 -0.6857
vn -0.5147 0.5147 0.6857
vn -0.4044 0.6052 -0.6857
vn -0.4044 0.6052 0.6857
vn -0.2785 0.6725 -0.6857
vn -0.2785 0.6725 0.6857
vn -0.1420 0.7139 -0.6857
vn -0.1420 0.7139 0.6857
vn 0.5773 0.5773 -0.5773
vn 0.5773 -0.5773 -0.5773
vn -0.5773 -0.5773 -0.5773
vn -0.5773 0.5773 -0.5773
vn 0.5773 0.5773 0.5773
vn -0.5773 0.5773 0.5773
vn -0.5773 -0.5773 0.5773
vn 0.5773 -0.5773 0.5773
vn 0.1530 0.7690 -0.6207
vn 0.0000 0.7841 -0.6207
vn 0.3000 0.7244 -0.6207
vn 0.4356 0.6519 -0.6207
vn 0.5544 0.5544 -0.6207
vn 0.6519 0.4356 -0.6207
vn 0.7244 0.3000 -0.6207
vn 0.7690 0.1530 -0.6207
vn 0.7841 0.0000 -0.6207
vn 0.7690 -0.1530 -0.6207
vn 0.7244 -0.3000 -0.6207
vn 0.6519 -0.4356 -0.6207
vn 0.5544 -0.5544 -0.6207
vn 0.4356 -0.6519 -0.6207
vn 0.3000 -0.7244 -0.6207
vn 0.1530 -0.7690 -0.6207
vn 0.0000 -0.7841 -0.6207
vn -0.1530 -0.7690 -0.6207
vn -0.3000 -0.7244 -0.6207
vn -0.4356 -0.6519 -0.6207
vn -0.5544 -0.5544 -0.6207
vn -0.6519 -0.4356 -0.6207
vn -0.7244 -0.3000 -0.6207
vn -0.7690 -0.1530 -0.6207
vn -0.7841 0.0000 -0.6207
vn -0.7690 0.1530 -0.6207
vn -0.7244 0.3000 -0.6207
vn -0.6519 0.4356 -0.6207
vn -0.5544 0.5544 -0.6207
vn -0.4356 0.6519 -0.6207
vn -0.3000 0.7244 -0.6207
vn -0.1530 0.7690 -0.6207
vn 0.6020 0.5773 -0.5516
vn 0.6020 -0.5773 -0.5516
vn -0.5516 -0.5773 -0.6020
vn -0.5516 0.5773 -0.6020
vn 0.5516 0.5773 0.6020
vn -0.6020 0.5773 0.5516
vn -0.6020 -0.5773 0.5516
vn 0.5516 -0.5773 0.6020
vn 0.5860 0.6008 -0.5436
vn 0.5858 -0.6011 -0.5436
vn -0.5861 -0.6012 -0.5431
vn -0.5860 0.6006 -0.5439
vn 0.5673 0.5523 0.6108
vn -0.5681 0.5522 0.6102
vn -0.5676 -0.5513 0.6113
vn 0.5682 -0.5519 0.6103
vn 0.5516 0.5773 -0.6020
vn 0.5516 -0.5773 -0.6020
vn -0.6020 -0.5773 -0.5516
vn -0.6020 0.5773 -0.5516
vn 0.6020 0.5773 0.5516
vn -0.5516 0.5773 0.6020
vn -0.5516 -0.5773 0.6020
vn 0.6020 -0.5773 0.5516
vn 0.6308 0.6315 -0.4509
vn 0.6315 -0.6308 -0.4509
vn -0.6312 -0.6309 -0.4512
vn -0.6308 0.6312 -0.4512
vn 0.5012 0.5048 0.7028
vn -0.5025 0.5033 0.7029
vn -0.5050 -0.5025 0.7017
vn 0.5047 -0.5026 0.7018
usemtl Material
s 1
f 228//98 164//99 165//100
f 229//101 197//102 196//103
f 228//98 165//100 166//104
f 229//101 198//105 197//102
f 228//98 166//104 167//106
f 229//101 199//107 198//105
f 228//98 167//106 168//108
f 229//101 200//109 199//107
f 228//98 168//108 169//110
f 229//101 201//111 200//109
f 228//98 169//110 170//112
f 229//101 202//113 201//111
f 228//98 170//112 171//114
f 229//101 203//115 202//113
f 228//98 171//114 172//116
f 229//101 204//117 203//115
f 228//98 172//116 173//118
f 229//101 205//119 204//117
f 228//98 173//118 174//120
f 229//101 206//121 205//119
f 228//98 174//120 175//122
f 229//101 207//123 206//121
f 228//98 175//122 176//124
f 229//101 208//125 207//123
f 228//98 176//124 177//126
f 229//101 209//127 208//125
f 228//98 177//126 178//128
f 229//101 210//129 209//127
f 228//98 178//128 179//130
f 229//101 211//131 210//129
f 228//98 179//130 180//132
f 229//101 212//133 211//131
f 228//98 180//132 181//134
f 229//101 213//135 212//133
f 228//98 181//134 182//136
f 229//101 214//137 213//135
f 228//98 182//136 183//138
f 229//101 215//139 214//137
f 228//98 183//138 184//140
f 229//101 216//141 215//139
f 228//98 184//140 185//142
f 229//101 217//143 216//141
f 228//98 185//142 186//144
f 229//101 218//145 217//143
f 228//98 186//144 187//146
f 229//101 219//147 218//145
f 228//98 187//146 188//148
f 229//101 220//149 219//147
f 228//98 188//148 189//150
f 229//101 221//151 220//149
f 228//98 189//150 190//152
f 229//101 222//153 221//151
f 228//98 190//152 191//154
f 229//101 223//155 222//153
f 228//98 191//154 192//156
f 229//101 224//157 223//155
f 228//98 192//156 193//158
f 229//101 225//159 224//157
f 228//98 193//158 194//160
f 229//101 226//161 225//159
f 228//98 194//160 195//162
f 229//101 227//163 226//161
f 195//162 164//99 228//98
f 229//101 196//103 227//163
f 164//99 196//103 197//102 165//100
f 165//100 197//102 198//105 166//104
f 166//104 198//105 199//107 167//106
f 167//106 199//107 200//109 168//108
f 168//108 200//109 201//111 169//110
f 169//110 201//111 202//113 170//112
f 170//112 202//113 203//115 171//114
f 171//114 203//115 204//117 172//116
f 172//116 204//117 205//119 173//118
f 173//118 205//119 206//121 174//120
f 174//120 206//121 207//123 175//122
f 175//122 207//123 208//125 176//124
f 176//124 208//125 209//127 177//126
f 177//126 209//127 210//129 178//128
f 178//128 210//129 211//131 179//130
f 179//130 211//131 212//133 180//132
f 180//132 212//133 213//135 181//134
f 181//134 213//135 214//137 182//136
f 182//136 214//137 215//139 183//138
f 183//138 215//139 216//141 184//140
f 184//140 216//141 217//143 185//142
f 185//142 217//143 218//145 186//144
f 186//144 218//145 219//147 187//146
f 187//146 219//147 220//149 188//148
f 188//148 220//149 221//151 189//150
f 189//150 221//151 222//153 190//152
f 190//152 222//153 223//155 191//154
f 191//154 223//155 224//157 192//156
f 192//156 224//157 225//159 193//158
f 193//158 225//159 226//161 194//160
f 194//160 226//161 227//163 195//162
f 196//103 164//99 195//162 227//163
usemtl Material.001
f 294//98 230//99 231//100
f 295//101 263//102 262//103
f 294//98 231//100 232//104
f 295//101 264//105 263//102
f 294//98 232//104 233//106
f 295//101 265//107 264//105
f 294//98 233//106 234//108
f 295//101 266//109 265//107
f 294//98 234//108 235//110
f 295//101 267//111 266//109
f 294//98 235//110 236//112
f 295//101 268//113 267//111
f 294//98 236//112 237//114
f 295//101 269//115 268//113
f 294//98 237//114 238//116
f 295//101 270//117 269//115
f 294//98 238//116 239//118
f 295//101 271//119 270//117
f 294//98 239//118 240//120
f 295//101 272//121 271//119
f 294//98 240//120 241//122
f 295//101 273//123 272//121
f 294//98 241//122 242//124
f 295//101 274//125 273//123
f 294//98 242//124 243//126
f 295//101 275//127 274//125
f 294//98 243//126 244//128
f 295//101 276//129 275//127
f 294//98 244//128 245//130
f 295//101 277//131 276//129
f 294//98 245//130 246//132
f 295//101 278//133 277//131
f 294//98 246//132 247//134
f 295//101 279//135 278//133
f 294//98 247//134 248//136
f 295//101 280//137 279//135
f 294//98 248//136 249//138
f 295//101 281//139 280//137
f 294//98 249//138 250//140
f 295//101 282//141 281//139
f 294//98 250//140 251//142
f 295//101 283//143 282//141
f 294//98 251//142 252//144
f 295//101 284//145 283//143
f 294//98 252//144 253//146
f 295//101 285//147 284//145
f 294//98 253//146 254//148
f 295//101 286//149 285//147
f 294//98 254//148 255//150
f 295//101 287//151 286//149
f 294//98 255//150 256//152
f 295//101 288//153 287//151
f 294//98 256//152 257//154
f 295//101 289//155 288//153
f 294//98 257//154 258//156
f 295//101 290//157 289//155
f 294//98 258//156 259//158
f 295//101 291//159 290//157
f 294//98 259//158 260//160
f 295//101 292//161 291//159
f 294//98 260//160 261//162
f 295//101 293//163 292//161
f 261//162 230//99 294//98
f 295//101 262//103 293//163
f 230//99 262//103 263//102 231//100
f 231//100 263//102 264//105 232//104
f 232//104 264//105 265//107 233//106
f 233//106 265//107 266//109 234//108
f 234//108 266//109 267//111 235//110
f 235//110 267//111 268//113 236//112
f 236//112 268//113 269//115 237//114
f 237//114 269//115 270//117 238//116
f 238//116 270//117 271//119 239//118
f 239//118 271//119 272//121 240//120
f 240//120 272//121 273//123 241//122
f 241//122 273//123 274//125 242//124
f 242//124 274//125 275//127 243//126
f 243//126 275//127 276//129 244//128
f 244//128 276//129 277//131 245//130
f 245//130 277//131 278//133 246//132
f 246//132 278//133 279//135 247//134
f 247//134 279//135 280//137 248//136
f 248//136 280//137 281//139 249//138
f 249//138 281//139 282//141 250//140
f 250//140 282//141 283//143 251//142
f 251//142 283//143 284//145 252//144
f 252//144 284//145 285//147 253//146
f 253//146 285//147 286//149 254//148
f 254//148 286//149 287//151 255//150
f 255//150 287//151 288//153 256//152
f 256//152 288//153 289//155 257//154
f 257//154 289//155 290//157 258//156
f 258//156 290//157 291//159 259//158
f 259//158 291//159 292//161 260//160
f 260//160 292//161 293//163 261//162
f 262//103 230//99 261//162 293//163
usemtl Material.003
f 296//164 297//165 298//166 299//167
f 300//168 303//169 302//170 301//171
f 296//164 300//168 301//171 297//165
f 297//165 301//171 302//170 298//166
f 298//166 302//170 303//169 299//167
f 300//168 296//164 299//167 303//169
usemtl Material.007
f 305//172 304//173 336//101
f 336//101 306//174 305//172
f 336//101 307//175 306//174
f 336//101 308//176 307//175
f 336//101 309//177 308//176
f 336//101 310//178 309//177
f 336//101 311//179 310//178
f 336//101 312//180 311//179
f 336//101 313//181 312//180
f 336//101 314//182 313//181
f 336//101 315//183 314//182
f 336//101 316//184 315//183
f 336//101 317//185 316//184
f 336//101 318//186 317//185
f 336//101 319//187 318//186
f 336//101 320//188 319//187
f 336//101 321//189 320//188
f 336//101 322//190 321//189
f 336//101 323//191 322//190
f 336//101 324//192 323//191
f 336//101 325//193 324//192
f 336//101 326//194 325//193
f 336//101 327//195 326//194
f 336//101 328//196 327//195
f 336//101 329//197 328//196
f 336//101 330//198 329//197
f 336//101 331//199 330//198
f 336//101 332//200 331//199
f 336//101 333//201 332//200
f 336//101 334//202 333//201
f 336//101 335//203 334//202
f 336//101 304//173 335//203
f 337//98 304//173 305//172
f 337//98 305//172 306//174
f 337//98 306//174 307//175
f 337//98 307//175 308//176
f 337//98 308//176 309//177
f 337//98 309//177 310//178
f 337//98 310//178 311//179
f 337//98 311//179 312//180
f 337//98 312//180 313//181
f 337//98 313//181 314//182
f 337//98 314//182 315//183
f 337//98 315//183 316//184
f 337//98 316//184 317//185
f 337//98 317//185 318//186
f 337//98 318//186 319//187
f 337//98 319//187 320//188
f 337//98 320//188 321//189
f 337//98 321//189 322//190
f 337//98 322//190 323//191
f 337//98 323//191 324//192
f 337//98 324//192 325//193
f 337//98 325//193 326//194
f 337//98 326//194 327//195
f 337//98 327//195 328//196
f 337//98 328//196 329//197
f 337//98 329//197 330//198
f 337//98 330//198 331//199
f 337//98 331//199 332//200
f 337//98 332//200 333//201
f 337//98 333//201 334//202
f 337//98 334//202 335//203
f 335//203 304//173 337//98
usemtl Material.004
f 338//204 339//205 340//206 341//207
f 342//208 345//209 344//210 343//211
f 338//204 342//208 343//211 339//205
f 339//205 343//211 344//210 340//206
f 340//206 344//210 345//209 341//207
f 342//208 338//204 341//207 345//209
usemtl Material.006
f 346//212 347//213 348//214 349//215
f 350//216 353//217 352//218 351//219
f 346//212 350//216 351//219 347//213
f 347//213 351//219 352//218 348//214
f 348//214 352//218 353//217 349//215
f 350//216 346//212 349//215 353//217
usemtl Material.005
f 354//220 355//221 356//222 357//223
f 358//224 361//225 360//226 359//227
f 354//220 358//224 359//227 355//221
f 355//221 359//227 360//226 356//222
f 356//222 360//226 361//225 357//223
f 358//224 354//220 357//223 361//225
usemtl Material.002
f 362//228 363//229 364//230 365//231
f 366//232 369//233 368//234 367//235
f 362//228 366//232 367//235 363//229
f 363//229 367//235 368//234 364//230
f 364//230 368//234 369//233 365//231
f 366//232 362//228 365//231 369//233
l 164 228
l 164 165
l 165 228
l 196 229
l 196 197
l 197 229
l 165 166
l 166 228
l 197 198
l 198 229
l 166 167
l 167 228
l 198 199
l 199 229
l 167 168
l 168 228
l 199 200
l 200 229
l 168 169
l 169 228
l 200 201
l 201 229
l 169 170
l 170 228
l 201 202
l 202 229
l 170 171
l 171 228
l 202 203
l 203 229
l 171 172
l 172 228
l 203 204
l 204 229
l 172 173
l 173 228
l 204 205
l 205 229
l 173 174
l 174 228
l 205 206
l 206 229
l 174 175
l 175 228
l 206 207
l 207 229
l 175 176
l 176 228
l 207 208
l 208 229
l 176 177
l 177 228
l 208 209
l 209 229
l 177 178
l 178 228
l 209 210
l 210 229
l 178 179
l 179 228
l 210 211
l 211 229
l 179 180
l 180 228
l 211 212
l 212 229
l 180 181
l 181 228
l 212 213
l 213 229
l 181 182
l 182 228
l 213 214
l 214 229
l 182 183
l 183 228
l 214 215
l 215 229
l 183 184
l 184 228
l 215 216
l 216 229
l 184 185
l 185 228
l 216 217
l 217 229
l 185 186
l 186 228
l 217 218
l 218 229
l 186 187
l 187 228
l 218 219
l 219 229
l 187 188
l 188 228
l 219 220
l 220 229
l 188 189
l 189 228
l 220 221
l 221 229
l 189 190
l 190 228
l 221 222
l 222 229
l 190 191
l 191 228
l 222 223
l 223 229
l 191 192
l 192 228
l 223 224
l 224 229
l 192 193
l 193 228
l 224 225
l 225 229
l 193 194
l 194 228
l 225 226
l 226 229
l 194 195
l 195 228
l 226 227
l 227 229
l 164 195
l 196 227
l 165 197
l 164 196
l 166 198
l 167 199
l 168 200
l 169 201
l 170 202
l 171 203
l 172 204
l 173 205
l 174 206
l 175 207
l 176 208
l 177 209
l 178 210
l 179 211
l 180 212
l 181 213
l 182 214
l 183 215
l 184 216
l 185 217
l 186 218
l 187 219
l 188 220
l 189 221
l 190 222
l 191 223
l 192 224
l 193 225
l 194 226
l 195 227
l 230 294
l 230 231
l 231 294
l 262 295
l 262 263
l 263 295
l 231 232
l 232 294
l 263 264
l 264 295
l 232 233
l 233 294
l 264 265
l 265 295
l 233 234
l 234 294
l 265 266
l 266 295
l 234 235
l 235 294
l 266 267
l 267 295
l 235 236
l 236 294
l 267 268
l 268 295
l 236 237
l 237 294
l 268 269
l 269 295
l 237 238
l 238 294
l 269 270
l 270 295
l 238 239
l 239 294
l 270 271
l 271 295
l 239 240
l 240 294
l 271 272
l 272 295
l 240 241
l 241 294
l 272 273
l 273 295
l 241 242
l 242 294
l 273 274
l 274 295
l 242 243
l 243 294
l 274 275
l 275 295
l 243 244
l 244 294
l 275 276
l 276 295
l 244 245
l 245 294
l 276 277
l 277 295
l 245 246
l 246 294
l 277 278
l 278 295
l 246 247
l 247 294
l 278 279
l 279 295
l 247 248
l 248 294
l 279 280
l 280 295
l 248 249
l 249 294
l 280 281
l 281 295
l 249 250
l 250 294
l 281 282
l 282 295
l 250 251
l 251 294
l 282 283
l 283 295
l 251 252
l 252 294
l 283 284
l 284 295
l 252 253
l 253 294
l 284 285
l 285 295
l 253 254
l 254 294
l 285 286
l 286 295
l 254 255
l 255 294
l 286 287
l 287 295
l 255 256
l 256 294
l 287 288
l 288 295
l 256 257
l 257 294
l 288 289
l 289 295
l 257 258
l 258 294
l 289 290
l 290 295
l 258 259
l 259 294
l 290 291
l 291 295
l 259 260
l 260 294
l 291 292
l 292 295
l 260 261
l 261 294
l 292 293
l 293 295
l 230 261
l 262 293
l 231 263
l 230 262
l 232 264
l 233 265
l 234 266
l 235 267
l 236 268
l 237 269
l 238 270
l 239 271
l 240 272
l 241 273
l 242 274
l 243 275
l 244 276
l 245 277
l 246 278
l 247 279
l 248 280
l 249 281
l 250 282
l 251 283
l 252 284
l 253 285
l 254 286
l 255 287
l 256 288
l 257 289
l 258 290
l 259 291
l 260 292
l 261 293
l 297 298
l 296 297
l 296 299
l 298 299
l 300 301
l 301 302
l 302 303
l 300 303
l 297 301
l 296 300
l 298 302
l 299 303
l 304 336
l 304 305
l 305 336
l 305 306
l 306 336
l 306 307
l 307 336
l 307 308
l 308 336
l 308 309
l 309 336
l 309 310
l 310 336
l 310 311
l 311 336
l 311 312
l 312 336
l 312 313
l 313 336
l 313 314
l 314 336
l 314 315
l 315 336
l 315 316
l 316 336
l 316 317
l 317 336
l 317 318
l 318 336
l 318 319
l 319 336
l 319 320
l 320 336
l 320 321
l 321 336
l 321 322
l 322 336
l 322 323
l 323 336
l 323 324
l 324 336
l 324 325
l 325 336
l 325 326
l 326 336
l 326 327
l 327 336
l 327 328
l 328 336
l 328 329
l 329 336
l 329 330
l 330 336
l 330 331
l 331 336
l 331 332
l 332 336
l 332 333
l 333 336
l 333 334
l 334 336
l 334 335
l 335 336
l 304 335
l 305 337
l 304 337
l 306 337
l 307 337
l 308 337
l 309 337
l 310 337
l 311 337
l 312 337
l 313 337
l 314 337
l 315 337
l 316 337
l 317 337
l 318 337
l 319 337
l 320 337
l 321 337
l 322 337
l 323 337
l 324 337
l 325 337
l 326 337
l 327 337
l 328 337
l 329 337
l 330 337
l 331 337
l 332 337
l 333 337
l 334 337
l 335 337
l 339 340
l 338 339
l 338 341
l 340 341
l 342 343
l 343 344
l 344 345
l 342 345
l 339 343
l 338 342
l 340 344
l 341 345
l 347 348
l 346 347
l 346 349
l 348 349
l 350 351
l 351 352
l 352 353
l 350 353
l 347 351
l 346 350
l 348 352
l 349 353
l 355 356
l 354 355
l 354 357
l 356 357
l 358 359
l 359 360
l 360 361
l 358 361
l 355 359
l 354 358
l 356 360
l 357 361
l 363 364
l 362 363
l 362 365
l 364 365
l 366 367
l 367 368
l 368 369
l 366 369
l 363 367
l 362 366
l 364 368
l 365 369
