# Blender v2.82 (sub 7) OBJ File: 'Pen_tool_Roboshop.blend'
# www.blender.org
mtllib Pen_tool_Roboshop.mtl
o Cylinder
v 0.000000 0.015000 0.000000
v 0.002926 0.014712 0.000000
v 0.005740 0.013858 0.000000
v 0.008334 0.012472 0.000000
v 0.010607 0.010607 0.000000
v 0.012472 0.008334 0.000000
v 0.013858 0.005740 0.000000
v 0.014712 0.002926 0.000000
v 0.015000 0.000000 0.000000
v 0.014712 -0.002926 -0.000000
v 0.013858 -0.005740 -0.000000
v 0.012472 -0.008334 -0.000000
v 0.010607 -0.010607 -0.000000
v 0.008334 -0.012472 -0.000000
v 0.005740 -0.013858 -0.000000
v 0.002926 -0.014712 -0.000000
v -0.000000 -0.015000 -0.000000
v -0.002926 -0.014712 -0.000000
v -0.005740 -0.013858 -0.000000
v -0.008334 -0.012472 -0.000000
v -0.010607 -0.010607 -0.000000
v -0.012472 -0.008334 -0.000000
v -0.013858 -0.005740 -0.000000
v -0.014712 -0.002926 -0.000000
v -0.015000 0.000000 0.000000
v -0.014712 0.002926 0.000000
v -0.013858 0.005740 0.000000
v -0.012472 0.008334 0.000000
v -0.010607 0.010607 0.000000
v -0.008334 0.012472 0.000000
v -0.005740 0.013858 0.000000
v -0.002926 0.014712 0.000000
v 0.000000 0.015000 0.005000
v 0.002926 0.014712 0.005000
v 0.005740 0.013858 0.005000
v 0.008334 0.012472 0.005000
v 0.010607 0.010607 0.005000
v 0.012472 0.008334 0.005000
v 0.013858 0.005740 0.005000
v 0.014712 0.002926 0.005000
v 0.015000 -0.000000 0.005000
v 0.014712 -0.002926 0.005000
v 0.013858 -0.005740 0.005000
v 0.012472 -0.008334 0.005000
v 0.010607 -0.010607 0.005000
v 0.008334 -0.012472 0.005000
v 0.005740 -0.013858 0.005000
v 0.002926 -0.014712 0.005000
v 0.000000 -0.015000 0.005000
v -0.002926 -0.014712 0.005000
v -0.005740 -0.013858 0.005000
v -0.008334 -0.012472 0.005000
v -0.010607 -0.010607 0.005000
v -0.012472 -0.008334 0.005000
v -0.013858 -0.005740 0.005000
v -0.014712 -0.002926 0.005000
v -0.015000 -0.000000 0.005000
v -0.014712 0.002926 0.005000
v -0.013858 0.005740 0.005000
v -0.012472 0.008333 0.005000
v -0.010607 0.010607 0.005000
v -0.008334 0.012472 0.005000
v -0.005740 0.013858 0.005000
v -0.002926 0.014712 0.005000
v 0.000000 0.000000 0.000000
v 0.000000 -0.000000 0.005000
v 0.000000 0.007000 0.105000
v 0.001366 0.006865 0.105000
v 0.002679 0.006467 0.105000
v 0.003889 0.005820 0.105000
v 0.004950 0.004950 0.105000
v 0.005820 0.003889 0.105000
v 0.006467 0.002679 0.105000
v 0.006865 0.001366 0.105000
v 0.007000 -0.000000 0.105000
v 0.006865 -0.001366 0.105000
v 0.006467 -0.002679 0.105000
v 0.005820 -0.003889 0.105000
v 0.004950 -0.004950 0.105000
v 0.003889 -0.005820 0.105000
v 0.002679 -0.006467 0.105000
v 0.001366 -0.006866 0.105000
v -0.000000 -0.007000 0.105000
v -0.001366 -0.006866 0.105000
v -0.002679 -0.006467 0.105000
v -0.003889 -0.005820 0.105000
v -0.004950 -0.004950 0.105000
v -0.005820 -0.003889 0.105000
v -0.006467 -0.002679 0.105000
v -0.006865 -0.001366 0.105000
v -0.007000 0.000000 0.105000
v -0.006865 0.001366 0.105000
v -0.006467 0.002679 0.105000
v -0.005820 0.003889 0.105000
v -0.004950 0.004950 0.105000
v -0.003889 0.005820 0.105000
v -0.002679 0.006467 0.105000
v -0.001366 0.006865 0.105000
v 0.000000 0.007000 0.135000
v 0.001366 0.006865 0.135000
v 0.002679 0.006467 0.135000
v 0.003889 0.005820 0.135000
v 0.004950 0.004950 0.135000
v 0.005820 0.003889 0.135000
v 0.006467 0.002679 0.135000
v 0.006866 0.001366 0.135000
v 0.007000 -0.000000 0.135000
v 0.006865 -0.001366 0.135000
v 0.006467 -0.002679 0.135000
v 0.005820 -0.003889 0.135000
v 0.004950 -0.004950 0.135000
v 0.003889 -0.005820 0.135000
v 0.002679 -0.006467 0.135000
v 0.001366 -0.006866 0.135000
v 0.000000 -0.007000 0.135000
v -0.001366 -0.006866 0.135000
v -0.002679 -0.006467 0.135000
v -0.003889 -0.005820 0.135000
v -0.004950 -0.004950 0.135000
v -0.005820 -0.003889 0.135000
v -0.006467 -0.002679 0.135000
v -0.006865 -0.001366 0.135000
v -0.007000 -0.000000 0.135000
v -0.006866 0.001366 0.135000
v -0.006467 0.002679 0.135000
v -0.005820 0.003889 0.135000
v -0.004950 0.004950 0.135000
v -0.003889 0.005820 0.135000
v -0.002679 0.006467 0.135000
v -0.001366 0.006865 0.135000
v 0.000000 -0.000000 0.105000
v 0.000000 -0.000000 0.135000
v 0.020000 0.020000 0.025000
v 0.020000 -0.020000 0.025000
v -0.020000 -0.020000 0.025000
v -0.020000 0.020000 0.025000
v 0.020000 0.020000 0.035000
v 0.020000 -0.020000 0.035000
v -0.020000 -0.020000 0.035000
v -0.020000 0.020000 0.035000
v 0.000000 0.007000 0.135000
v 0.001366 0.006865 0.135000
v 0.002679 0.006467 0.135000
v 0.003889 0.005820 0.135000
v 0.004950 0.004950 0.135000
v 0.005820 0.003889 0.135000
v 0.006467 0.002679 0.135000
v 0.006865 0.001366 0.135000
v 0.007000 -0.000000 0.135000
v 0.006865 -0.001366 0.135000
v 0.006467 -0.002679 0.135000
v 0.005820 -0.003889 0.135000
v 0.004950 -0.004950 0.135000
v 0.003889 -0.005820 0.135000
v 0.002679 -0.006467 0.135000
v 0.001366 -0.006866 0.135000
v -0.000000 -0.007000 0.135000
v -0.001366 -0.006866 0.135000
v -0.002679 -0.006467 0.135000
v -0.003889 -0.005820 0.135000
v -0.004950 -0.004950 0.135000
v -0.005820 -0.003889 0.135000
v -0.006467 -0.002679 0.135000
v -0.006865 -0.001366 0.135000
v -0.007000 0.000000 0.135000
v -0.006865 0.001366 0.135000
v -0.006467 0.002679 0.135000
v -0.005820 0.003889 0.135000
v -0.004950 0.004950 0.135000
v -0.003889 0.005820 0.135000
v -0.002679 0.006467 0.135000
v -0.001366 0.006865 0.135000
v 0.000000 -0.000000 0.175000
v 0.000000 -0.000000 0.135000
v 0.020004 0.015000 0.034747
v 0.020004 -0.015000 0.034747
v 0.010013 -0.015000 0.034310
v 0.010013 0.015000 0.034310
v 0.017387 0.015000 0.094690
v 0.017387 -0.015000 0.094690
v 0.007396 -0.015000 0.094253
v 0.007396 0.015000 0.094253
v 0.010000 0.020000 0.035000
v 0.010000 -0.020000 0.035000
v -0.010000 -0.020000 0.035000
v -0.010000 0.020000 0.035000
v 0.006951 0.014087 0.105000
v 0.007012 -0.013995 0.105000
v -0.006962 -0.013964 0.105000
v -0.007004 0.014096 0.105000
v -0.010013 0.015000 0.034310
v -0.010013 -0.015000 0.034310
v -0.020004 -0.015000 0.034747
v -0.020004 0.015000 0.034747
v -0.007396 0.015000 0.094253
v -0.007396 -0.015000 0.094253
v -0.017387 -0.015000 0.094690
v -0.017387 0.015000 0.094690
v 0.010000 0.010000 0.005000
v 0.010000 -0.010000 0.005000
v -0.010000 -0.010000 0.005000
v -0.010000 0.010000 0.005000
v 0.004947 0.005021 0.025000
v 0.005024 -0.004993 0.025000
v -0.005045 -0.004988 0.025000
v -0.004982 0.004990 0.025000
vn 0.0000 0.0000 -1.0000
vn 0.0000 0.7279 -0.6857
vn 0.1420 0.7139 -0.6857
vn 0.0000 0.0000 1.0000
vn 0.1420 0.7139 0.6857
vn 0.0000 0.7279 0.6857
vn 0.2785 0.6725 -0.6857
vn 0.2785 0.6725 0.6857
vn 0.4044 0.6052 -0.6857
vn 0.4044 0.6052 0.6857
vn 0.5147 0.5147 -0.6857
vn 0.5147 0.5147 0.6857
vn 0.6052 0.4044 -0.6857
vn 0.6052 0.4044 0.6857
vn 0.6725 0.2785 -0.6857
vn 0.6725 0.2785 0.6857
vn 0.7139 0.1420 -0.6857
vn 0.7139 0.1420 0.6857
vn 0.7279 0.0000 -0.6857
vn 0.7279 0.0000 0.6857
vn 0.7139 -0.1420 -0.6857
vn 0.7139 -0.1420 0.6857
vn 0.6725 -0.2785 -0.6857
vn 0.6725 -0.2785 0.6857
vn 0.6052 -0.4044 -0.6857
vn 0.6052 -0.4044 0.6857
vn 0.5147 -0.5147 -0.6857
vn 0.5147 -0.5147 0.6857
vn 0.4044 -0.6052 -0.6857
vn 0.4044 -0.6052 0.6857
vn 0.2785 -0.6725 -0.6857
vn 0.2785 -0.6725 0.6857
vn 0.1420 -0.7139 -0.6857
vn 0.1420 -0.7139 0.6857
vn 0.0000 -0.7279 -0.6857
vn 0.0000 -0.7279 0.6857
vn -0.1420 -0.7139 -0.6857
vn -0.1420 -0.7139 0.6857
vn -0.2785 -0.6725 -0.6857
vn -0.2785 -0.6725 0.6857
vn -0.4044 -0.6052 -0.6857
vn -0.4044 -0.6052 0.6857
vn -0.5147 -0.5147 -0.6857
vn -0.5147 -0.5147 0.6857
vn -0.6052 -0.4044 -0.6857
vn -0.6052 -0.4044 0.6857
vn -0.6725 -0.2785 -0.6857
vn -0.6725 -0.2785 0.6857
vn -0.7139 -0.1420 -0.6857
vn -0.7139 -0.1420 0.6857
vn -0.7279 0.0000 -0.6857
vn -0.7279 0.0000 0.6857
vn -0.7139 0.1420 -0.6857
vn -0.7139 0.1420 0.6857
vn -0.6725 0.2785 -0.6857
vn -0.6725 0.2785 0.6857
vn -0.6052 0.4044 -0.6857
vn -0.6052 0.4044 0.6857
vn -0.5147 0.5147 -0.6857
vn -0.5147 0.5147 0.6857
vn -0.4044 0.6052 -0.6857
vn -0.4044 0.6052 0.6857
vn -0.2785 0.6725 -0.6857
vn -0.2785 0.6725 0.6857
vn -0.1420 0.7139 -0.6857
vn -0.1420 0.7139 0.6857
vn 0.5773 0.5773 -0.5773
vn 0.5773 -0.5773 -0.5773
vn -0.5773 -0.5773 -0.5773
vn -0.5773 0.5773 -0.5773
vn 0.5773 0.5773 0.5773
vn -0.5773 0.5773 0.5773
vn -0.5773 -0.5773 0.5773
vn 0.5773 -0.5773 0.5773
vn 0.1530 0.7690 -0.6207
vn 0.0000 0.7841 -0.6207
vn 0.3000 0.7244 -0.6207
vn 0.4356 0.6519 -0.6207
vn 0.5544 0.5544 -0.6207
vn 0.6519 0.4356 -0.6207
vn 0.7244 0.3000 -0.6207
vn 0.7690 0.1530 -0.6207
vn 0.7841 0.0000 -0.6207
vn 0.7690 -0.1530 -0.6207
vn 0.7244 -0.3000 -0.6207
vn 0.6519 -0.4356 -0.6207
vn 0.5544 -0.5544 -0.6207
vn 0.4356 -0.6519 -0.6207
vn 0.3000 -0.7244 -0.6207
vn 0.1530 -0.7690 -0.6207
vn 0.0000 -0.7841 -0.6207
vn -0.1530 -0.7690 -0.6207
vn -0.3000 -0.7244 -0.6207
vn -0.4356 -0.6519 -0.6207
vn -0.5544 -0.5544 -0.6207
vn -0.6519 -0.4356 -0.6207
vn -0.7244 -0.3000 -0.6207
vn -0.7690 -0.1530 -0.6207
vn -0.7841 0.0000 -0.6207
vn -0.7690 0.1530 -0.6207
vn -0.7244 0.3000 -0.6207
vn -0.6519 0.4356 -0.6207
vn -0.5544 0.5544 -0.6207
vn -0.4356 0.6519 -0.6207
vn -0.3000 0.7244 -0.6207
vn -0.1530 0.7690 -0.6207
vn 0.6020 0.5773 -0.5516
vn 0.6020 -0.5773 -0.5516
vn -0.5516 -0.5773 -0.6020
vn -0.5516 0.5773 -0.6020
vn 0.5516 0.5773 0.6020
vn -0.6020 0.5773 0.5516
vn -0.6020 -0.5773 0.5516
vn 0.5516 -0.5773 0.6020
vn 0.5860 0.6008 -0.5436
vn 0.5858 -0.6011 -0.5436
vn -0.5861 -0.6012 -0.5431
vn -0.5860 0.6006 -0.5439
vn 0.5673 0.5523 0.6108
vn -0.5681 0.5522 0.6102
vn -0.5676 -0.5513 0.6113
vn 0.5682 -0.5519 0.6103
vn 0.5516 0.5773 -0.6020
vn 0.5516 -0.5773 -0.6020
vn -0.6020 -0.5773 -0.5516
vn -0.6020 0.5773 -0.5516
vn 0.6020 0.5773 0.5516
vn -0.5516 0.5773 0.6020
vn -0.5516 -0.5773 0.6020
vn 0.6020 -0.5773 0.5516
vn 0.6308 0.6315 -0.4509
vn 0.6315 -0.6308 -0.4509
vn -0.6312 -0.6309 -0.4512
vn -0.6308 0.6312 -0.4512
vn 0.5012 0.5048 0.7028
vn -0.5025 0.5033 0.7029
vn -0.5050 -0.5025 0.7017
vn 0.5047 -0.5026 0.7018
usemtl Material
s 1
f 65//1 1//2 2//3
f 66//4 34//5 33//6
f 65//1 2//3 3//7
f 66//4 35//8 34//5
f 65//1 3//7 4//9
f 66//4 36//10 35//8
f 65//1 4//9 5//11
f 66//4 37//12 36//10
f 65//1 5//11 6//13
f 66//4 38//14 37//12
f 65//1 6//13 7//15
f 66//4 39//16 38//14
f 65//1 7//15 8//17
f 66//4 40//18 39//16
f 65//1 8//17 9//19
f 66//4 41//20 40//18
f 65//1 9//19 10//21
f 66//4 42//22 41//20
f 65//1 10//21 11//23
f 66//4 43//24 42//22
f 65//1 11//23 12//25
f 66//4 44//26 43//24
f 65//1 12//25 13//27
f 66//4 45//28 44//26
f 65//1 13//27 14//29
f 66//4 46//30 45//28
f 65//1 14//29 15//31
f 66//4 47//32 46//30
f 65//1 15//31 16//33
f 66//4 48//34 47//32
f 65//1 16//33 17//35
f 66//4 49//36 48//34
f 65//1 17//35 18//37
f 66//4 50//38 49//36
f 65//1 18//37 19//39
f 66//4 51//40 50//38
f 65//1 19//39 20//41
f 66//4 52//42 51//40
f 65//1 20//41 21//43
f 66//4 53//44 52//42
f 65//1 21//43 22//45
f 66//4 54//46 53//44
f 65//1 22//45 23//47
f 66//4 55//48 54//46
f 65//1 23//47 24//49
f 66//4 56//50 55//48
f 65//1 24//49 25//51
f 66//4 57//52 56//50
f 65//1 25//51 26//53
f 66//4 58//54 57//52
f 65//1 26//53 27//55
f 66//4 59//56 58//54
f 65//1 27//55 28//57
f 66//4 60//58 59//56
f 65//1 28//57 29//59
f 66//4 61//60 60//58
f 65//1 29//59 30//61
f 66//4 62//62 61//60
f 65//1 30//61 31//63
f 66//4 63//64 62//62
f 65//1 31//63 32//65
f 66//4 64//66 63//64
f 32//65 1//2 65//1
f 66//4 33//6 64//66
f 1//2 33//6 34//5 2//3
f 2//3 34//5 35//8 3//7
f 3//7 35//8 36//10 4//9
f 4//9 36//10 37//12 5//11
f 5//11 37//12 38//14 6//13
f 6//13 38//14 39//16 7//15
f 7//15 39//16 40//18 8//17
f 8//17 40//18 41//20 9//19
f 9//19 41//20 42//22 10//21
f 10//21 42//22 43//24 11//23
f 11//23 43//24 44//26 12//25
f 12//25 44//26 45//28 13//27
f 13//27 45//28 46//30 14//29
f 14//29 46//30 47//32 15//31
f 15//31 47//32 48//34 16//33
f 16//33 48//34 49//36 17//35
f 17//35 49//36 50//38 18//37
f 18//37 50//38 51//40 19//39
f 19//39 51//40 52//42 20//41
f 20//41 52//42 53//44 21//43
f 21//43 53//44 54//46 22//45
f 22//45 54//46 55//48 23//47
f 23//47 55//48 56//50 24//49
f 24//49 56//50 57//52 25//51
f 25//51 57//52 58//54 26//53
f 26//53 58//54 59//56 27//55
f 27//55 59//56 60//58 28//57
f 28//57 60//58 61//60 29//59
f 29//59 61//60 62//62 30//61
f 30//61 62//62 63//64 31//63
f 31//63 63//64 64//66 32//65
f 33//6 1//2 32//65 64//66
usemtl Material.001
f 131//1 67//2 68//3
f 132//4 100//5 99//6
f 131//1 68//3 69//7
f 132//4 101//8 100//5
f 131//1 69//7 70//9
f 132//4 102//10 101//8
f 131//1 70//9 71//11
f 132//4 103//12 102//10
f 131//1 71//11 72//13
f 132//4 104//14 103//12
f 131//1 72//13 73//15
f 132//4 105//16 104//14
f 131//1 73//15 74//17
f 132//4 106//18 105//16
f 131//1 74//17 75//19
f 132//4 107//20 106//18
f 131//1 75//19 76//21
f 132//4 108//22 107//20
f 131//1 76//21 77//23
f 132//4 109//24 108//22
f 131//1 77//23 78//25
f 132//4 110//26 109//24
f 131//1 78//25 79//27
f 132//4 111//28 110//26
f 131//1 79//27 80//29
f 132//4 112//30 111//28
f 131//1 80//29 81//31
f 132//4 113//32 112//30
f 131//1 81//31 82//33
f 132//4 114//34 113//32
f 131//1 82//33 83//35
f 132//4 115//36 114//34
f 131//1 83//35 84//37
f 132//4 116//38 115//36
f 131//1 84//37 85//39
f 132//4 117//40 116//38
f 131//1 85//39 86//41
f 132//4 118//42 117//40
f 131//1 86//41 87//43
f 132//4 119//44 118//42
f 131//1 87//43 88//45
f 132//4 120//46 119//44
f 131//1 88//45 89//47
f 132//4 121//48 120//46
f 131//1 89//47 90//49
f 132//4 122//50 121//48
f 131//1 90//49 91//51
f 132//4 123//52 122//50
f 131//1 91//51 92//53
f 132//4 124//54 123//52
f 131//1 92//53 93//55
f 132//4 125//56 124//54
f 131//1 93//55 94//57
f 132//4 126//58 125//56
f 131//1 94//57 95//59
f 132//4 127//60 126//58
f 131//1 95//59 96//61
f 132//4 128//62 127//60
f 131//1 96//61 97//63
f 132//4 129//64 128//62
f 131//1 97//63 98//65
f 132//4 130//66 129//64
f 98//65 67//2 131//1
f 132//4 99//6 130//66
f 67//2 99//6 100//5 68//3
f 68//3 100//5 101//8 69//7
f 69//7 101//8 102//10 70//9
f 70//9 102//10 103//12 71//11
f 71//11 103//12 104//14 72//13
f 72//13 104//14 105//16 73//15
f 73//15 105//16 106//18 74//17
f 74//17 106//18 107//20 75//19
f 75//19 107//20 108//22 76//21
f 76//21 108//22 109//24 77//23
f 77//23 109//24 110//26 78//25
f 78//25 110//26 111//28 79//27
f 79//27 111//28 112//30 80//29
f 80//29 112//30 113//32 81//31
f 81//31 113//32 114//34 82//33
f 82//33 114//34 115//36 83//35
f 83//35 115//36 116//38 84//37
f 84//37 116//38 117//40 85//39
f 85//39 117//40 118//42 86//41
f 86//41 118//42 119//44 87//43
f 87//43 119//44 120//46 88//45
f 88//45 120//46 121//48 89//47
f 89//47 121//48 122//50 90//49
f 90//49 122//50 123//52 91//51
f 91//51 123//52 124//54 92//53
f 92//53 124//54 125//56 93//55
f 93//55 125//56 126//58 94//57
f 94//57 126//58 127//60 95//59
f 95//59 127//60 128//62 96//61
f 96//61 128//62 129//64 97//63
f 97//63 129//64 130//66 98//65
f 99//6 67//2 98//65 130//66
usemtl Material.003
f 133//67 134//68 135//69 136//70
f 137//71 140//72 139//73 138//74
f 133//67 137//71 138//74 134//68
f 134//68 138//74 139//73 135//69
f 135//69 139//73 140//72 136//70
f 137//71 133//67 136//70 140//72
usemtl Material.007
f 142//75 141//76 173//4
f 173//4 143//77 142//75
f 173//4 144//78 143//77
f 173//4 145//79 144//78
f 173//4 146//80 145//79
f 173//4 147//81 146//80
f 173//4 148//82 147//81
f 173//4 149//83 148//82
f 173//4 150//84 149//83
f 173//4 151//85 150//84
f 173//4 152//86 151//85
f 173//4 153//87 152//86
f 173//4 154//88 153//87
f 173//4 155//89 154//88
f 173//4 156//90 155//89
f 173//4 157//91 156//90
f 173//4 158//92 157//91
f 173//4 159//93 158//92
f 173//4 160//94 159//93
f 173//4 161//95 160//94
f 173//4 162//96 161//95
f 173//4 163//97 162//96
f 173//4 164//98 163//97
f 173//4 165//99 164//98
f 173//4 166//100 165//99
f 173//4 167//101 166//100
f 173//4 168//102 167//101
f 173//4 169//103 168//102
f 173//4 170//104 169//103
f 173//4 171//105 170//104
f 173//4 172//106 171//105
f 173//4 141//76 172//106
f 174//1 141//76 142//75
f 174//1 142//75 143//77
f 174//1 143//77 144//78
f 174//1 144//78 145//79
f 174//1 145//79 146//80
f 174//1 146//80 147//81
f 174//1 147//81 148//82
f 174//1 148//82 149//83
f 174//1 149//83 150//84
f 174//1 150//84 151//85
f 174//1 151//85 152//86
f 174//1 152//86 153//87
f 174//1 153//87 154//88
f 174//1 154//88 155//89
f 174//1 155//89 156//90
f 174//1 156//90 157//91
f 174//1 157//91 158//92
f 174//1 158//92 159//93
f 174//1 159//93 160//94
f 174//1 160//94 161//95
f 174//1 161//95 162//96
f 174//1 162//96 163//97
f 174//1 163//97 164//98
f 174//1 164//98 165//99
f 174//1 165//99 166//100
f 174//1 166//100 167//101
f 174//1 167//101 168//102
f 174//1 168//102 169//103
f 174//1 169//103 170//104
f 174//1 170//104 171//105
f 174//1 171//105 172//106
f 172//106 141//76 174//1
usemtl Material.004
f 175//107 176//108 177//109 178//110
f 179//111 182//112 181//113 180//114
f 175//107 179//111 180//114 176//108
f 176//108 180//114 181//113 177//109
f 177//109 181//113 182//112 178//110
f 179//111 175//107 178//110 182//112
usemtl Material.006
f 183//115 184//116 185//117 186//118
f 187//119 190//120 189//121 188//122
f 183//115 187//119 188//122 184//116
f 184//116 188//122 189//121 185//117
f 185//117 189//121 190//120 186//118
f 187//119 183//115 186//118 190//120
usemtl Material.005
f 191//123 192//124 193//125 194//126
f 195//127 198//128 197//129 196//130
f 191//123 195//127 196//130 192//124
f 192//124 196//130 197//129 193//125
f 193//125 197//129 198//128 194//126
f 195//127 191//123 194//126 198//128
usemtl Material.002
f 199//131 200//132 201//133 202//134
f 203//135 206//136 205//137 204//138
f 199//131 203//135 204//138 200//132
f 200//132 204//138 205//137 201//133
f 201//133 205//137 206//136 202//134
f 203//135 199//131 202//134 206//136
l 1 65
l 1 2
l 2 65
l 33 66
l 33 34
l 34 66
l 2 3
l 3 65
l 34 35
l 35 66
l 3 4
l 4 65
l 35 36
l 36 66
l 4 5
l 5 65
l 36 37
l 37 66
l 5 6
l 6 65
l 37 38
l 38 66
l 6 7
l 7 65
l 38 39
l 39 66
l 7 8
l 8 65
l 39 40
l 40 66
l 8 9
l 9 65
l 40 41
l 41 66
l 9 10
l 10 65
l 41 42
l 42 66
l 10 11
l 11 65
l 42 43
l 43 66
l 11 12
l 12 65
l 43 44
l 44 66
l 12 13
l 13 65
l 44 45
l 45 66
l 13 14
l 14 65
l 45 46
l 46 66
l 14 15
l 15 65
l 46 47
l 47 66
l 15 16
l 16 65
l 47 48
l 48 66
l 16 17
l 17 65
l 48 49
l 49 66
l 17 18
l 18 65
l 49 50
l 50 66
l 18 19
l 19 65
l 50 51
l 51 66
l 19 20
l 20 65
l 51 52
l 52 66
l 20 21
l 21 65
l 52 53
l 53 66
l 21 22
l 22 65
l 53 54
l 54 66
l 22 23
l 23 65
l 54 55
l 55 66
l 23 24
l 24 65
l 55 56
l 56 66
l 24 25
l 25 65
l 56 57
l 57 66
l 25 26
l 26 65
l 57 58
l 58 66
l 26 27
l 27 65
l 58 59
l 59 66
l 27 28
l 28 65
l 59 60
l 60 66
l 28 29
l 29 65
l 60 61
l 61 66
l 29 30
l 30 65
l 61 62
l 62 66
l 30 31
l 31 65
l 62 63
l 63 66
l 31 32
l 32 65
l 63 64
l 64 66
l 1 32
l 33 64
l 2 34
l 1 33
l 3 35
l 4 36
l 5 37
l 6 38
l 7 39
l 8 40
l 9 41
l 10 42
l 11 43
l 12 44
l 13 45
l 14 46
l 15 47
l 16 48
l 17 49
l 18 50
l 19 51
l 20 52
l 21 53
l 22 54
l 23 55
l 24 56
l 25 57
l 26 58
l 27 59
l 28 60
l 29 61
l 30 62
l 31 63
l 32 64
l 67 131
l 67 68
l 68 131
l 99 132
l 99 100
l 100 132
l 68 69
l 69 131
l 100 101
l 101 132
l 69 70
l 70 131
l 101 102
l 102 132
l 70 71
l 71 131
l 102 103
l 103 132
l 71 72
l 72 131
l 103 104
l 104 132
l 72 73
l 73 131
l 104 105
l 105 132
l 73 74
l 74 131
l 105 106
l 106 132
l 74 75
l 75 131
l 106 107
l 107 132
l 75 76
l 76 131
l 107 108
l 108 132
l 76 77
l 77 131
l 108 109
l 109 132
l 77 78
l 78 131
l 109 110
l 110 132
l 78 79
l 79 131
l 110 111
l 111 132
l 79 80
l 80 131
l 111 112
l 112 132
l 80 81
l 81 131
l 112 113
l 113 132
l 81 82
l 82 131
l 113 114
l 114 132
l 82 83
l 83 131
l 114 115
l 115 132
l 83 84
l 84 131
l 115 116
l 116 132
l 84 85
l 85 131
l 116 117
l 117 132
l 85 86
l 86 131
l 117 118
l 118 132
l 86 87
l 87 131
l 118 119
l 119 132
l 87 88
l 88 131
l 119 120
l 120 132
l 88 89
l 89 131
l 120 121
l 121 132
l 89 90
l 90 131
l 121 122
l 122 132
l 90 91
l 91 131
l 122 123
l 123 132
l 91 92
l 92 131
l 123 124
l 124 132
l 92 93
l 93 131
l 124 125
l 125 132
l 93 94
l 94 131
l 125 126
l 126 132
l 94 95
l 95 131
l 126 127
l 127 132
l 95 96
l 96 131
l 127 128
l 128 132
l 96 97
l 97 131
l 128 129
l 129 132
l 97 98
l 98 131
l 129 130
l 130 132
l 67 98
l 99 130
l 68 100
l 67 99
l 69 101
l 70 102
l 71 103
l 72 104
l 73 105
l 74 106
l 75 107
l 76 108
l 77 109
l 78 110
l 79 111
l 80 112
l 81 113
l 82 114
l 83 115
l 84 116
l 85 117
l 86 118
l 87 119
l 88 120
l 89 121
l 90 122
l 91 123
l 92 124
l 93 125
l 94 126
l 95 127
l 96 128
l 97 129
l 98 130
l 134 135
l 133 134
l 133 136
l 135 136
l 137 138
l 138 139
l 139 140
l 137 140
l 134 138
l 133 137
l 135 139
l 136 140
l 141 173
l 141 142
l 142 173
l 142 143
l 143 173
l 143 144
l 144 173
l 144 145
l 145 173
l 145 146
l 146 173
l 146 147
l 147 173
l 147 148
l 148 173
l 148 149
l 149 173
l 149 150
l 150 173
l 150 151
l 151 173
l 151 152
l 152 173
l 152 153
l 153 173
l 153 154
l 154 173
l 154 155
l 155 173
l 155 156
l 156 173
l 156 157
l 157 173
l 157 158
l 158 173
l 158 159
l 159 173
l 159 160
l 160 173
l 160 161
l 161 173
l 161 162
l 162 173
l 162 163
l 163 173
l 163 164
l 164 173
l 164 165
l 165 173
l 165 166
l 166 173
l 166 167
l 167 173
l 167 168
l 168 173
l 168 169
l 169 173
l 169 170
l 170 173
l 170 171
l 171 173
l 171 172
l 172 173
l 141 172
l 142 174
l 141 174
l 143 174
l 144 174
l 145 174
l 146 174
l 147 174
l 148 174
l 149 174
l 150 174
l 151 174
l 152 174
l 153 174
l 154 174
l 155 174
l 156 174
l 157 174
l 158 174
l 159 174
l 160 174
l 161 174
l 162 174
l 163 174
l 164 174
l 165 174
l 166 174
l 167 174
l 168 174
l 169 174
l 170 174
l 171 174
l 172 174
l 176 177
l 175 176
l 175 178
l 177 178
l 179 180
l 180 181
l 181 182
l 179 182
l 176 180
l 175 179
l 177 181
l 178 182
l 184 185
l 183 184
l 183 186
l 185 186
l 187 188
l 188 189
l 189 190
l 187 190
l 184 188
l 183 187
l 185 189
l 186 190
l 192 193
l 191 192
l 191 194
l 193 194
l 195 196
l 196 197
l 197 198
l 195 198
l 192 196
l 191 195
l 193 197
l 194 198
l 200 201
l 199 200
l 199 202
l 201 202
l 203 204
l 204 205
l 205 206
l 203 206
l 200 204
l 199 203
l 201 205
l 202 206
